<svg width="598" height="144" viewBox="0 0 598 144" fill="none" xmlns="http://www.w3.org/2000/svg">
<path d="M1.504 16V4.8H3.584V14.08H8.752V16H1.504ZM10.809 16V4.8H18.137V6.688H12.857V14.112H18.201V16H10.809ZM11.769 11.2V9.344H17.321V11.2H11.769ZM19.241 16L23.609 4.8H25.561L29.897 16H27.737L25.337 9.632C25.2837 9.504 25.209 9.30133 25.113 9.024C25.0277 8.74667 24.9317 8.448 24.825 8.128C24.7183 7.79733 24.6223 7.49333 24.537 7.216C24.4517 6.928 24.3877 6.72 24.345 6.592L24.745 6.576C24.681 6.78933 24.6063 7.02933 24.521 7.296C24.4357 7.56267 24.345 7.84 24.249 8.128C24.153 8.416 24.057 8.69333 23.961 8.96C23.8757 9.22667 23.7957 9.46667 23.721 9.68L21.321 16H19.241ZM21.225 13.44L21.945 11.632H27.049L27.817 13.44H21.225ZM31.3409 16V4.8H36.2049C36.8769 4.8 37.4902 4.96 38.0449 5.28C38.5995 5.58933 39.0369 6.016 39.3569 6.56C39.6875 7.09333 39.8529 7.696 39.8529 8.368C39.8529 9.008 39.6875 9.6 39.3569 10.144C39.0369 10.6773 38.5995 11.104 38.0449 11.424C37.5009 11.7333 36.8875 11.888 36.2049 11.888H33.3729V16H31.3409ZM37.8369 16L34.9889 10.944L37.1329 10.544L40.3009 16.016L37.8369 16ZM33.3729 10.08H36.2209C36.5302 10.08 36.7969 10.0107 37.0209 9.872C37.2555 9.72267 37.4369 9.52 37.5649 9.264C37.6929 9.008 37.7569 8.72533 37.7569 8.416C37.7569 8.064 37.6769 7.76 37.5169 7.504C37.3569 7.248 37.1329 7.04533 36.8449 6.896C36.5569 6.74667 36.2262 6.672 35.8529 6.672H33.3729V10.08ZM42.1771 16V4.8H44.0491L50.5451 13.552L50.1931 13.616C50.1505 13.3173 50.1131 13.0133 50.0811 12.704C50.0491 12.384 50.0171 12.0533 49.9851 11.712C49.9638 11.3707 49.9425 11.0133 49.9211 10.64C49.9105 10.2667 49.8998 9.87733 49.8891 9.472C49.8785 9.056 49.8731 8.61867 49.8731 8.16V4.8H51.9371V16H50.0331L43.5051 7.376L43.9211 7.264C43.9745 7.86133 44.0171 8.37333 44.0491 8.8C44.0918 9.216 44.1238 9.57867 44.1451 9.888C44.1665 10.1867 44.1825 10.4373 44.1931 10.64C44.2145 10.8427 44.2251 11.0293 44.2251 11.2C44.2358 11.36 44.2411 11.5147 44.2411 11.664V16H42.1771ZM59.0059 16V4.8H60.9739L65.0539 11.44L63.9019 11.424L68.0299 4.8H69.9019V16H67.8379V11.792C67.8379 10.832 67.8592 9.968 67.9019 9.2C67.9552 8.432 68.0405 7.66933 68.1579 6.912L68.4139 7.6L64.9419 12.96H63.8859L60.5259 7.648L60.7499 6.912C60.8672 7.62667 60.9472 8.36267 60.9899 9.12C61.0432 9.86667 61.0699 10.7573 61.0699 11.792V16H59.0059ZM77.4241 16.16C76.6241 16.16 75.8828 16.016 75.2001 15.728C74.5175 15.44 73.9201 15.04 73.4081 14.528C72.9068 14.0053 72.5175 13.392 72.2401 12.688C71.9628 11.984 71.8241 11.216 71.8241 10.384C71.8241 9.552 71.9628 8.784 72.2401 8.08C72.5175 7.376 72.9068 6.768 73.4081 6.256C73.9201 5.73333 74.5175 5.328 75.2001 5.04C75.8828 4.752 76.6241 4.608 77.4241 4.608C78.2348 4.608 78.9815 4.752 79.6641 5.04C80.3468 5.328 80.9388 5.73333 81.4401 6.256C81.9415 6.77867 82.3308 7.392 82.6081 8.096C82.8855 8.78933 83.0241 9.552 83.0241 10.384C83.0241 11.2053 82.8855 11.968 82.6081 12.672C82.3308 13.376 81.9415 13.9893 81.4401 14.512C80.9388 15.0347 80.3468 15.44 79.6641 15.728C78.9815 16.016 78.2348 16.16 77.4241 16.16ZM77.4241 14.176C77.9361 14.176 78.4001 14.0853 78.8161 13.904C79.2428 13.712 79.6108 13.4453 79.9201 13.104C80.2295 12.752 80.4695 12.3467 80.6401 11.888C80.8215 11.4293 80.9121 10.928 80.9121 10.384C80.9121 9.84 80.8215 9.33867 80.6401 8.88C80.4695 8.42133 80.2295 8.02133 79.9201 7.68C79.6108 7.328 79.2428 7.06133 78.8161 6.88C78.4001 6.688 77.9361 6.592 77.4241 6.592C76.9228 6.592 76.4588 6.688 76.0321 6.88C75.6055 7.06133 75.2375 7.32267 74.9281 7.664C74.6188 8.00533 74.3788 8.40533 74.2081 8.864C74.0375 9.32267 73.9521 9.82933 73.9521 10.384C73.9521 10.928 74.0375 11.4347 74.2081 11.904C74.3788 12.3627 74.6188 12.7627 74.9281 13.104C75.2375 13.4453 75.6055 13.712 76.0321 13.904C76.4588 14.0853 76.9228 14.176 77.4241 14.176ZM84.9596 16V4.8H89.8236C90.4956 4.8 91.109 4.96 91.6636 5.28C92.2183 5.58933 92.6556 6.016 92.9756 6.56C93.3063 7.09333 93.4716 7.696 93.4716 8.368C93.4716 9.008 93.3063 9.6 92.9756 10.144C92.6556 10.6773 92.2183 11.104 91.6636 11.424C91.1196 11.7333 90.5063 11.888 89.8236 11.888H86.9916V16H84.9596ZM91.4556 16L88.6076 10.944L90.7516 10.544L93.9196 16.016L91.4556 16ZM86.9916 10.08H89.8396C90.149 10.08 90.4156 10.0107 90.6396 9.872C90.8743 9.72267 91.0556 9.52 91.1836 9.264C91.3116 9.008 91.3756 8.72533 91.3756 8.416C91.3756 8.064 91.2956 7.76 91.1356 7.504C90.9756 7.248 90.7516 7.04533 90.4636 6.896C90.1756 6.74667 89.845 6.672 89.4716 6.672H86.9916V10.08ZM95.7959 16V4.8H103.124V6.688H97.8439V14.112H103.188V16H95.7959ZM96.7559 11.2V9.344H102.308V11.2H96.7559ZM108.611 16L112.979 4.8H114.931L119.267 16H117.107L114.707 9.632C114.654 9.504 114.579 9.30133 114.483 9.024C114.398 8.74667 114.302 8.448 114.195 8.128C114.088 7.79733 113.992 7.49333 113.907 7.216C113.822 6.928 113.758 6.72 113.715 6.592L114.115 6.576C114.051 6.78933 113.976 7.02933 113.891 7.296C113.806 7.56267 113.715 7.84 113.619 8.128C113.523 8.416 113.427 8.69333 113.331 8.96C113.246 9.22667 113.166 9.46667 113.091 9.68L110.691 16H108.611ZM110.595 13.44L111.315 11.632H116.419L117.187 13.44H110.595ZM120.711 16V4.8H125.479C126.215 4.8 126.834 4.90667 127.335 5.12C127.847 5.33333 128.231 5.65333 128.487 6.08C128.754 6.496 128.887 7.00267 128.887 7.6C128.887 8.21867 128.722 8.74133 128.391 9.168C128.06 9.59467 127.596 9.888 126.999 10.048L126.983 9.728C127.484 9.83467 127.922 10.0267 128.295 10.304C128.668 10.5707 128.956 10.9067 129.159 11.312C129.372 11.7067 129.479 12.16 129.479 12.672C129.479 13.216 129.388 13.696 129.207 14.112C129.036 14.528 128.78 14.8747 128.439 15.152C128.098 15.4293 127.692 15.6427 127.223 15.792C126.754 15.9307 126.226 16 125.639 16H120.711ZM122.743 14.128H125.543C125.938 14.128 126.268 14.0693 126.535 13.952C126.812 13.8347 127.02 13.664 127.159 13.44C127.308 13.2053 127.383 12.928 127.383 12.608C127.383 12.3093 127.303 12.0533 127.143 11.84C126.994 11.6267 126.775 11.4667 126.487 11.36C126.199 11.2427 125.858 11.184 125.463 11.184H122.743V14.128ZM122.743 9.392H125.287C125.596 9.392 125.863 9.33333 126.087 9.216C126.322 9.09867 126.503 8.93867 126.631 8.736C126.759 8.53333 126.823 8.29867 126.823 8.032C126.823 7.60533 126.679 7.27467 126.391 7.04C126.103 6.79467 125.682 6.672 125.127 6.672H122.743V9.392ZM136.238 16.16C135.438 16.16 134.697 16.016 134.014 15.728C133.332 15.44 132.734 15.04 132.222 14.528C131.721 14.0053 131.332 13.392 131.054 12.688C130.777 11.984 130.638 11.216 130.638 10.384C130.638 9.552 130.777 8.784 131.054 8.08C131.332 7.376 131.721 6.768 132.222 6.256C132.734 5.73333 133.332 5.328 134.014 5.04C134.697 4.752 135.438 4.608 136.238 4.608C137.049 4.608 137.796 4.752 138.478 5.04C139.161 5.328 139.753 5.73333 140.254 6.256C140.756 6.77867 141.145 7.392 141.422 8.096C141.7 8.78933 141.838 9.552 141.838 10.384C141.838 11.2053 141.7 11.968 141.422 12.672C141.145 13.376 140.756 13.9893 140.254 14.512C139.753 15.0347 139.161 15.44 138.478 15.728C137.796 16.016 137.049 16.16 136.238 16.16ZM136.238 14.176C136.75 14.176 137.214 14.0853 137.63 13.904C138.057 13.712 138.425 13.4453 138.734 13.104C139.044 12.752 139.284 12.3467 139.454 11.888C139.636 11.4293 139.726 10.928 139.726 10.384C139.726 9.84 139.636 9.33867 139.454 8.88C139.284 8.42133 139.044 8.02133 138.734 7.68C138.425 7.328 138.057 7.06133 137.63 6.88C137.214 6.688 136.75 6.592 136.238 6.592C135.737 6.592 135.273 6.688 134.846 6.88C134.42 7.06133 134.052 7.32267 133.742 7.664C133.433 8.00533 133.193 8.40533 133.022 8.864C132.852 9.32267 132.766 9.82933 132.766 10.384C132.766 10.928 132.852 11.4347 133.022 11.904C133.193 12.3627 133.433 12.7627 133.742 13.104C134.052 13.4453 134.42 13.712 134.846 13.904C135.273 14.0853 135.737 14.176 136.238 14.176ZM148.254 16.096C147.369 16.096 146.579 15.9093 145.886 15.536C145.193 15.152 144.643 14.6293 144.238 13.968C143.843 13.296 143.646 12.5387 143.646 11.696V4.784H145.742V11.552C145.742 12.0533 145.854 12.5013 146.078 12.896C146.313 13.28 146.622 13.5893 147.006 13.824C147.39 14.0587 147.806 14.176 148.254 14.176C148.745 14.176 149.187 14.0587 149.582 13.824C149.977 13.5893 150.286 13.28 150.51 12.896C150.745 12.5013 150.862 12.0533 150.862 11.552V4.784H152.878V11.696C152.878 12.5387 152.675 13.296 152.27 13.968C151.875 14.6293 151.331 15.152 150.638 15.536C149.945 15.9093 149.15 16.096 148.254 16.096ZM157.678 16V6.72H154.478V4.8H163.054V6.72H159.758V16H157.678ZM173.638 16.096C172.752 16.096 171.963 15.9093 171.27 15.536C170.576 15.152 170.027 14.6293 169.622 13.968C169.227 13.296 169.03 12.5387 169.03 11.696V4.784H171.126V11.552C171.126 12.0533 171.238 12.5013 171.462 12.896C171.696 13.28 172.006 13.5893 172.39 13.824C172.774 14.0587 173.19 14.176 173.638 14.176C174.128 14.176 174.571 14.0587 174.966 13.824C175.36 13.5893 175.67 13.28 175.894 12.896C176.128 12.5013 176.246 12.0533 176.246 11.552V4.784H178.262V11.696C178.262 12.5387 178.059 13.296 177.654 13.968C177.259 14.6293 176.715 15.152 176.022 15.536C175.328 15.9093 174.534 16.096 173.638 16.096ZM184.218 16.16C183.567 16.16 182.97 16.08 182.426 15.92C181.882 15.7493 181.391 15.4987 180.954 15.168C180.517 14.8373 180.127 14.4373 179.786 13.968L181.146 12.432C181.669 13.1573 182.181 13.6587 182.682 13.936C183.183 14.2133 183.749 14.352 184.378 14.352C184.741 14.352 185.071 14.2987 185.37 14.192C185.669 14.0747 185.903 13.92 186.074 13.728C186.245 13.5253 186.33 13.296 186.33 13.04C186.33 12.8587 186.293 12.6933 186.218 12.544C186.154 12.384 186.053 12.2453 185.914 12.128C185.775 12 185.605 11.8827 185.402 11.776C185.199 11.6693 184.97 11.5787 184.714 11.504C184.458 11.4293 184.175 11.36 183.866 11.296C183.279 11.1787 182.767 11.024 182.33 10.832C181.893 10.6293 181.525 10.384 181.226 10.096C180.927 9.79733 180.709 9.46667 180.57 9.104C180.431 8.73067 180.362 8.30933 180.362 7.84C180.362 7.37067 180.463 6.93867 180.666 6.544C180.879 6.14933 181.167 5.808 181.53 5.52C181.893 5.232 182.314 5.008 182.794 4.848C183.274 4.688 183.791 4.608 184.346 4.608C184.975 4.608 185.535 4.68267 186.026 4.832C186.527 4.98133 186.965 5.20533 187.338 5.504C187.722 5.792 188.037 6.144 188.282 6.56L186.906 7.92C186.693 7.58933 186.453 7.31733 186.186 7.104C185.919 6.88 185.631 6.71467 185.322 6.608C185.013 6.49067 184.687 6.432 184.346 6.432C183.962 6.432 183.626 6.48533 183.338 6.592C183.061 6.69867 182.842 6.85333 182.682 7.056C182.522 7.248 182.442 7.48267 182.442 7.76C182.442 7.97333 182.49 8.16533 182.586 8.336C182.682 8.496 182.815 8.64 182.986 8.768C183.167 8.896 183.397 9.008 183.674 9.104C183.951 9.2 184.266 9.28533 184.618 9.36C185.205 9.47733 185.733 9.63733 186.202 9.84C186.671 10.032 187.071 10.2667 187.402 10.544C187.733 10.8107 187.983 11.12 188.154 11.472C188.325 11.8133 188.41 12.1973 188.41 12.624C188.41 13.36 188.234 13.9947 187.882 14.528C187.541 15.0507 187.055 15.456 186.426 15.744C185.797 16.0213 185.061 16.16 184.218 16.16Z" fill="#1675FF"/>
<path d="M10.304 74L0.506 41.8H7.59L12.834 59.786C13.0487 60.43 13.2327 61.1353 13.386 61.902C13.57 62.638 13.708 63.3587 13.8 64.064C13.9227 64.7387 14.0147 65.3827 14.076 65.996C14.168 66.5787 14.2447 67.0693 14.306 67.468L13.202 67.422C13.478 66.134 13.708 65.0607 13.892 64.202C14.076 63.3127 14.2447 62.5307 14.398 61.856C14.582 61.1507 14.7967 60.4453 15.042 59.74L20.102 46.446H25.806L30.774 59.74C31.142 60.66 31.4333 61.5493 31.648 62.408C31.8933 63.236 32.0927 64.0487 32.246 64.846C32.3993 65.6127 32.5527 66.3947 32.706 67.192L31.694 67.376C31.786 66.732 31.8473 66.18 31.878 65.72C31.9393 65.2293 31.9853 64.7847 32.016 64.386C32.0773 63.9873 32.1387 63.5887 32.2 63.19C32.2613 62.7607 32.3533 62.27 32.476 61.718C32.5987 61.1353 32.7827 60.4607 33.028 59.694L38.226 41.8H45.218L35.328 74H30.222L22.264 54.956L23 55.048L15.594 74H10.304ZM48.0765 74V39.96H54.5165V54.634L53.2285 55.186C53.5658 54.082 54.1638 53.0853 55.0225 52.196C55.9118 51.276 56.9698 50.54 58.1965 49.988C59.4231 49.436 60.7111 49.16 62.0605 49.16C63.9005 49.16 65.4338 49.528 66.6605 50.264C67.9178 51 68.8531 52.1193 69.4665 53.622C70.1105 55.094 70.4325 56.9187 70.4325 59.096V74H63.9005V59.602C63.9005 58.498 63.7471 57.578 63.4405 56.842C63.1338 56.106 62.6585 55.5693 62.0145 55.232C61.4011 54.864 60.6345 54.7107 59.7145 54.772C58.9785 54.772 58.2885 54.8947 57.6445 55.14C57.0311 55.3547 56.4945 55.6767 56.0345 56.106C55.6051 56.5353 55.2525 57.026 54.9765 57.578C54.7311 58.13 54.6085 58.728 54.6085 59.372V74H51.3885C50.6831 74 50.0545 74 49.5025 74C48.9505 74 48.4751 74 48.0765 74ZM84.8797 74.46C82.8557 74.46 81.031 73.908 79.4057 72.804C77.7804 71.7 76.4924 70.1973 75.5417 68.296C74.591 66.3947 74.1157 64.2173 74.1157 61.764C74.1157 59.3107 74.591 57.1487 75.5417 55.278C76.523 53.3767 77.8417 51.8893 79.4977 50.816C81.1537 49.712 83.0397 49.16 85.1557 49.16C86.3517 49.16 87.4404 49.344 88.4217 49.712C89.4337 50.0493 90.3077 50.5247 91.0437 51.138C91.8104 51.7513 92.4544 52.4567 92.9757 53.254C93.497 54.0513 93.865 54.91 94.0797 55.83L92.6997 55.6V49.666H99.1857V74H92.6077V68.158L94.0797 68.02C93.8344 68.8787 93.4357 69.6913 92.8837 70.458C92.3317 71.2247 91.6417 71.9147 90.8137 72.528C90.0164 73.1107 89.1117 73.586 88.0997 73.954C87.0877 74.2913 86.0144 74.46 84.8797 74.46ZM86.6737 68.802C87.9004 68.802 88.9737 68.5107 89.8937 67.928C90.8137 67.3453 91.519 66.5327 92.0097 65.49C92.531 64.4167 92.7917 63.1747 92.7917 61.764C92.7917 60.384 92.531 59.1727 92.0097 58.13C91.519 57.0873 90.8137 56.2747 89.8937 55.692C88.9737 55.0787 87.9004 54.772 86.6737 54.772C85.4777 54.772 84.4197 55.0787 83.4997 55.692C82.6104 56.2747 81.905 57.0873 81.3837 58.13C80.8624 59.1727 80.6017 60.384 80.6017 61.764C80.6017 63.1747 80.8624 64.4167 81.3837 65.49C81.905 66.5327 82.6104 67.3453 83.4997 67.928C84.4197 68.5107 85.4777 68.802 86.6737 68.802ZM107.161 74V43.502H113.693V74H107.161ZM102.607 55.508V49.666H118.661V55.508H102.607ZM135.138 74V49.666H141.44L141.578 54.312L140.612 54.496C140.949 53.6987 141.394 52.978 141.946 52.334C142.498 51.69 143.142 51.138 143.878 50.678C144.644 50.218 145.442 49.8653 146.27 49.62C147.098 49.344 147.926 49.206 148.754 49.206C150.011 49.206 151.146 49.4053 152.158 49.804C153.17 50.2027 154.028 50.8313 154.734 51.69C155.439 52.518 155.991 53.622 156.39 55.002L155.378 54.91L155.7 54.174C156.098 53.438 156.604 52.7787 157.218 52.196C157.831 51.5827 158.521 51.0613 159.288 50.632C160.054 50.172 160.852 49.8193 161.68 49.574C162.508 49.3287 163.32 49.206 164.118 49.206C166.019 49.206 167.598 49.5893 168.856 50.356C170.113 51.092 171.048 52.2113 171.662 53.714C172.306 55.2167 172.628 57.0567 172.628 59.234V74H166.096V59.694C166.096 58.59 165.942 57.6853 165.636 56.98C165.329 56.2747 164.884 55.7533 164.302 55.416C163.719 55.048 162.968 54.864 162.048 54.864C161.342 54.864 160.683 54.9867 160.07 55.232C159.487 55.4467 158.966 55.7687 158.506 56.198C158.076 56.5967 157.739 57.072 157.494 57.624C157.248 58.176 157.126 58.7893 157.126 59.464V74H150.594V59.648C150.594 58.636 150.425 57.7773 150.088 57.072C149.781 56.336 149.336 55.784 148.754 55.416C148.171 55.048 147.45 54.864 146.592 54.864C145.886 54.864 145.227 54.9867 144.614 55.232C144.031 55.4467 143.525 55.7687 143.096 56.198C142.666 56.5967 142.314 57.072 142.038 57.624C141.792 58.176 141.67 58.774 141.67 59.418V74H135.138ZM187.036 74.46C185.012 74.46 183.187 73.908 181.562 72.804C179.936 71.7 178.648 70.1973 177.698 68.296C176.747 66.3947 176.272 64.2173 176.272 61.764C176.272 59.3107 176.747 57.1487 177.698 55.278C178.679 53.3767 179.998 51.8893 181.654 50.816C183.31 49.712 185.196 49.16 187.312 49.16C188.508 49.16 189.596 49.344 190.578 49.712C191.59 50.0493 192.464 50.5247 193.2 51.138C193.966 51.7513 194.61 52.4567 195.132 53.254C195.653 54.0513 196.021 54.91 196.236 55.83L194.856 55.6V49.666H201.342V74H194.764V68.158L196.236 68.02C195.99 68.8787 195.592 69.6913 195.04 70.458C194.488 71.2247 193.798 71.9147 192.97 72.528C192.172 73.1107 191.268 73.586 190.256 73.954C189.244 74.2913 188.17 74.46 187.036 74.46ZM188.83 68.802C190.056 68.802 191.13 68.5107 192.05 67.928C192.97 67.3453 193.675 66.5327 194.166 65.49C194.687 64.4167 194.948 63.1747 194.948 61.764C194.948 60.384 194.687 59.1727 194.166 58.13C193.675 57.0873 192.97 56.2747 192.05 55.692C191.13 55.0787 190.056 54.772 188.83 54.772C187.634 54.772 186.576 55.0787 185.656 55.692C184.766 56.2747 184.061 57.0873 183.54 58.13C183.018 59.1727 182.758 60.384 182.758 61.764C182.758 63.1747 183.018 64.4167 183.54 65.49C184.061 66.5327 184.766 67.3453 185.656 67.928C186.576 68.5107 187.634 68.802 188.83 68.802ZM213.181 66.686L211.249 61.304L222.749 49.666H231.351L213.181 66.686ZM206.971 74V39.96H213.503V74H206.971ZM223.439 74L214.699 63.006L219.299 59.326L231.305 74H223.439ZM244.505 74.46C241.867 74.46 239.567 73.9233 237.605 72.85C235.642 71.7767 234.109 70.3047 233.005 68.434C231.901 66.5633 231.349 64.4167 231.349 61.994C231.349 60.1233 231.655 58.406 232.269 56.842C232.882 55.278 233.741 53.9287 234.845 52.794C235.949 51.6287 237.252 50.7393 238.755 50.126C240.288 49.482 241.944 49.16 243.723 49.16C245.379 49.16 246.912 49.4667 248.323 50.08C249.733 50.6627 250.945 51.506 251.957 52.61C252.999 53.6833 253.797 54.956 254.349 56.428C254.901 57.9 255.146 59.51 255.085 61.258L255.039 63.282H235.489L234.431 59.28H249.657L248.921 60.108V59.096C248.859 58.268 248.583 57.5167 248.093 56.842C247.633 56.1673 247.035 55.646 246.299 55.278C245.563 54.91 244.735 54.726 243.815 54.726C242.465 54.726 241.315 54.9867 240.365 55.508C239.445 56.0293 238.739 56.796 238.249 57.808C237.758 58.82 237.513 60.0467 237.513 61.488C237.513 62.96 237.819 64.2327 238.433 65.306C239.077 66.3793 239.966 67.2227 241.101 67.836C242.266 68.4187 243.631 68.71 245.195 68.71C246.268 68.71 247.249 68.5413 248.139 68.204C249.028 67.8667 249.979 67.284 250.991 66.456L254.119 70.826C253.229 71.6233 252.248 72.298 251.175 72.85C250.101 73.3713 248.997 73.77 247.863 74.046C246.728 74.322 245.609 74.46 244.505 74.46ZM267.18 74.46C264.911 74.46 262.887 74.092 261.108 73.356C259.36 72.5893 257.949 71.5467 256.876 70.228L260.924 66.732C261.875 67.744 262.933 68.48 264.098 68.94C265.263 69.3693 266.429 69.584 267.594 69.584C268.054 69.584 268.468 69.538 268.836 69.446C269.235 69.3233 269.572 69.17 269.848 68.986C270.124 68.7713 270.323 68.526 270.446 68.25C270.599 67.9433 270.676 67.6213 270.676 67.284C270.676 66.6093 270.4 66.0727 269.848 65.674C269.541 65.5207 269.066 65.3367 268.422 65.122C267.778 64.8767 266.95 64.616 265.938 64.34C264.374 63.9413 263.04 63.4813 261.936 62.96C260.863 62.408 260.004 61.7947 259.36 61.12C258.808 60.476 258.379 59.786 258.072 59.05C257.796 58.2833 257.658 57.44 257.658 56.52C257.658 55.416 257.903 54.4193 258.394 53.53C258.885 52.61 259.559 51.828 260.418 51.184C261.307 50.54 262.319 50.0493 263.454 49.712C264.589 49.344 265.785 49.16 267.042 49.16C268.299 49.16 269.526 49.3133 270.722 49.62C271.918 49.9267 273.022 50.3713 274.034 50.954C275.077 51.506 275.981 52.1653 276.748 52.932L273.252 56.796C272.7 56.2747 272.071 55.7993 271.366 55.37C270.691 54.9407 269.986 54.6033 269.25 54.358C268.514 54.1127 267.855 53.99 267.272 53.99C266.751 53.99 266.275 54.036 265.846 54.128C265.447 54.22 265.11 54.358 264.834 54.542C264.558 54.726 264.343 54.9713 264.19 55.278C264.067 55.554 264.006 55.8607 264.006 56.198C264.006 56.5353 264.083 56.8573 264.236 57.164C264.42 57.4707 264.665 57.7313 264.972 57.946C265.309 58.13 265.8 58.3447 266.444 58.59C267.119 58.8353 268.023 59.1113 269.158 59.418C270.63 59.8167 271.872 60.2613 272.884 60.752C273.927 61.2427 274.755 61.81 275.368 62.454C275.889 63.006 276.273 63.6347 276.518 64.34C276.763 65.0453 276.886 65.8273 276.886 66.686C276.886 68.1887 276.457 69.538 275.598 70.734C274.77 71.8993 273.62 72.8193 272.148 73.494C270.676 74.138 269.02 74.46 267.18 74.46ZM305.124 74.46C302.64 74.46 300.417 73.9233 298.454 72.85C296.522 71.746 294.989 70.2433 293.854 68.342C292.75 66.4407 292.198 64.2633 292.198 61.81C292.198 59.3567 292.75 57.1947 293.854 55.324C294.989 53.4227 296.522 51.92 298.454 50.816C300.417 49.712 302.64 49.16 305.124 49.16C307.577 49.16 309.77 49.712 311.702 50.816C313.665 51.92 315.198 53.4227 316.302 55.324C317.406 57.1947 317.958 59.3567 317.958 61.81C317.958 64.2633 317.406 66.4407 316.302 68.342C315.198 70.2433 313.665 71.746 311.702 72.85C309.77 73.9233 307.577 74.46 305.124 74.46ZM305.124 68.756C306.32 68.756 307.393 68.4647 308.344 67.882C309.295 67.2687 310.031 66.4407 310.552 65.398C311.104 64.3247 311.38 63.1287 311.38 61.81C311.38 60.4607 311.104 59.2647 310.552 58.222C310.031 57.1487 309.295 56.3207 308.344 55.738C307.393 55.1247 306.32 54.818 305.124 54.818C303.897 54.818 302.809 55.1247 301.858 55.738C300.907 56.3513 300.156 57.1793 299.604 58.222C299.052 59.2647 298.791 60.4607 298.822 61.81C298.791 63.1287 299.052 64.3247 299.604 65.398C300.156 66.4407 300.907 67.2687 301.858 67.882C302.809 68.4647 303.897 68.756 305.124 68.756ZM330.325 74.46C328.546 74.46 327.013 74.0767 325.725 73.31C324.467 72.5127 323.486 71.3933 322.781 69.952C322.106 68.48 321.769 66.7167 321.769 64.662V49.666H328.301V63.604C328.301 64.708 328.485 65.674 328.853 66.502C329.221 67.2993 329.742 67.9127 330.417 68.342C331.091 68.7713 331.919 68.986 332.901 68.986C333.606 68.986 334.265 68.8787 334.879 68.664C335.492 68.4187 336.013 68.0813 336.443 67.652C336.872 67.2227 337.209 66.7167 337.455 66.134C337.7 65.5513 337.823 64.9227 337.823 64.248V49.666H344.355V74H338.145L337.915 68.986L339.111 68.434C338.743 69.5687 338.129 70.596 337.271 71.516C336.412 72.436 335.385 73.1567 334.189 73.678C332.993 74.1993 331.705 74.46 330.325 74.46ZM350.007 74V49.666H356.309L356.539 57.486L355.435 55.876C355.803 54.6187 356.401 53.484 357.229 52.472C358.057 51.4293 359.023 50.6167 360.127 50.034C361.262 49.4513 362.443 49.16 363.669 49.16C364.191 49.16 364.697 49.206 365.187 49.298C365.678 49.39 366.092 49.4973 366.429 49.62L364.681 56.796C364.313 56.612 363.869 56.4587 363.347 56.336C362.826 56.1827 362.289 56.106 361.737 56.106C361.001 56.106 360.311 56.244 359.667 56.52C359.054 56.7653 358.517 57.1333 358.057 57.624C357.597 58.084 357.229 58.636 356.953 59.28C356.708 59.924 356.585 60.6293 356.585 61.396V74H350.007ZM390.631 74.46C388.361 74.46 386.337 74.092 384.559 73.356C382.811 72.5893 381.4 71.5467 380.327 70.228L384.375 66.732C385.325 67.744 386.383 68.48 387.549 68.94C388.714 69.3693 389.879 69.584 391.045 69.584C391.505 69.584 391.919 69.538 392.287 69.446C392.685 69.3233 393.023 69.17 393.299 68.986C393.575 68.7713 393.774 68.526 393.897 68.25C394.05 67.9433 394.127 67.6213 394.127 67.284C394.127 66.6093 393.851 66.0727 393.299 65.674C392.992 65.5207 392.517 65.3367 391.873 65.122C391.229 64.8767 390.401 64.616 389.389 64.34C387.825 63.9413 386.491 63.4813 385.387 62.96C384.313 62.408 383.455 61.7947 382.811 61.12C382.259 60.476 381.829 59.786 381.523 59.05C381.247 58.2833 381.109 57.44 381.109 56.52C381.109 55.416 381.354 54.4193 381.845 53.53C382.335 52.61 383.01 51.828 383.869 51.184C384.758 50.54 385.77 50.0493 386.905 49.712C388.039 49.344 389.235 49.16 390.493 49.16C391.75 49.16 392.977 49.3133 394.173 49.62C395.369 49.9267 396.473 50.3713 397.485 50.954C398.527 51.506 399.432 52.1653 400.199 52.932L396.703 56.796C396.151 56.2747 395.522 55.7993 394.817 55.37C394.142 54.9407 393.437 54.6033 392.701 54.358C391.965 54.1127 391.305 53.99 390.723 53.99C390.201 53.99 389.726 54.036 389.297 54.128C388.898 54.22 388.561 54.358 388.285 54.542C388.009 54.726 387.794 54.9713 387.641 55.278C387.518 55.554 387.457 55.8607 387.457 56.198C387.457 56.5353 387.533 56.8573 387.687 57.164C387.871 57.4707 388.116 57.7313 388.423 57.946C388.76 58.13 389.251 58.3447 389.895 58.59C390.569 58.8353 391.474 59.1113 392.609 59.418C394.081 59.8167 395.323 60.2613 396.335 60.752C397.377 61.2427 398.205 61.81 398.819 62.454C399.34 63.006 399.723 63.6347 399.969 64.34C400.214 65.0453 400.337 65.8273 400.337 66.686C400.337 68.1887 399.907 69.538 399.049 70.734C398.221 71.8993 397.071 72.8193 395.599 73.494C394.127 74.138 392.471 74.46 390.631 74.46ZM415.619 74.46C412.982 74.46 410.682 73.9233 408.719 72.85C406.757 71.7767 405.223 70.3047 404.119 68.434C403.015 66.5633 402.463 64.4167 402.463 61.994C402.463 60.1233 402.77 58.406 403.383 56.842C403.997 55.278 404.855 53.9287 405.959 52.794C407.063 51.6287 408.367 50.7393 409.869 50.126C411.403 49.482 413.059 49.16 414.837 49.16C416.493 49.16 418.027 49.4667 419.437 50.08C420.848 50.6627 422.059 51.506 423.071 52.61C424.114 53.6833 424.911 54.956 425.463 56.428C426.015 57.9 426.261 59.51 426.199 61.258L426.153 63.282H406.603L405.545 59.28H420.771L420.035 60.108V59.096C419.974 58.268 419.698 57.5167 419.207 56.842C418.747 56.1673 418.149 55.646 417.413 55.278C416.677 54.91 415.849 54.726 414.929 54.726C413.58 54.726 412.43 54.9867 411.479 55.508C410.559 56.0293 409.854 56.796 409.363 57.808C408.873 58.82 408.627 60.0467 408.627 61.488C408.627 62.96 408.934 64.2327 409.547 65.306C410.191 66.3793 411.081 67.2227 412.215 67.836C413.381 68.4187 414.745 68.71 416.309 68.71C417.383 68.71 418.364 68.5413 419.253 68.204C420.143 67.8667 421.093 67.284 422.105 66.456L425.233 70.826C424.344 71.6233 423.363 72.298 422.289 72.85C421.216 73.3713 420.112 73.77 418.977 74.046C417.843 74.322 416.723 74.46 415.619 74.46ZM430.106 74V49.666H436.408L436.638 57.486L435.534 55.876C435.902 54.6187 436.5 53.484 437.328 52.472C438.156 51.4293 439.122 50.6167 440.226 50.034C441.361 49.4513 442.542 49.16 443.768 49.16C444.29 49.16 444.796 49.206 445.286 49.298C445.777 49.39 446.191 49.4973 446.528 49.62L444.78 56.796C444.412 56.612 443.968 56.4587 443.446 56.336C442.925 56.1827 442.388 56.106 441.836 56.106C441.1 56.106 440.41 56.244 439.766 56.52C439.153 56.7653 438.616 57.1333 438.156 57.624C437.696 58.084 437.328 58.636 437.052 59.28C436.807 59.924 436.684 60.6293 436.684 61.396V74H430.106ZM459.283 74L449.071 49.666H456.247L462.733 67.836L461.215 68.112L468.023 49.666H475.015L464.297 74H459.283ZM478.637 74V49.666H485.169V74H478.637ZM481.857 44.652C480.599 44.652 479.618 44.3453 478.913 43.732C478.207 43.1187 477.855 42.2447 477.855 41.11C477.855 40.0673 478.207 39.224 478.913 38.58C479.649 37.9053 480.63 37.568 481.857 37.568C483.114 37.568 484.095 37.89 484.801 38.534C485.506 39.1473 485.859 40.006 485.859 41.11C485.859 42.1833 485.491 43.042 484.755 43.686C484.049 44.33 483.083 44.652 481.857 44.652ZM501.805 74.46C499.475 74.46 497.389 73.908 495.549 72.804C493.709 71.7 492.253 70.1973 491.179 68.296C490.137 66.3947 489.615 64.2327 489.615 61.81C489.615 59.418 490.137 57.2713 491.179 55.37C492.253 53.438 493.709 51.92 495.549 50.816C497.389 49.712 499.475 49.16 501.805 49.16C503.983 49.16 505.976 49.5587 507.785 50.356C509.595 51.1533 511.005 52.2573 512.017 53.668L508.429 57.992C508 57.4093 507.463 56.888 506.819 56.428C506.175 55.9373 505.47 55.554 504.703 55.278C503.967 55.002 503.201 54.864 502.403 54.864C501.146 54.864 500.027 55.1707 499.045 55.784C498.095 56.3667 497.343 57.1793 496.791 58.222C496.239 59.2647 495.963 60.4607 495.963 61.81C495.963 63.1287 496.239 64.3093 496.791 65.352C497.374 66.364 498.156 67.192 499.137 67.836C500.119 68.4493 501.223 68.756 502.449 68.756C503.247 68.756 503.998 68.6487 504.703 68.434C505.409 68.1887 506.068 67.836 506.681 67.376C507.325 66.916 507.908 66.364 508.429 65.72L511.971 70.044C510.929 71.3627 509.487 72.436 507.647 73.264C505.807 74.0613 503.86 74.46 501.805 74.46ZM526.783 74.46C524.146 74.46 521.846 73.9233 519.883 72.85C517.92 71.7767 516.387 70.3047 515.283 68.434C514.179 66.5633 513.627 64.4167 513.627 61.994C513.627 60.1233 513.934 58.406 514.547 56.842C515.16 55.278 516.019 53.9287 517.123 52.794C518.227 51.6287 519.53 50.7393 521.033 50.126C522.566 49.482 524.222 49.16 526.001 49.16C527.657 49.16 529.19 49.4667 530.601 50.08C532.012 50.6627 533.223 51.506 534.235 52.61C535.278 53.6833 536.075 54.956 536.627 56.428C537.179 57.9 537.424 59.51 537.363 61.258L537.317 63.282H517.767L516.709 59.28H531.935L531.199 60.108V59.096C531.138 58.268 530.862 57.5167 530.371 56.842C529.911 56.1673 529.313 55.646 528.577 55.278C527.841 54.91 527.013 54.726 526.093 54.726C524.744 54.726 523.594 54.9867 522.643 55.508C521.723 56.0293 521.018 56.796 520.527 57.808C520.036 58.82 519.791 60.0467 519.791 61.488C519.791 62.96 520.098 64.2327 520.711 65.306C521.355 66.3793 522.244 67.2227 523.379 67.836C524.544 68.4187 525.909 68.71 527.473 68.71C528.546 68.71 529.528 68.5413 530.417 68.204C531.306 67.8667 532.257 67.284 533.269 66.456L536.397 70.826C535.508 71.6233 534.526 72.298 533.453 72.85C532.38 73.3713 531.276 73.77 530.141 74.046C529.006 74.322 527.887 74.46 526.783 74.46ZM5.612 132V101.502H12.144V132H5.612ZM1.058 113.508V107.666H17.112V113.508H1.058ZM20.4495 132V97.96H26.8895V112.634L25.6015 113.186C25.9388 112.082 26.5368 111.085 27.3955 110.196C28.2848 109.276 29.3428 108.54 30.5695 107.988C31.7962 107.436 33.0842 107.16 34.4335 107.16C36.2735 107.16 37.8069 107.528 39.0335 108.264C40.2909 109 41.2262 110.119 41.8395 111.622C42.4835 113.094 42.8055 114.919 42.8055 117.096V132H36.2735V117.602C36.2735 116.498 36.1202 115.578 35.8135 114.842C35.5068 114.106 35.0315 113.569 34.3875 113.232C33.7742 112.864 33.0075 112.711 32.0875 112.772C31.3515 112.772 30.6615 112.895 30.0175 113.14C29.4042 113.355 28.8675 113.677 28.4075 114.106C27.9782 114.535 27.6255 115.026 27.3495 115.578C27.1042 116.13 26.9815 116.728 26.9815 117.372V132H23.7615C23.0562 132 22.4275 132 21.8755 132C21.3235 132 20.8482 132 20.4495 132ZM59.6908 132.46C57.0534 132.46 54.7534 131.923 52.7908 130.85C50.8281 129.777 49.2948 128.305 48.1908 126.434C47.0867 124.563 46.5347 122.417 46.5347 119.994C46.5347 118.123 46.8414 116.406 47.4547 114.842C48.0681 113.278 48.9268 111.929 50.0308 110.794C51.1347 109.629 52.4381 108.739 53.9408 108.126C55.4741 107.482 57.1301 107.16 58.9088 107.16C60.5648 107.16 62.0981 107.467 63.5088 108.08C64.9194 108.663 66.1308 109.506 67.1428 110.61C68.1854 111.683 68.9828 112.956 69.5348 114.428C70.0868 115.9 70.3321 117.51 70.2708 119.258L70.2247 121.282H50.6747L49.6168 117.28H64.8428L64.1068 118.108V117.096C64.0454 116.268 63.7694 115.517 63.2788 114.842C62.8188 114.167 62.2208 113.646 61.4848 113.278C60.7488 112.91 59.9208 112.726 59.0008 112.726C57.6514 112.726 56.5014 112.987 55.5508 113.508C54.6308 114.029 53.9254 114.796 53.4348 115.808C52.9441 116.82 52.6987 118.047 52.6987 119.488C52.6987 120.96 53.0054 122.233 53.6188 123.306C54.2628 124.379 55.1521 125.223 56.2868 125.836C57.4521 126.419 58.8168 126.71 60.3808 126.71C61.4541 126.71 62.4354 126.541 63.3248 126.204C64.2141 125.867 65.1648 125.284 66.1768 124.456L69.3048 128.826C68.4154 129.623 67.4341 130.298 66.3608 130.85C65.2874 131.371 64.1834 131.77 63.0488 132.046C61.9141 132.322 60.7948 132.46 59.6908 132.46ZM141.025 132V99.8H155.009C157.156 99.8 158.965 100.122 160.437 100.766C161.94 101.379 163.075 102.284 163.841 103.48C164.608 104.676 164.991 106.102 164.991 107.758C164.991 109.598 164.531 111.131 163.611 112.358C162.691 113.585 161.373 114.428 159.655 114.888L159.609 113.968C161.02 114.305 162.262 114.857 163.335 115.624C164.409 116.391 165.237 117.341 165.819 118.476C166.402 119.611 166.693 120.899 166.693 122.34C166.693 123.935 166.433 125.345 165.911 126.572C165.39 127.768 164.623 128.765 163.611 129.562C162.599 130.359 161.403 130.973 160.023 131.402C158.674 131.801 157.156 132 155.469 132H141.025ZM147.649 126.02H155.193C156.175 126.02 157.003 125.882 157.677 125.606C158.383 125.299 158.919 124.839 159.287 124.226C159.655 123.613 159.839 122.892 159.839 122.064C159.839 121.267 159.64 120.592 159.241 120.04C158.843 119.488 158.275 119.074 157.539 118.798C156.834 118.491 155.975 118.338 154.963 118.338H147.649V126.02ZM147.649 112.864H154.181C155.009 112.864 155.73 112.711 156.343 112.404C156.957 112.097 157.417 111.683 157.723 111.162C158.061 110.641 158.229 110.027 158.229 109.322C158.229 108.187 157.861 107.313 157.125 106.7C156.389 106.087 155.285 105.78 153.813 105.78H147.649V112.864ZM182.626 132.46C179.988 132.46 177.688 131.923 175.726 130.85C173.763 129.777 172.23 128.305 171.126 126.434C170.022 124.563 169.47 122.417 169.47 119.994C169.47 118.123 169.776 116.406 170.39 114.842C171.003 113.278 171.862 111.929 172.966 110.794C174.07 109.629 175.373 108.739 176.876 108.126C178.409 107.482 180.065 107.16 181.844 107.16C183.5 107.16 185.033 107.467 186.444 108.08C187.854 108.663 189.066 109.506 190.078 110.61C191.12 111.683 191.918 112.956 192.47 114.428C193.022 115.9 193.267 117.51 193.206 119.258L193.16 121.282H173.61L172.552 117.28H187.778L187.042 118.108V117.096C186.98 116.268 186.704 115.517 186.214 114.842C185.754 114.167 185.156 113.646 184.42 113.278C183.684 112.91 182.856 112.726 181.936 112.726C180.586 112.726 179.436 112.987 178.486 113.508C177.566 114.029 176.86 114.796 176.37 115.808C175.879 116.82 175.634 118.047 175.634 119.488C175.634 120.96 175.94 122.233 176.554 123.306C177.198 124.379 178.087 125.223 179.222 125.836C180.387 126.419 181.752 126.71 183.316 126.71C184.389 126.71 185.37 126.541 186.26 126.204C187.149 125.867 188.1 125.284 189.112 124.456L192.24 128.826C191.35 129.623 190.369 130.298 189.296 130.85C188.222 131.371 187.118 131.77 185.984 132.046C184.849 132.322 183.73 132.46 182.626 132.46ZM205.301 132.46C203.032 132.46 201.008 132.092 199.229 131.356C197.481 130.589 196.07 129.547 194.997 128.228L199.045 124.732C199.996 125.744 201.054 126.48 202.219 126.94C203.384 127.369 204.55 127.584 205.715 127.584C206.175 127.584 206.589 127.538 206.957 127.446C207.356 127.323 207.693 127.17 207.969 126.986C208.245 126.771 208.444 126.526 208.567 126.25C208.72 125.943 208.797 125.621 208.797 125.284C208.797 124.609 208.521 124.073 207.969 123.674C207.662 123.521 207.187 123.337 206.543 123.122C205.899 122.877 205.071 122.616 204.059 122.34C202.495 121.941 201.161 121.481 200.057 120.96C198.984 120.408 198.125 119.795 197.481 119.12C196.929 118.476 196.5 117.786 196.193 117.05C195.917 116.283 195.779 115.44 195.779 114.52C195.779 113.416 196.024 112.419 196.515 111.53C197.006 110.61 197.68 109.828 198.539 109.184C199.428 108.54 200.44 108.049 201.575 107.712C202.71 107.344 203.906 107.16 205.163 107.16C206.42 107.16 207.647 107.313 208.843 107.62C210.039 107.927 211.143 108.371 212.155 108.954C213.198 109.506 214.102 110.165 214.869 110.932L211.373 114.796C210.821 114.275 210.192 113.799 209.487 113.37C208.812 112.941 208.107 112.603 207.371 112.358C206.635 112.113 205.976 111.99 205.393 111.99C204.872 111.99 204.396 112.036 203.967 112.128C203.568 112.22 203.231 112.358 202.955 112.542C202.679 112.726 202.464 112.971 202.311 113.278C202.188 113.554 202.127 113.861 202.127 114.198C202.127 114.535 202.204 114.857 202.357 115.164C202.541 115.471 202.786 115.731 203.093 115.946C203.43 116.13 203.921 116.345 204.565 116.59C205.24 116.835 206.144 117.111 207.279 117.418C208.751 117.817 209.993 118.261 211.005 118.752C212.048 119.243 212.876 119.81 213.489 120.454C214.01 121.006 214.394 121.635 214.639 122.34C214.884 123.045 215.007 123.827 215.007 124.686C215.007 126.189 214.578 127.538 213.719 128.734C212.891 129.899 211.741 130.819 210.269 131.494C208.797 132.138 207.141 132.46 205.301 132.46ZM221.09 132V101.502H227.622V132H221.09ZM216.536 113.508V107.666H232.59V113.508H216.536ZM260.429 132.46C257.945 132.46 255.721 131.923 253.759 130.85C251.827 129.746 250.293 128.243 249.159 126.342C248.055 124.441 247.503 122.263 247.503 119.81C247.503 117.357 248.055 115.195 249.159 113.324C250.293 111.423 251.827 109.92 253.759 108.816C255.721 107.712 257.945 107.16 260.429 107.16C262.882 107.16 265.075 107.712 267.007 108.816C268.969 109.92 270.503 111.423 271.607 113.324C272.711 115.195 273.263 117.357 273.263 119.81C273.263 122.263 272.711 124.441 271.607 126.342C270.503 128.243 268.969 129.746 267.007 130.85C265.075 131.923 262.882 132.46 260.429 132.46ZM260.429 126.756C261.625 126.756 262.698 126.465 263.649 125.882C264.599 125.269 265.335 124.441 265.857 123.398C266.409 122.325 266.685 121.129 266.685 119.81C266.685 118.461 266.409 117.265 265.857 116.222C265.335 115.149 264.599 114.321 263.649 113.738C262.698 113.125 261.625 112.818 260.429 112.818C259.202 112.818 258.113 113.125 257.163 113.738C256.212 114.351 255.461 115.179 254.909 116.222C254.357 117.265 254.096 118.461 254.127 119.81C254.096 121.129 254.357 122.325 254.909 123.398C255.461 124.441 256.212 125.269 257.163 125.882C258.113 126.465 259.202 126.756 260.429 126.756ZM277.257 132V107.666H283.513L283.697 112.634L282.409 113.186C282.746 112.082 283.344 111.085 284.203 110.196C285.092 109.276 286.15 108.54 287.377 107.988C288.604 107.436 289.892 107.16 291.241 107.16C293.081 107.16 294.614 107.528 295.841 108.264C297.098 109 298.034 110.119 298.647 111.622C299.291 113.094 299.613 114.919 299.613 117.096V132H293.081V117.602C293.081 116.498 292.928 115.578 292.621 114.842C292.314 114.106 291.839 113.569 291.195 113.232C290.582 112.864 289.815 112.711 288.895 112.772C288.159 112.772 287.469 112.895 286.825 113.14C286.212 113.355 285.675 113.677 285.215 114.106C284.786 114.535 284.433 115.026 284.157 115.578C283.912 116.13 283.789 116.728 283.789 117.372V132H280.569C279.864 132 279.235 132 278.683 132C278.131 132 277.656 132 277.257 132ZM320.484 132V101.502H327.016V132H320.484ZM315.93 113.508V107.666H331.984V113.508H315.93ZM335.321 132V97.96H341.761V112.634L340.473 113.186C340.811 112.082 341.409 111.085 342.267 110.196C343.157 109.276 344.215 108.54 345.441 107.988C346.668 107.436 347.956 107.16 349.305 107.16C351.145 107.16 352.679 107.528 353.905 108.264C355.163 109 356.098 110.119 356.711 111.622C357.355 113.094 357.677 114.919 357.677 117.096V132H351.145V117.602C351.145 116.498 350.992 115.578 350.685 114.842C350.379 114.106 349.903 113.569 349.259 113.232C348.646 112.864 347.879 112.711 346.959 112.772C346.223 112.772 345.533 112.895 344.889 113.14C344.276 113.355 343.739 113.677 343.279 114.106C342.85 114.535 342.497 115.026 342.221 115.578C341.976 116.13 341.853 116.728 341.853 117.372V132H338.633C337.928 132 337.299 132 336.747 132C336.195 132 335.72 132 335.321 132ZM374.563 132.46C371.925 132.46 369.625 131.923 367.663 130.85C365.7 129.777 364.167 128.305 363.063 126.434C361.959 124.563 361.407 122.417 361.407 119.994C361.407 118.123 361.713 116.406 362.327 114.842C362.94 113.278 363.799 111.929 364.903 110.794C366.007 109.629 367.31 108.739 368.813 108.126C370.346 107.482 372.002 107.16 373.781 107.16C375.437 107.16 376.97 107.467 378.381 108.08C379.791 108.663 381.003 109.506 382.015 110.61C383.057 111.683 383.855 112.956 384.407 114.428C384.959 115.9 385.204 117.51 385.143 119.258L385.097 121.282H365.547L364.489 117.28H379.715L378.979 118.108V117.096C378.917 116.268 378.641 115.517 378.151 114.842C377.691 114.167 377.093 113.646 376.357 113.278C375.621 112.91 374.793 112.726 373.873 112.726C372.523 112.726 371.373 112.987 370.423 113.508C369.503 114.029 368.797 114.796 368.307 115.808C367.816 116.82 367.571 118.047 367.571 119.488C367.571 120.96 367.877 122.233 368.491 123.306C369.135 124.379 370.024 125.223 371.159 125.836C372.324 126.419 373.689 126.71 375.253 126.71C376.326 126.71 377.307 126.541 378.197 126.204C379.086 125.867 380.037 125.284 381.049 124.456L384.177 128.826C383.287 129.623 382.306 130.298 381.233 130.85C380.159 131.371 379.055 131.77 377.921 132.046C376.786 132.322 375.667 132.46 374.563 132.46ZM402.787 132V107.666H409.319V132H402.787ZM406.007 102.652C404.75 102.652 403.768 102.345 403.063 101.732C402.358 101.119 402.005 100.245 402.005 99.11C402.005 98.0673 402.358 97.224 403.063 96.58C403.799 95.9053 404.78 95.568 406.007 95.568C407.264 95.568 408.246 95.89 408.951 96.534C409.656 97.1473 410.009 98.006 410.009 99.11C410.009 100.183 409.641 101.042 408.905 101.686C408.2 102.33 407.234 102.652 406.007 102.652ZM415.376 132V107.666H421.632L421.816 112.634L420.528 113.186C420.865 112.082 421.463 111.085 422.322 110.196C423.211 109.276 424.269 108.54 425.496 107.988C426.722 107.436 428.01 107.16 429.36 107.16C431.2 107.16 432.733 107.528 433.96 108.264C435.217 109 436.152 110.119 436.766 111.622C437.41 113.094 437.732 114.919 437.732 117.096V132H431.2V117.602C431.2 116.498 431.046 115.578 430.74 114.842C430.433 114.106 429.958 113.569 429.314 113.232C428.7 112.864 427.934 112.711 427.014 112.772C426.278 112.772 425.588 112.895 424.944 113.14C424.33 113.355 423.794 113.677 423.334 114.106C422.904 114.535 422.552 115.026 422.276 115.578C422.03 116.13 421.908 116.728 421.908 117.372V132H418.688C417.982 132 417.354 132 416.802 132C416.25 132 415.774 132 415.376 132ZM445.417 132V101.502H451.949V132H445.417ZM440.863 113.508V107.666H456.917V113.508H440.863ZM471.576 132.46C468.938 132.46 466.638 131.923 464.676 130.85C462.713 129.777 461.18 128.305 460.076 126.434C458.972 124.563 458.42 122.417 458.42 119.994C458.42 118.123 458.726 116.406 459.34 114.842C459.953 113.278 460.812 111.929 461.916 110.794C463.02 109.629 464.323 108.739 465.826 108.126C467.359 107.482 469.015 107.16 470.794 107.16C472.45 107.16 473.983 107.467 475.394 108.08C476.804 108.663 478.016 109.506 479.028 110.61C480.07 111.683 480.868 112.956 481.42 114.428C481.972 115.9 482.217 117.51 482.156 119.258L482.11 121.282H462.56L461.502 117.28H476.728L475.992 118.108V117.096C475.93 116.268 475.654 115.517 475.164 114.842C474.704 114.167 474.106 113.646 473.37 113.278C472.634 112.91 471.806 112.726 470.886 112.726C469.536 112.726 468.386 112.987 467.436 113.508C466.516 114.029 465.81 114.796 465.32 115.808C464.829 116.82 464.584 118.047 464.584 119.488C464.584 120.96 464.89 122.233 465.504 123.306C466.148 124.379 467.037 125.223 468.172 125.836C469.337 126.419 470.702 126.71 472.266 126.71C473.339 126.71 474.32 126.541 475.21 126.204C476.099 125.867 477.05 125.284 478.062 124.456L481.19 128.826C480.3 129.623 479.319 130.298 478.246 130.85C477.172 131.371 476.068 131.77 474.934 132.046C473.799 132.322 472.68 132.46 471.576 132.46ZM486.063 132V107.666H492.365L492.595 115.486L491.491 113.876C491.859 112.619 492.457 111.484 493.285 110.472C494.113 109.429 495.079 108.617 496.183 108.034C497.318 107.451 498.498 107.16 499.725 107.16C500.246 107.16 500.752 107.206 501.243 107.298C501.734 107.39 502.148 107.497 502.485 107.62L500.737 114.796C500.369 114.612 499.924 114.459 499.403 114.336C498.882 114.183 498.345 114.106 497.793 114.106C497.057 114.106 496.367 114.244 495.723 114.52C495.11 114.765 494.573 115.133 494.113 115.624C493.653 116.084 493.285 116.636 493.009 117.28C492.764 117.924 492.641 118.629 492.641 119.396V132H486.063ZM505.313 132V107.666H511.569L511.753 112.634L510.465 113.186C510.802 112.082 511.4 111.085 512.259 110.196C513.148 109.276 514.206 108.54 515.433 107.988C516.66 107.436 517.948 107.16 519.297 107.16C521.137 107.16 522.67 107.528 523.897 108.264C525.154 109 526.09 110.119 526.703 111.622C527.347 113.094 527.669 114.919 527.669 117.096V132H521.137V117.602C521.137 116.498 520.984 115.578 520.677 114.842C520.37 114.106 519.895 113.569 519.251 113.232C518.638 112.864 517.871 112.711 516.951 112.772C516.215 112.772 515.525 112.895 514.881 113.14C514.268 113.355 513.731 113.677 513.271 114.106C512.842 114.535 512.489 115.026 512.213 115.578C511.968 116.13 511.845 116.728 511.845 117.372V132H508.625C507.92 132 507.291 132 506.739 132C506.187 132 505.712 132 505.313 132ZM544.554 132.46C541.917 132.46 539.617 131.923 537.654 130.85C535.691 129.777 534.158 128.305 533.054 126.434C531.95 124.563 531.398 122.417 531.398 119.994C531.398 118.123 531.705 116.406 532.318 114.842C532.931 113.278 533.79 111.929 534.894 110.794C535.998 109.629 537.301 108.739 538.804 108.126C540.337 107.482 541.993 107.16 543.772 107.16C545.428 107.16 546.961 107.467 548.372 108.08C549.783 108.663 550.994 109.506 552.006 110.61C553.049 111.683 553.846 112.956 554.398 114.428C554.95 115.9 555.195 117.51 555.134 119.258L555.088 121.282H535.538L534.48 117.28H549.706L548.97 118.108V117.096C548.909 116.268 548.633 115.517 548.142 114.842C547.682 114.167 547.084 113.646 546.348 113.278C545.612 112.91 544.784 112.726 543.864 112.726C542.515 112.726 541.365 112.987 540.414 113.508C539.494 114.029 538.789 114.796 538.298 115.808C537.807 116.82 537.562 118.047 537.562 119.488C537.562 120.96 537.869 122.233 538.482 123.306C539.126 124.379 540.015 125.223 541.15 125.836C542.315 126.419 543.68 126.71 545.244 126.71C546.317 126.71 547.299 126.541 548.188 126.204C549.077 125.867 550.028 125.284 551.04 124.456L554.168 128.826C553.279 129.623 552.297 130.298 551.224 130.85C550.151 131.371 549.047 131.77 547.912 132.046C546.777 132.322 545.658 132.46 544.554 132.46ZM561.387 132V101.502H567.919V132H561.387ZM556.833 113.508V107.666H572.887V113.508H556.833ZM581.929 121.42L580.503 115.21C581.515 114.965 582.435 114.689 583.263 114.382C584.121 114.045 584.888 113.692 585.563 113.324C586.237 112.956 586.805 112.542 587.265 112.082C587.755 111.622 588.123 111.116 588.369 110.564C588.645 109.981 588.783 109.368 588.783 108.724C588.783 108.049 588.599 107.451 588.231 106.93C587.863 106.378 587.372 105.964 586.759 105.688C586.145 105.381 585.425 105.228 584.597 105.228C583.523 105.228 582.45 105.611 581.377 106.378C580.334 107.114 579.383 108.279 578.525 109.874L574.017 105.78C575.397 103.695 577.022 102.085 578.893 100.95C580.794 99.7847 582.772 99.202 584.827 99.202C586.82 99.202 588.614 99.616 590.209 100.444C591.803 101.241 593.061 102.345 593.981 103.756C594.931 105.167 595.407 106.746 595.407 108.494C595.407 109.598 595.177 110.687 594.717 111.76C594.257 112.803 593.613 113.799 592.785 114.75C591.987 115.67 591.037 116.483 589.933 117.188C588.829 117.893 587.617 118.461 586.299 118.89L585.747 121.42H581.929ZM580.273 128.596C580.273 127.461 580.61 126.541 581.285 125.836C581.959 125.1 582.849 124.732 583.953 124.732C585.149 124.732 586.069 125.069 586.713 125.744C587.357 126.419 587.679 127.369 587.679 128.596C587.679 129.761 587.326 130.712 586.621 131.448C585.946 132.153 585.057 132.506 583.953 132.506C582.787 132.506 581.883 132.169 581.239 131.494C580.595 130.819 580.273 129.853 580.273 128.596Z" fill="#1E1E1E"/>
</svg>
    