<svg width="476" height="144" viewBox="0 0 476 144" fill="none" xmlns="http://www.w3.org/2000/svg">
<path d="M1.504 16V4.8H8.832V6.688H3.552V14.112H8.896V16H1.504ZM2.464 11.2V9.344H8.016V11.2H2.464ZM19.504 17.76L15.248 12.128L16.864 11.024L21.072 16.608L19.504 17.76ZM16.016 16.16C15.216 16.16 14.4747 16.016 13.792 15.728C13.1093 15.44 12.512 15.04 12 14.528C11.4987 14.0053 11.1093 13.392 10.832 12.688C10.5547 11.984 10.416 11.216 10.416 10.384C10.416 9.552 10.5547 8.784 10.832 8.08C11.1093 7.376 11.4987 6.768 12 6.256C12.512 5.73333 13.1093 5.328 13.792 5.04C14.4747 4.752 15.216 4.608 16.016 4.608C16.8267 4.608 17.5733 4.752 18.256 5.04C18.9387 5.328 19.5307 5.73333 20.032 6.256C20.5333 6.77867 20.9227 7.392 21.2 8.096C21.4773 8.78933 21.616 9.552 21.616 10.384C21.616 11.2053 21.4773 11.968 21.2 12.672C20.9227 13.376 20.5333 13.9893 20.032 14.512C19.5307 15.0347 18.9387 15.44 18.256 15.728C17.5733 16.016 16.8267 16.16 16.016 16.16ZM16.016 14.176C16.528 14.176 16.992 14.0853 17.408 13.904C17.8347 13.712 18.2027 13.4453 18.512 13.104C18.8213 12.752 19.0613 12.3467 19.232 11.888C19.4133 11.4293 19.504 10.928 19.504 10.384C19.504 9.84 19.4133 9.33867 19.232 8.88C19.0613 8.42133 18.8213 8.02133 18.512 7.68C18.2027 7.328 17.8347 7.06133 17.408 6.88C16.992 6.688 16.528 6.592 16.016 6.592C15.5147 6.592 15.0507 6.688 14.624 6.88C14.1973 7.06133 13.8293 7.32267 13.52 7.664C13.2107 8.00533 12.9707 8.40533 12.8 8.864C12.6293 9.32267 12.544 9.82933 12.544 10.384C12.544 10.928 12.6293 11.4347 12.8 11.904C12.9707 12.3627 13.2107 12.7627 13.52 13.104C13.8293 13.4453 14.1973 13.712 14.624 13.904C15.0507 14.0853 15.5147 14.176 16.016 14.176ZM28.0315 16.096C27.1462 16.096 26.3568 15.9093 25.6635 15.536C24.9702 15.152 24.4208 14.6293 24.0155 13.968C23.6208 13.296 23.4235 12.5387 23.4235 11.696V4.784H25.5195V11.552C25.5195 12.0533 25.6315 12.5013 25.8555 12.896C26.0902 13.28 26.3995 13.5893 26.7835 13.824C27.1675 14.0587 27.5835 14.176 28.0315 14.176C28.5222 14.176 28.9648 14.0587 29.3595 13.824C29.7542 13.5893 30.0635 13.28 30.2875 12.896C30.5222 12.5013 30.6395 12.0533 30.6395 11.552V4.784H32.6555V11.696C32.6555 12.5387 32.4528 13.296 32.0475 13.968C31.6528 14.6293 31.1088 15.152 30.4155 15.536C29.7222 15.9093 28.9275 16.096 28.0315 16.096ZM34.8799 16V14.16H36.7199V6.64H34.8799V4.8H40.6399V6.64H38.7999V14.16H40.6399V16H34.8799ZM42.974 16V4.8H47.63C48.27 4.8 48.846 4.95467 49.358 5.264C49.8807 5.57333 50.2967 5.99467 50.606 6.528C50.9153 7.06133 51.07 7.65867 51.07 8.32C51.07 8.992 50.9153 9.6 50.606 10.144C50.2967 10.6773 49.8807 11.104 49.358 11.424C48.846 11.744 48.27 11.904 47.63 11.904H45.054V16H42.974ZM45.054 9.984H47.486C47.7527 9.984 47.9927 9.90933 48.206 9.76C48.43 9.61067 48.606 9.41333 48.734 9.168C48.8727 8.92267 48.942 8.64533 48.942 8.336C48.942 8.02667 48.8727 7.75467 48.734 7.52C48.606 7.27467 48.43 7.08267 48.206 6.944C47.9927 6.79467 47.7527 6.72 47.486 6.72H45.054V9.984ZM52.9509 16V4.8H57.6069C58.2469 4.8 58.8229 4.95467 59.3349 5.264C59.8575 5.57333 60.2735 5.99467 60.5829 6.528C60.8922 7.06133 61.0469 7.65867 61.0469 8.32C61.0469 8.992 60.8922 9.6 60.5829 10.144C60.2735 10.6773 59.8575 11.104 59.3349 11.424C58.8229 11.744 58.2469 11.904 57.6069 11.904H55.0309V16H52.9509ZM55.0309 9.984H57.4629C57.7295 9.984 57.9695 9.90933 58.1829 9.76C58.4069 9.61067 58.5829 9.41333 58.7109 9.168C58.8495 8.92267 58.9189 8.64533 58.9189 8.336C58.9189 8.02667 58.8495 7.75467 58.7109 7.52C58.5829 7.27467 58.4069 7.08267 58.1829 6.944C57.9695 6.79467 57.7295 6.72 57.4629 6.72H55.0309V9.984ZM62.9278 16V4.8H70.2558V6.688H64.9758V14.112H70.3198V16H62.9278ZM63.8878 11.2V9.344H69.4398V11.2H63.8878ZM72.6078 16V4.8H77.1038C77.9144 4.8 78.6451 4.93333 79.2958 5.2C79.9571 5.46667 80.5224 5.85067 80.9918 6.352C81.4718 6.85333 81.8344 7.44533 82.0798 8.128C82.3358 8.81067 82.4638 9.568 82.4638 10.4C82.4638 11.232 82.3358 11.9947 82.0798 12.688C81.8344 13.3707 81.4771 13.9627 81.0078 14.464C80.5384 14.9547 79.9731 15.3333 79.3118 15.6C78.6504 15.8667 77.9144 16 77.1038 16H72.6078ZM74.6878 14.384L74.5278 14.08H77.0238C77.5464 14.08 78.0104 13.9947 78.4158 13.824C78.8318 13.6533 79.1838 13.408 79.4718 13.088C79.7598 12.768 79.9784 12.384 80.1278 11.936C80.2771 11.4773 80.3518 10.9653 80.3518 10.4C80.3518 9.83467 80.2771 9.328 80.1278 8.88C79.9784 8.42133 79.7544 8.032 79.4558 7.712C79.1678 7.392 78.8211 7.14667 78.4158 6.976C78.0104 6.80533 77.5464 6.72 77.0238 6.72H74.4798L74.6878 6.448V14.384ZM91.0363 16L87.5483 4.8H89.7243L91.7083 11.408C91.7723 11.6107 91.8309 11.8347 91.8843 12.08C91.9376 12.3253 91.9856 12.5707 92.0283 12.816C92.0709 13.0507 92.1083 13.2693 92.1403 13.472C92.1723 13.6747 92.2043 13.8453 92.2363 13.984L91.8043 13.968C91.9323 13.4667 92.0336 13.0613 92.1083 12.752C92.1829 12.4427 92.2469 12.1867 92.3003 11.984C92.3643 11.7707 92.4283 11.5733 92.4923 11.392L94.3803 6.56H96.1563L97.9963 11.392C98.1029 11.6907 98.1989 11.9787 98.2843 12.256C98.3696 12.5227 98.4389 12.7893 98.4923 13.056C98.5563 13.312 98.6149 13.5787 98.6683 13.856L98.2843 13.936C98.3269 13.68 98.3589 13.472 98.3803 13.312C98.4016 13.152 98.4229 13.008 98.4443 12.88C98.4656 12.752 98.4869 12.6293 98.5083 12.512C98.5296 12.384 98.5616 12.2347 98.6043 12.064C98.6576 11.8827 98.7216 11.6533 98.7963 11.376L100.764 4.8H102.924L99.4203 16H97.9163L95.0683 9.184L95.2603 9.248L92.5563 16H91.0363ZM104.046 16V14.16H105.886V6.64H104.046V4.8H109.806V6.64H107.966V14.16H109.806V16H104.046ZM114.38 16V6.72H111.18V4.8H119.756V6.72H116.46V16H114.38ZM128.661 16V4.8H130.741V16H128.661ZM121.477 16V4.8H123.557V16H121.477ZM122.341 11.392V9.44H129.669V11.392H122.341ZM137.821 16V4.8H139.789L143.869 11.44L142.717 11.424L146.845 4.8H148.717V16H146.653V11.792C146.653 10.832 146.674 9.968 146.717 9.2C146.77 8.432 146.856 7.66933 146.973 6.912L147.229 7.6L143.757 12.96H142.701L139.341 7.648L139.565 6.912C139.682 7.62667 139.762 8.36267 139.805 9.12C139.858 9.86667 139.885 10.7573 139.885 11.792V16H137.821ZM151.071 16V14.16H152.911V6.64H151.071V4.8H156.831V6.64H154.991V14.16H156.831V16H151.071ZM159.165 16V4.8H161.245V14.08H166.413V16H159.165ZM168.47 16V4.8H170.55V14.08H175.718V16H168.47ZM177.439 16V14.16H179.279V6.64H177.439V4.8H183.199V6.64H181.359V14.16H183.199V16H177.439ZM190.131 16.16C189.331 16.16 188.59 16.016 187.907 15.728C187.224 15.44 186.627 15.04 186.115 14.528C185.614 14.0053 185.224 13.392 184.947 12.688C184.67 11.984 184.531 11.216 184.531 10.384C184.531 9.552 184.67 8.784 184.947 8.08C185.224 7.376 185.614 6.768 186.115 6.256C186.627 5.73333 187.224 5.328 187.907 5.04C188.59 4.752 189.331 4.608 190.131 4.608C190.942 4.608 191.688 4.752 192.371 5.04C193.054 5.328 193.646 5.73333 194.147 6.256C194.648 6.77867 195.038 7.392 195.315 8.096C195.592 8.78933 195.731 9.552 195.731 10.384C195.731 11.2053 195.592 11.968 195.315 12.672C195.038 13.376 194.648 13.9893 194.147 14.512C193.646 15.0347 193.054 15.44 192.371 15.728C191.688 16.016 190.942 16.16 190.131 16.16ZM190.131 14.176C190.643 14.176 191.107 14.0853 191.523 13.904C191.95 13.712 192.318 13.4453 192.627 13.104C192.936 12.752 193.176 12.3467 193.347 11.888C193.528 11.4293 193.619 10.928 193.619 10.384C193.619 9.84 193.528 9.33867 193.347 8.88C193.176 8.42133 192.936 8.02133 192.627 7.68C192.318 7.328 191.95 7.06133 191.523 6.88C191.107 6.688 190.643 6.592 190.131 6.592C189.63 6.592 189.166 6.688 188.739 6.88C188.312 7.06133 187.944 7.32267 187.635 7.664C187.326 8.00533 187.086 8.40533 186.915 8.864C186.744 9.32267 186.659 9.82933 186.659 10.384C186.659 10.928 186.744 11.4347 186.915 11.904C187.086 12.3627 187.326 12.7627 187.635 13.104C187.944 13.4453 188.312 13.712 188.739 13.904C189.166 14.0853 189.63 14.176 190.131 14.176ZM197.667 16V4.8H199.539L206.035 13.552L205.683 13.616C205.64 13.3173 205.603 13.0133 205.571 12.704C205.539 12.384 205.507 12.0533 205.475 11.712C205.453 11.3707 205.432 11.0133 205.411 10.64C205.4 10.2667 205.389 9.87733 205.379 9.472C205.368 9.056 205.363 8.61867 205.363 8.16V4.8H207.427V16H205.523L198.995 7.376L199.411 7.264C199.464 7.86133 199.507 8.37333 199.539 8.8C199.581 9.216 199.613 9.57867 199.635 9.888C199.656 10.1867 199.672 10.4373 199.683 10.64C199.704 10.8427 199.715 11.0293 199.715 11.2C199.725 11.36 199.731 11.5147 199.731 11.664V16H197.667ZM213.664 16.16C213.013 16.16 212.416 16.08 211.872 15.92C211.328 15.7493 210.837 15.4987 210.4 15.168C209.963 14.8373 209.573 14.4373 209.232 13.968L210.592 12.432C211.115 13.1573 211.627 13.6587 212.128 13.936C212.629 14.2133 213.195 14.352 213.824 14.352C214.187 14.352 214.517 14.2987 214.816 14.192C215.115 14.0747 215.349 13.92 215.52 13.728C215.691 13.5253 215.776 13.296 215.776 13.04C215.776 12.8587 215.739 12.6933 215.664 12.544C215.6 12.384 215.499 12.2453 215.36 12.128C215.221 12 215.051 11.8827 214.848 11.776C214.645 11.6693 214.416 11.5787 214.16 11.504C213.904 11.4293 213.621 11.36 213.312 11.296C212.725 11.1787 212.213 11.024 211.776 10.832C211.339 10.6293 210.971 10.384 210.672 10.096C210.373 9.79733 210.155 9.46667 210.016 9.104C209.877 8.73067 209.808 8.30933 209.808 7.84C209.808 7.37067 209.909 6.93867 210.112 6.544C210.325 6.14933 210.613 5.808 210.976 5.52C211.339 5.232 211.76 5.008 212.24 4.848C212.72 4.688 213.237 4.608 213.792 4.608C214.421 4.608 214.981 4.68267 215.472 4.832C215.973 4.98133 216.411 5.20533 216.784 5.504C217.168 5.792 217.483 6.144 217.728 6.56L216.352 7.92C216.139 7.58933 215.899 7.31733 215.632 7.104C215.365 6.88 215.077 6.71467 214.768 6.608C214.459 6.49067 214.133 6.432 213.792 6.432C213.408 6.432 213.072 6.48533 212.784 6.592C212.507 6.69867 212.288 6.85333 212.128 7.056C211.968 7.248 211.888 7.48267 211.888 7.76C211.888 7.97333 211.936 8.16533 212.032 8.336C212.128 8.496 212.261 8.64 212.432 8.768C212.613 8.896 212.843 9.008 213.12 9.104C213.397 9.2 213.712 9.28533 214.064 9.36C214.651 9.47733 215.179 9.63733 215.648 9.84C216.117 10.032 216.517 10.2667 216.848 10.544C217.179 10.8107 217.429 11.12 217.6 11.472C217.771 11.8133 217.856 12.1973 217.856 12.624C217.856 13.36 217.68 13.9947 217.328 14.528C216.987 15.0507 216.501 15.456 215.872 15.744C215.243 16.0213 214.507 16.16 213.664 16.16ZM229.038 16.16C228.238 16.16 227.497 16.016 226.814 15.728C226.132 15.44 225.534 15.04 225.022 14.528C224.521 14.0053 224.132 13.392 223.854 12.688C223.577 11.984 223.438 11.216 223.438 10.384C223.438 9.552 223.577 8.784 223.854 8.08C224.132 7.376 224.521 6.768 225.022 6.256C225.534 5.73333 226.132 5.328 226.814 5.04C227.497 4.752 228.238 4.608 229.038 4.608C229.849 4.608 230.596 4.752 231.278 5.04C231.961 5.328 232.553 5.73333 233.054 6.256C233.556 6.77867 233.945 7.392 234.222 8.096C234.5 8.78933 234.639 9.552 234.639 10.384C234.639 11.2053 234.5 11.968 234.222 12.672C233.945 13.376 233.556 13.9893 233.054 14.512C232.553 15.0347 231.961 15.44 231.278 15.728C230.596 16.016 229.849 16.16 229.038 16.16ZM229.038 14.176C229.55 14.176 230.014 14.0853 230.43 13.904C230.857 13.712 231.225 13.4453 231.535 13.104C231.844 12.752 232.084 12.3467 232.254 11.888C232.436 11.4293 232.526 10.928 232.526 10.384C232.526 9.84 232.436 9.33867 232.254 8.88C232.084 8.42133 231.844 8.02133 231.535 7.68C231.225 7.328 230.857 7.06133 230.43 6.88C230.014 6.688 229.55 6.592 229.038 6.592C228.537 6.592 228.073 6.688 227.646 6.88C227.22 7.06133 226.852 7.32267 226.542 7.664C226.233 8.00533 225.993 8.40533 225.822 8.864C225.652 9.32267 225.566 9.82933 225.566 10.384C225.566 10.928 225.652 11.4347 225.822 11.904C225.993 12.3627 226.233 12.7627 226.542 13.104C226.852 13.4453 227.22 13.712 227.646 13.904C228.073 14.0853 228.537 14.176 229.038 14.176ZM236.574 16V4.8H238.654V16H236.574ZM237.534 11.408V9.52H243.31V11.408H237.534ZM237.534 6.72V4.8H243.998V6.72H237.534ZM250.035 16V14.16H251.875V6.64H250.035V4.8H255.795V6.64H253.955V14.16H255.795V16H250.035ZM258.13 16V4.8H262.786C263.426 4.8 264.002 4.95467 264.514 5.264C265.036 5.57333 265.452 5.99467 265.762 6.528C266.071 7.06133 266.226 7.65867 266.226 8.32C266.226 8.992 266.071 9.6 265.762 10.144C265.452 10.6773 265.036 11.104 264.514 11.424C264.002 11.744 263.426 11.904 262.786 11.904H260.21V16H258.13ZM260.21 9.984H262.642C262.908 9.984 263.148 9.90933 263.362 9.76C263.586 9.61067 263.762 9.41333 263.89 9.168C264.028 8.92267 264.098 8.64533 264.098 8.336C264.098 8.02667 264.028 7.75467 263.89 7.52C263.762 7.27467 263.586 7.08267 263.362 6.944C263.148 6.79467 262.908 6.72 262.642 6.72H260.21V9.984ZM272.49 16V4.8H277.354C278.026 4.8 278.639 4.96 279.194 5.28C279.748 5.58933 280.186 6.016 280.506 6.56C280.836 7.09333 281.002 7.696 281.002 8.368C281.002 9.008 280.836 9.6 280.506 10.144C280.186 10.6773 279.748 11.104 279.194 11.424C278.65 11.7333 278.036 11.888 277.354 11.888H274.522V16H272.49ZM278.986 16L276.138 10.944L278.282 10.544L281.45 16.016L278.986 16ZM274.522 10.08H277.37C277.679 10.08 277.946 10.0107 278.17 9.872C278.404 9.72267 278.586 9.52 278.714 9.264C278.842 9.008 278.906 8.72533 278.906 8.416C278.906 8.064 278.826 7.76 278.666 7.504C278.506 7.248 278.282 7.04533 277.994 6.896C277.706 6.74667 277.375 6.672 277.002 6.672H274.522V10.08ZM283.326 16V4.8H290.654V6.688H285.374V14.112H290.718V16H283.326ZM284.286 11.2V9.344H289.838V11.2H284.286ZM296.558 16.16C295.907 16.16 295.31 16.08 294.766 15.92C294.222 15.7493 293.731 15.4987 293.294 15.168C292.857 14.8373 292.467 14.4373 292.126 13.968L293.486 12.432C294.009 13.1573 294.521 13.6587 295.022 13.936C295.523 14.2133 296.089 14.352 296.718 14.352C297.081 14.352 297.411 14.2987 297.71 14.192C298.009 14.0747 298.243 13.92 298.414 13.728C298.585 13.5253 298.67 13.296 298.67 13.04C298.67 12.8587 298.633 12.6933 298.558 12.544C298.494 12.384 298.393 12.2453 298.254 12.128C298.115 12 297.945 11.8827 297.742 11.776C297.539 11.6693 297.31 11.5787 297.054 11.504C296.798 11.4293 296.515 11.36 296.206 11.296C295.619 11.1787 295.107 11.024 294.67 10.832C294.233 10.6293 293.865 10.384 293.566 10.096C293.267 9.79733 293.049 9.46667 292.91 9.104C292.771 8.73067 292.702 8.30933 292.702 7.84C292.702 7.37067 292.803 6.93867 293.006 6.544C293.219 6.14933 293.507 5.808 293.87 5.52C294.233 5.232 294.654 5.008 295.134 4.848C295.614 4.688 296.131 4.608 296.686 4.608C297.315 4.608 297.875 4.68267 298.366 4.832C298.867 4.98133 299.305 5.20533 299.678 5.504C300.062 5.792 300.377 6.144 300.622 6.56L299.246 7.92C299.033 7.58933 298.793 7.31733 298.526 7.104C298.259 6.88 297.971 6.71467 297.662 6.608C297.353 6.49067 297.027 6.432 296.686 6.432C296.302 6.432 295.966 6.48533 295.678 6.592C295.401 6.69867 295.182 6.85333 295.022 7.056C294.862 7.248 294.782 7.48267 294.782 7.76C294.782 7.97333 294.83 8.16533 294.926 8.336C295.022 8.496 295.155 8.64 295.326 8.768C295.507 8.896 295.737 9.008 296.014 9.104C296.291 9.2 296.606 9.28533 296.958 9.36C297.545 9.47733 298.073 9.63733 298.542 9.84C299.011 10.032 299.411 10.2667 299.742 10.544C300.073 10.8107 300.323 11.12 300.494 11.472C300.665 11.8133 300.75 12.1973 300.75 12.624C300.75 13.36 300.574 13.9947 300.222 14.528C299.881 15.0507 299.395 15.456 298.766 15.744C298.137 16.0213 297.401 16.16 296.558 16.16ZM307.549 16.16C306.749 16.16 306.008 16.016 305.325 15.728C304.642 15.44 304.045 15.04 303.533 14.528C303.032 14.0053 302.642 13.392 302.365 12.688C302.088 11.984 301.949 11.216 301.949 10.384C301.949 9.552 302.088 8.784 302.365 8.08C302.642 7.376 303.032 6.768 303.533 6.256C304.045 5.73333 304.642 5.328 305.325 5.04C306.008 4.752 306.749 4.608 307.549 4.608C308.36 4.608 309.106 4.752 309.789 5.04C310.472 5.328 311.064 5.73333 311.565 6.256C312.066 6.77867 312.456 7.392 312.733 8.096C313.01 8.78933 313.149 9.552 313.149 10.384C313.149 11.2053 313.01 11.968 312.733 12.672C312.456 13.376 312.066 13.9893 311.565 14.512C311.064 15.0347 310.472 15.44 309.789 15.728C309.106 16.016 308.36 16.16 307.549 16.16ZM307.549 14.176C308.061 14.176 308.525 14.0853 308.941 13.904C309.368 13.712 309.736 13.4453 310.045 13.104C310.354 12.752 310.594 12.3467 310.765 11.888C310.946 11.4293 311.037 10.928 311.037 10.384C311.037 9.84 310.946 9.33867 310.765 8.88C310.594 8.42133 310.354 8.02133 310.045 7.68C309.736 7.328 309.368 7.06133 308.941 6.88C308.525 6.688 308.061 6.592 307.549 6.592C307.048 6.592 306.584 6.688 306.157 6.88C305.73 7.06133 305.362 7.32267 305.053 7.664C304.744 8.00533 304.504 8.40533 304.333 8.864C304.162 9.32267 304.077 9.82933 304.077 10.384C304.077 10.928 304.162 11.4347 304.333 11.904C304.504 12.3627 304.744 12.7627 305.053 13.104C305.362 13.4453 305.73 13.712 306.157 13.904C306.584 14.0853 307.048 14.176 307.549 14.176ZM319.565 16.096C318.679 16.096 317.89 15.9093 317.197 15.536C316.503 15.152 315.954 14.6293 315.549 13.968C315.154 13.296 314.957 12.5387 314.957 11.696V4.784H317.053V11.552C317.053 12.0533 317.165 12.5013 317.389 12.896C317.623 13.28 317.933 13.5893 318.317 13.824C318.701 14.0587 319.117 14.176 319.565 14.176C320.055 14.176 320.498 14.0587 320.893 13.824C321.287 13.5893 321.597 13.28 321.821 12.896C322.055 12.5013 322.173 12.0533 322.173 11.552V4.784H324.189V11.696C324.189 12.5387 323.986 13.296 323.581 13.968C323.186 14.6293 322.642 15.152 321.949 15.536C321.255 15.9093 320.461 16.096 319.565 16.096ZM326.749 16V4.8H331.613C332.285 4.8 332.898 4.96 333.453 5.28C334.008 5.58933 334.445 6.016 334.765 6.56C335.096 7.09333 335.261 7.696 335.261 8.368C335.261 9.008 335.096 9.6 334.765 10.144C334.445 10.6773 334.008 11.104 333.453 11.424C332.909 11.7333 332.296 11.888 331.613 11.888H328.781V16H326.749ZM333.245 16L330.397 10.944L332.541 10.544L335.709 16.016L333.245 16ZM328.781 10.08H331.629C331.938 10.08 332.205 10.0107 332.429 9.872C332.664 9.72267 332.845 9.52 332.973 9.264C333.101 9.008 333.165 8.72533 333.165 8.416C333.165 8.064 333.085 7.76 332.925 7.504C332.765 7.248 332.541 7.04533 332.253 6.896C331.965 6.74667 331.634 6.672 331.261 6.672H328.781V10.08ZM342.181 16.16C341.37 16.16 340.629 16.0213 339.957 15.744C339.285 15.4667 338.704 15.072 338.213 14.56C337.722 14.0373 337.338 13.424 337.061 12.72C336.794 12.0053 336.661 11.2267 336.661 10.384C336.661 9.57333 336.805 8.82133 337.093 8.128C337.381 7.43467 337.781 6.82667 338.293 6.304C338.805 5.78133 339.402 5.376 340.085 5.088C340.768 4.8 341.509 4.656 342.309 4.656C342.853 4.656 343.381 4.736 343.893 4.896C344.405 5.056 344.874 5.28 345.301 5.568C345.728 5.84533 346.085 6.17067 346.373 6.544L345.045 8C344.768 7.712 344.48 7.472 344.181 7.28C343.893 7.07733 343.589 6.928 343.269 6.832C342.96 6.72533 342.64 6.672 342.309 6.672C341.818 6.672 341.354 6.76267 340.917 6.944C340.49 7.12533 340.117 7.38133 339.797 7.712C339.488 8.04267 339.242 8.43733 339.061 8.896C338.88 9.344 338.789 9.84533 338.789 10.4C338.789 10.9653 338.874 11.4773 339.045 11.936C339.226 12.3947 339.477 12.7893 339.797 13.12C340.128 13.4507 340.517 13.7067 340.965 13.888C341.424 14.0587 341.925 14.144 342.469 14.144C342.821 14.144 343.162 14.096 343.493 14C343.824 13.904 344.128 13.7707 344.405 13.6C344.693 13.4187 344.954 13.2107 345.189 12.976L346.213 14.624C345.957 14.912 345.616 15.1733 345.189 15.408C344.762 15.6427 344.282 15.8293 343.749 15.968C343.226 16.096 342.704 16.16 342.181 16.16ZM348.047 16V4.8H355.375V6.688H350.095V14.112H355.439V16H348.047ZM349.007 11.2V9.344H354.559V11.2H349.007ZM361.279 16.16C360.628 16.16 360.031 16.08 359.487 15.92C358.943 15.7493 358.452 15.4987 358.015 15.168C357.577 14.8373 357.188 14.4373 356.847 13.968L358.207 12.432C358.729 13.1573 359.241 13.6587 359.743 13.936C360.244 14.2133 360.809 14.352 361.439 14.352C361.801 14.352 362.132 14.2987 362.431 14.192C362.729 14.0747 362.964 13.92 363.135 13.728C363.305 13.5253 363.391 13.296 363.391 13.04C363.391 12.8587 363.353 12.6933 363.279 12.544C363.215 12.384 363.113 12.2453 362.975 12.128C362.836 12 362.665 11.8827 362.463 11.776C362.26 11.6693 362.031 11.5787 361.775 11.504C361.519 11.4293 361.236 11.36 360.927 11.296C360.34 11.1787 359.828 11.024 359.391 10.832C358.953 10.6293 358.585 10.384 358.287 10.096C357.988 9.79733 357.769 9.46667 357.631 9.104C357.492 8.73067 357.423 8.30933 357.423 7.84C357.423 7.37067 357.524 6.93867 357.727 6.544C357.94 6.14933 358.228 5.808 358.591 5.52C358.953 5.232 359.375 5.008 359.855 4.848C360.335 4.688 360.852 4.608 361.407 4.608C362.036 4.608 362.596 4.68267 363.087 4.832C363.588 4.98133 364.025 5.20533 364.399 5.504C364.783 5.792 365.097 6.144 365.343 6.56L363.967 7.92C363.753 7.58933 363.513 7.31733 363.247 7.104C362.98 6.88 362.692 6.71467 362.383 6.608C362.073 6.49067 361.748 6.432 361.407 6.432C361.023 6.432 360.687 6.48533 360.399 6.592C360.121 6.69867 359.903 6.85333 359.743 7.056C359.583 7.248 359.503 7.48267 359.503 7.76C359.503 7.97333 359.551 8.16533 359.647 8.336C359.743 8.496 359.876 8.64 360.047 8.768C360.228 8.896 360.457 9.008 360.735 9.104C361.012 9.2 361.327 9.28533 361.679 9.36C362.265 9.47733 362.793 9.63733 363.263 9.84C363.732 10.032 364.132 10.2667 364.463 10.544C364.793 10.8107 365.044 11.12 365.215 11.472C365.385 11.8133 365.471 12.1973 365.471 12.624C365.471 13.36 365.295 13.9947 364.943 14.528C364.601 15.0507 364.116 15.456 363.487 15.744C362.857 16.0213 362.121 16.16 361.279 16.16Z" fill="#1675FF"/>
<path d="M10.902 74V48.01H1.518V41.8H27.462V48.01H17.802V74H10.902ZM31.3206 74V39.96H37.7606V54.634L36.4726 55.186C36.8099 54.082 37.4079 53.0853 38.2666 52.196C39.1559 51.276 40.2139 50.54 41.4406 49.988C42.6673 49.436 43.9553 49.16 45.3046 49.16C47.1446 49.16 48.6779 49.528 49.9046 50.264C51.1619 51 52.0973 52.1193 52.7106 53.622C53.3546 55.094 53.6766 56.9187 53.6766 59.096V74H47.1446V59.602C47.1446 58.498 46.9913 57.578 46.6846 56.842C46.3779 56.106 45.9026 55.5693 45.2586 55.232C44.6453 54.864 43.8786 54.7107 42.9586 54.772C42.2226 54.772 41.5326 54.8947 40.8886 55.14C40.2753 55.3547 39.7386 55.6767 39.2786 56.106C38.8493 56.5353 38.4966 57.026 38.2206 57.578C37.9753 58.13 37.8526 58.728 37.8526 59.372V74H34.6326C33.9273 74 33.2986 74 32.7466 74C32.1946 74 31.7193 74 31.3206 74ZM70.5618 74.46C67.9245 74.46 65.6245 73.9233 63.6618 72.85C61.6992 71.7767 60.1658 70.3047 59.0618 68.434C57.9578 66.5633 57.4058 64.4167 57.4058 61.994C57.4058 60.1233 57.7125 58.406 58.3258 56.842C58.9392 55.278 59.7978 53.9287 60.9018 52.794C62.0058 51.6287 63.3092 50.7393 64.8118 50.126C66.3452 49.482 68.0012 49.16 69.7798 49.16C71.4358 49.16 72.9692 49.4667 74.3798 50.08C75.7905 50.6627 77.0018 51.506 78.0138 52.61C79.0565 53.6833 79.8538 54.956 80.4058 56.428C80.9578 57.9 81.2032 59.51 81.1418 61.258L81.0958 63.282H61.5458L60.4878 59.28H75.7138L74.9778 60.108V59.096C74.9165 58.268 74.6405 57.5167 74.1498 56.842C73.6898 56.1673 73.0918 55.646 72.3558 55.278C71.6198 54.91 70.7918 54.726 69.8718 54.726C68.5225 54.726 67.3725 54.9867 66.4218 55.508C65.5018 56.0293 64.7965 56.796 64.3058 57.808C63.8152 58.82 63.5698 60.0467 63.5698 61.488C63.5698 62.96 63.8765 64.2327 64.4898 65.306C65.1338 66.3793 66.0232 67.2227 67.1578 67.836C68.3232 68.4187 69.6878 68.71 71.2518 68.71C72.3252 68.71 73.3065 68.5413 74.1958 68.204C75.0852 67.8667 76.0358 67.284 77.0478 66.456L80.1758 70.826C79.2865 71.6233 78.3052 72.298 77.2318 72.85C76.1585 73.3713 75.0545 73.77 73.9198 74.046C72.7852 74.322 71.6658 74.46 70.5618 74.46ZM99.1544 74V41.8H105.456L117.186 60.89L113.046 60.844L124.914 41.8H130.94V74H124.178V62.96C124.178 60.2 124.24 57.716 124.362 55.508C124.516 53.3 124.761 51.1073 125.098 48.93L125.926 51.092L116.496 65.72H113.46L104.214 51.184L104.996 48.93C105.334 50.9847 105.564 53.1007 105.686 55.278C105.84 57.4247 105.916 59.9853 105.916 62.96V74H99.1544ZM148.791 74.46C146.307 74.46 144.083 73.9233 142.121 72.85C140.189 71.746 138.655 70.2433 137.521 68.342C136.417 66.4407 135.865 64.2633 135.865 61.81C135.865 59.3567 136.417 57.1947 137.521 55.324C138.655 53.4227 140.189 51.92 142.121 50.816C144.083 49.712 146.307 49.16 148.791 49.16C151.244 49.16 153.437 49.712 155.369 50.816C157.331 51.92 158.865 53.4227 159.969 55.324C161.073 57.1947 161.625 59.3567 161.625 61.81C161.625 64.2633 161.073 66.4407 159.969 68.342C158.865 70.2433 157.331 71.746 155.369 72.85C153.437 73.9233 151.244 74.46 148.791 74.46ZM148.791 68.756C149.987 68.756 151.06 68.4647 152.011 67.882C152.961 67.2687 153.697 66.4407 154.219 65.398C154.771 64.3247 155.047 63.1287 155.047 61.81C155.047 60.4607 154.771 59.2647 154.219 58.222C153.697 57.1487 152.961 56.3207 152.011 55.738C151.06 55.1247 149.987 54.818 148.791 54.818C147.564 54.818 146.475 55.1247 145.525 55.738C144.574 56.3513 143.823 57.1793 143.271 58.222C142.719 59.2647 142.458 60.4607 142.489 61.81C142.458 63.1287 142.719 64.3247 143.271 65.398C143.823 66.4407 144.574 67.2687 145.525 67.882C146.475 68.4647 147.564 68.756 148.791 68.756ZM173.807 74.46C171.538 74.46 169.514 74.092 167.735 73.356C165.987 72.5893 164.576 71.5467 163.503 70.228L167.551 66.732C168.502 67.744 169.56 68.48 170.725 68.94C171.89 69.3693 173.056 69.584 174.221 69.584C174.681 69.584 175.095 69.538 175.463 69.446C175.862 69.3233 176.199 69.17 176.475 68.986C176.751 68.7713 176.95 68.526 177.073 68.25C177.226 67.9433 177.303 67.6213 177.303 67.284C177.303 66.6093 177.027 66.0727 176.475 65.674C176.168 65.5207 175.693 65.3367 175.049 65.122C174.405 64.8767 173.577 64.616 172.565 64.34C171.001 63.9413 169.667 63.4813 168.563 62.96C167.49 62.408 166.631 61.7947 165.987 61.12C165.435 60.476 165.006 59.786 164.699 59.05C164.423 58.2833 164.285 57.44 164.285 56.52C164.285 55.416 164.53 54.4193 165.021 53.53C165.512 52.61 166.186 51.828 167.045 51.184C167.934 50.54 168.946 50.0493 170.081 49.712C171.216 49.344 172.412 49.16 173.669 49.16C174.926 49.16 176.153 49.3133 177.349 49.62C178.545 49.9267 179.649 50.3713 180.661 50.954C181.704 51.506 182.608 52.1653 183.375 52.932L179.879 56.796C179.327 56.2747 178.698 55.7993 177.993 55.37C177.318 54.9407 176.613 54.6033 175.877 54.358C175.141 54.1127 174.482 53.99 173.899 53.99C173.378 53.99 172.902 54.036 172.473 54.128C172.074 54.22 171.737 54.358 171.461 54.542C171.185 54.726 170.97 54.9713 170.817 55.278C170.694 55.554 170.633 55.8607 170.633 56.198C170.633 56.5353 170.71 56.8573 170.863 57.164C171.047 57.4707 171.292 57.7313 171.599 57.946C171.936 58.13 172.427 58.3447 173.071 58.59C173.746 58.8353 174.65 59.1113 175.785 59.418C177.257 59.8167 178.499 60.2613 179.511 60.752C180.554 61.2427 181.382 61.81 181.995 62.454C182.516 63.006 182.9 63.6347 183.145 64.34C183.39 65.0453 183.513 65.8273 183.513 66.686C183.513 68.1887 183.084 69.538 182.225 70.734C181.397 71.8993 180.247 72.8193 178.775 73.494C177.303 74.138 175.647 74.46 173.807 74.46ZM189.596 74V43.502H196.128V74H189.596ZM185.042 55.508V49.666H201.096V55.508H185.042ZM285.403 74.46C283.041 74.46 280.864 74.0613 278.871 73.264C276.908 72.436 275.191 71.286 273.719 69.814C272.277 68.3113 271.158 66.548 270.361 64.524C269.563 62.4693 269.165 60.2307 269.165 57.808C269.165 55.4467 269.579 53.2693 270.407 51.276C271.235 49.252 272.4 47.504 273.903 46.032C275.405 44.5293 277.169 43.364 279.193 42.536C281.217 41.708 283.409 41.294 285.771 41.294C287.304 41.294 288.807 41.5087 290.279 41.938C291.781 42.3367 293.146 42.9347 294.373 43.732C295.63 44.5293 296.703 45.48 297.593 46.584L293.269 51.368C292.533 50.632 291.766 50.0033 290.969 49.482C290.202 48.93 289.374 48.516 288.485 48.24C287.626 47.9333 286.706 47.78 285.725 47.78C284.406 47.78 283.164 48.0253 281.999 48.516C280.864 49.0067 279.867 49.6967 279.009 50.586C278.15 51.4447 277.46 52.5027 276.939 53.76C276.448 54.9867 276.203 56.3513 276.203 57.854C276.203 59.3873 276.448 60.7827 276.939 62.04C277.429 63.2667 278.119 64.3247 279.009 65.214C279.898 66.0727 280.956 66.7473 282.183 67.238C283.44 67.698 284.82 67.928 286.323 67.928C287.304 67.928 288.255 67.79 289.175 67.514C290.095 67.238 290.938 66.8547 291.705 66.364C292.502 65.8733 293.207 65.306 293.821 64.662L297.179 70.044C296.443 70.872 295.446 71.6233 294.189 72.298C292.962 72.9727 291.582 73.5093 290.049 73.908C288.515 74.276 286.967 74.46 285.403 74.46ZM312.472 74.46C309.988 74.46 307.764 73.9233 305.802 72.85C303.87 71.746 302.336 70.2433 301.202 68.342C300.098 66.4407 299.546 64.2633 299.546 61.81C299.546 59.3567 300.098 57.1947 301.202 55.324C302.336 53.4227 303.87 51.92 305.802 50.816C307.764 49.712 309.988 49.16 312.472 49.16C314.925 49.16 317.118 49.712 319.05 50.816C321.012 51.92 322.546 53.4227 323.65 55.324C324.754 57.1947 325.306 59.3567 325.306 61.81C325.306 64.2633 324.754 66.4407 323.65 68.342C322.546 70.2433 321.012 71.746 319.05 72.85C317.118 73.9233 314.925 74.46 312.472 74.46ZM312.472 68.756C313.668 68.756 314.741 68.4647 315.692 67.882C316.642 67.2687 317.378 66.4407 317.9 65.398C318.452 64.3247 318.728 63.1287 318.728 61.81C318.728 60.4607 318.452 59.2647 317.9 58.222C317.378 57.1487 316.642 56.3207 315.692 55.738C314.741 55.1247 313.668 54.818 312.472 54.818C311.245 54.818 310.156 55.1247 309.206 55.738C308.255 56.3513 307.504 57.1793 306.952 58.222C306.4 59.2647 306.139 60.4607 306.17 61.81C306.139 63.1287 306.4 64.3247 306.952 65.398C307.504 66.4407 308.255 67.2687 309.206 67.882C310.156 68.4647 311.245 68.756 312.472 68.756ZM329.254 74V49.666H335.556L335.694 54.312L334.728 54.496C335.065 53.6987 335.51 52.978 336.062 52.334C336.614 51.69 337.258 51.138 337.994 50.678C338.761 50.218 339.558 49.8653 340.386 49.62C341.214 49.344 342.042 49.206 342.87 49.206C344.127 49.206 345.262 49.4053 346.274 49.804C347.286 50.2027 348.145 50.8313 348.85 51.69C349.555 52.518 350.107 53.622 350.506 55.002L349.494 54.91L349.816 54.174C350.215 53.438 350.721 52.7787 351.334 52.196C351.947 51.5827 352.637 51.0613 353.404 50.632C354.171 50.172 354.968 49.8193 355.796 49.574C356.624 49.3287 357.437 49.206 358.234 49.206C360.135 49.206 361.715 49.5893 362.972 50.356C364.229 51.092 365.165 52.2113 365.778 53.714C366.422 55.2167 366.744 57.0567 366.744 59.234V74H360.212V59.694C360.212 58.59 360.059 57.6853 359.752 56.98C359.445 56.2747 359.001 55.7533 358.418 55.416C357.835 55.048 357.084 54.864 356.164 54.864C355.459 54.864 354.799 54.9867 354.186 55.232C353.603 55.4467 353.082 55.7687 352.622 56.198C352.193 56.5967 351.855 57.072 351.61 57.624C351.365 58.176 351.242 58.7893 351.242 59.464V74H344.71V59.648C344.71 58.636 344.541 57.7773 344.204 57.072C343.897 56.336 343.453 55.784 342.87 55.416C342.287 55.048 341.567 54.864 340.708 54.864C340.003 54.864 339.343 54.9867 338.73 55.232C338.147 55.4467 337.641 55.7687 337.212 56.198C336.783 56.5967 336.43 57.072 336.154 57.624C335.909 58.176 335.786 58.774 335.786 59.418V74H329.254ZM372.044 84.12V49.666H378.346L378.53 55.14L377.334 54.726C377.549 53.7447 378.07 52.84 378.898 52.012C379.757 51.184 380.815 50.5093 382.072 49.988C383.329 49.4667 384.648 49.206 386.028 49.206C388.144 49.206 390.015 49.758 391.64 50.862C393.296 51.9353 394.599 53.4227 395.55 55.324C396.531 57.1947 397.022 59.3567 397.022 61.81C397.022 64.2327 396.547 66.3947 395.596 68.296C394.645 70.1973 393.342 71.7 391.686 72.804C390.03 73.8773 388.144 74.414 386.028 74.414C384.617 74.414 383.268 74.1533 381.98 73.632C380.723 73.08 379.649 72.3593 378.76 71.47C377.871 70.5807 377.319 69.63 377.104 68.618L378.622 67.974V84.12H372.044ZM384.556 68.802C385.752 68.802 386.81 68.5107 387.73 67.928C388.65 67.3453 389.371 66.5327 389.892 65.49C390.413 64.4167 390.674 63.19 390.674 61.81C390.674 60.43 390.413 59.2187 389.892 58.176C389.371 57.1333 388.65 56.3207 387.73 55.738C386.841 55.1553 385.783 54.864 384.556 54.864C383.329 54.864 382.256 55.1553 381.336 55.738C380.416 56.29 379.695 57.1027 379.174 58.176C378.653 59.2187 378.392 60.43 378.392 61.81C378.392 63.19 378.653 64.4167 379.174 65.49C379.695 66.5327 380.416 67.3453 381.336 67.928C382.256 68.5107 383.329 68.802 384.556 68.802ZM401.088 74V39.96H407.62V74H401.088ZM424.426 74.46C421.788 74.46 419.488 73.9233 417.526 72.85C415.563 71.7767 414.03 70.3047 412.926 68.434C411.822 66.5633 411.27 64.4167 411.27 61.994C411.27 60.1233 411.576 58.406 412.19 56.842C412.803 55.278 413.662 53.9287 414.766 52.794C415.87 51.6287 417.173 50.7393 418.676 50.126C420.209 49.482 421.865 49.16 423.644 49.16C425.3 49.16 426.833 49.4667 428.244 50.08C429.654 50.6627 430.866 51.506 431.878 52.61C432.92 53.6833 433.718 54.956 434.27 56.428C434.822 57.9 435.067 59.51 435.006 61.258L434.96 63.282H415.41L414.352 59.28H429.578L428.842 60.108V59.096C428.78 58.268 428.504 57.5167 428.014 56.842C427.554 56.1673 426.956 55.646 426.22 55.278C425.484 54.91 424.656 54.726 423.736 54.726C422.386 54.726 421.236 54.9867 420.286 55.508C419.366 56.0293 418.66 56.796 418.17 57.808C417.679 58.82 417.434 60.0467 417.434 61.488C417.434 62.96 417.74 64.2327 418.354 65.306C418.998 66.3793 419.887 67.2227 421.022 67.836C422.187 68.4187 423.552 68.71 425.116 68.71C426.189 68.71 427.17 68.5413 428.06 68.204C428.949 67.8667 429.9 67.284 430.912 66.456L434.04 70.826C433.15 71.6233 432.169 72.298 431.096 72.85C430.022 73.3713 428.918 73.77 427.784 74.046C426.649 74.322 425.53 74.46 424.426 74.46ZM454.142 74L448.116 65.398L446.276 62.822L436.432 49.666H444.344L450.232 57.992L452.256 60.752L461.962 74H454.142ZM436.34 74L446.046 60.706L449.634 64.984L444.022 74H436.34ZM451.98 63.052L448.484 58.774L453.682 49.666H461.364L451.98 63.052ZM4.186 132V99.8H17.848C19.7493 99.8 21.4667 100.26 23 101.18C24.564 102.069 25.7907 103.296 26.68 104.86C27.6 106.424 28.06 108.187 28.06 110.15C28.06 112.143 27.6 113.937 26.68 115.532C25.7907 117.127 24.564 118.399 23 119.35C21.4667 120.27 19.7493 120.73 17.848 120.73H11.086V132H4.186ZM10.994 114.52H17.066C17.802 114.52 18.4613 114.336 19.044 113.968C19.6267 113.569 20.0867 113.048 20.424 112.404C20.792 111.76 20.976 111.024 20.976 110.196C20.976 109.368 20.792 108.647 20.424 108.034C20.0867 107.39 19.6267 106.899 19.044 106.562C18.4613 106.194 17.802 106.01 17.066 106.01H10.994V114.52ZM32.3987 132V107.666H38.7007L38.9307 115.486L37.8267 113.876C38.1947 112.619 38.7927 111.484 39.6207 110.472C40.4487 109.429 41.4147 108.617 42.5187 108.034C43.6534 107.451 44.8341 107.16 46.0607 107.16C46.5821 107.16 47.0881 107.206 47.5787 107.298C48.0694 107.39 48.4834 107.497 48.8207 107.62L47.0727 114.796C46.7047 114.612 46.2601 114.459 45.7387 114.336C45.2174 114.183 44.6807 114.106 44.1287 114.106C43.3927 114.106 42.7027 114.244 42.0587 114.52C41.4454 114.765 40.9087 115.133 40.4487 115.624C39.9887 116.084 39.6207 116.636 39.3447 117.28C39.0994 117.924 38.9767 118.629 38.9767 119.396V132H32.3987ZM61.9315 132.46C59.4475 132.46 57.2241 131.923 55.2615 130.85C53.3295 129.746 51.7961 128.243 50.6615 126.342C49.5575 124.441 49.0055 122.263 49.0055 119.81C49.0055 117.357 49.5575 115.195 50.6615 113.324C51.7961 111.423 53.3295 109.92 55.2615 108.816C57.2241 107.712 59.4475 107.16 61.9315 107.16C64.3848 107.16 66.5775 107.712 68.5095 108.816C70.4721 109.92 72.0055 111.423 73.1095 113.324C74.2135 115.195 74.7655 117.357 74.7655 119.81C74.7655 122.263 74.2135 124.441 73.1095 126.342C72.0055 128.243 70.4721 129.746 68.5095 130.85C66.5775 131.923 64.3848 132.46 61.9315 132.46ZM61.9315 126.756C63.1275 126.756 64.2008 126.465 65.1515 125.882C66.1021 125.269 66.8381 124.441 67.3595 123.398C67.9115 122.325 68.1875 121.129 68.1875 119.81C68.1875 118.461 67.9115 117.265 67.3595 116.222C66.8381 115.149 66.1021 114.321 65.1515 113.738C64.2008 113.125 63.1275 112.818 61.9315 112.818C60.7048 112.818 59.6161 113.125 58.6655 113.738C57.7148 114.351 56.9635 115.179 56.4115 116.222C55.8595 117.265 55.5988 118.461 55.6295 119.81C55.5988 121.129 55.8595 122.325 56.4115 123.398C56.9635 124.441 57.7148 125.269 58.6655 125.882C59.6161 126.465 60.7048 126.756 61.9315 126.756ZM93.2255 132L87.1995 123.398L85.3595 120.822L75.5155 107.666H83.4275L89.3155 115.992L91.3395 118.752L101.045 132H93.2255ZM75.4235 132L85.1295 118.706L88.7175 122.984L83.1055 132H75.4235ZM91.0635 121.052L87.5675 116.774L92.7655 107.666H100.447L91.0635 121.052ZM107.568 142.58L112.904 130.068L112.996 133.84L101.128 107.666H108.534L114.468 121.696C114.713 122.217 114.943 122.831 115.158 123.536C115.403 124.211 115.603 124.87 115.756 125.514L114.652 125.974C114.836 125.453 115.051 124.855 115.296 124.18C115.541 123.505 115.787 122.785 116.032 122.018L121.138 107.666H128.59L118.378 132L114.192 142.58H107.568ZM145.291 132V99.8H151.455L169.257 123.858H167.969C167.846 122.907 167.739 121.987 167.647 121.098C167.555 120.178 167.463 119.258 167.371 118.338C167.31 117.387 167.248 116.421 167.187 115.44C167.156 114.428 167.126 113.37 167.095 112.266C167.064 111.131 167.049 109.905 167.049 108.586V99.8H173.811V132H167.555L149.385 107.712L151.133 107.758C151.286 109.353 151.409 110.717 151.501 111.852C151.624 112.956 151.716 113.922 151.777 114.75C151.838 115.578 151.884 116.299 151.915 116.912C151.976 117.525 152.007 118.108 152.007 118.66C152.038 119.212 152.053 119.795 152.053 120.408V132H145.291ZM191.878 132.46C189.241 132.46 186.941 131.923 184.978 130.85C183.015 129.777 181.482 128.305 180.378 126.434C179.274 124.563 178.722 122.417 178.722 119.994C178.722 118.123 179.029 116.406 179.642 114.842C180.255 113.278 181.114 111.929 182.218 110.794C183.322 109.629 184.625 108.739 186.128 108.126C187.661 107.482 189.317 107.16 191.096 107.16C192.752 107.16 194.285 107.467 195.696 108.08C197.107 108.663 198.318 109.506 199.33 110.61C200.373 111.683 201.17 112.956 201.722 114.428C202.274 115.9 202.519 117.51 202.458 119.258L202.412 121.282H182.862L181.804 117.28H197.03L196.294 118.108V117.096C196.233 116.268 195.957 115.517 195.466 114.842C195.006 114.167 194.408 113.646 193.672 113.278C192.936 112.91 192.108 112.726 191.188 112.726C189.839 112.726 188.689 112.987 187.738 113.508C186.818 114.029 186.113 114.796 185.622 115.808C185.131 116.82 184.886 118.047 184.886 119.488C184.886 120.96 185.193 122.233 185.806 123.306C186.45 124.379 187.339 125.223 188.474 125.836C189.639 126.419 191.004 126.71 192.568 126.71C193.641 126.71 194.623 126.541 195.512 126.204C196.401 125.867 197.352 125.284 198.364 124.456L201.492 128.826C200.603 129.623 199.621 130.298 198.548 130.85C197.475 131.371 196.371 131.77 195.236 132.046C194.101 132.322 192.982 132.46 191.878 132.46ZM208.711 132V101.502H215.243V132H208.711ZM204.157 113.508V107.666H220.211V113.508H204.157ZM229.115 132L220.973 107.666H227.781L232.749 124.226L231.737 124.088L237.211 111.162H241.075L246.779 124.134L245.675 124.226L250.643 107.666H257.451L249.171 132H244.433L238.683 118.154L239.419 118.246L233.807 132H229.115ZM271.14 132.46C268.656 132.46 266.432 131.923 264.47 130.85C262.538 129.746 261.004 128.243 259.87 126.342C258.766 124.441 258.214 122.263 258.214 119.81C258.214 117.357 258.766 115.195 259.87 113.324C261.004 111.423 262.538 109.92 264.47 108.816C266.432 107.712 268.656 107.16 271.14 107.16C273.593 107.16 275.786 107.712 277.718 108.816C279.68 109.92 281.214 111.423 282.318 113.324C283.422 115.195 283.974 117.357 283.974 119.81C283.974 122.263 283.422 124.441 282.318 126.342C281.214 128.243 279.68 129.746 277.718 130.85C275.786 131.923 273.593 132.46 271.14 132.46ZM271.14 126.756C272.336 126.756 273.409 126.465 274.36 125.882C275.31 125.269 276.046 124.441 276.568 123.398C277.12 122.325 277.396 121.129 277.396 119.81C277.396 118.461 277.12 117.265 276.568 116.222C276.046 115.149 275.31 114.321 274.36 113.738C273.409 113.125 272.336 112.818 271.14 112.818C269.913 112.818 268.824 113.125 267.874 113.738C266.923 114.351 266.172 115.179 265.62 116.222C265.068 117.265 264.807 118.461 264.838 119.81C264.807 121.129 265.068 122.325 265.62 123.398C266.172 124.441 266.923 125.269 267.874 125.882C268.824 126.465 269.913 126.756 271.14 126.756ZM287.968 132V107.666H294.27L294.5 115.486L293.396 113.876C293.764 112.619 294.362 111.484 295.19 110.472C296.018 109.429 296.984 108.617 298.088 108.034C299.223 107.451 300.404 107.16 301.63 107.16C302.152 107.16 302.658 107.206 303.148 107.298C303.639 107.39 304.053 107.497 304.39 107.62L302.642 114.796C302.274 114.612 301.83 114.459 301.308 114.336C300.787 114.183 300.25 114.106 299.698 114.106C298.962 114.106 298.272 114.244 297.628 114.52C297.015 114.765 296.478 115.133 296.018 115.624C295.558 116.084 295.19 116.636 294.914 117.28C294.669 117.924 294.546 118.629 294.546 119.396V132H287.968ZM313.428 124.686L311.496 119.304L322.996 107.666H331.598L313.428 124.686ZM307.218 132V97.96H313.75V132H307.218ZM323.686 132L314.946 121.006L319.546 117.326L331.552 132H323.686Z" fill="#1E1E1E"/>
<path d="M237.506 53.1429C237.506 53.6163 237.891 54 238.365 54H249.906C250.6 54 251.008 54.7766 250.613 55.3451L235.061 77.744C234.581 78.435 233.494 78.0965 233.494 77.2561V62.8572C233.494 62.3838 233.109 62.0001 232.635 62.0001H221.094C220.4 62.0001 219.992 61.2235 220.387 60.6551L235.939 38.2561C236.419 37.5652 237.506 37.9037 237.506 38.744V53.1429Z" fill="#1675FF"/>
</svg>
