<svg width="458" height="56" viewBox="0 0 458 56" fill="none" xmlns="http://www.w3.org/2000/svg">
<path d="M198.194 14V4.2H202.268C202.828 4.2 203.332 4.33533 203.78 4.606C204.237 4.87667 204.601 5.24533 204.872 5.712C205.143 6.17867 205.278 6.70133 205.278 7.28C205.278 7.868 205.143 8.4 204.872 8.876C204.601 9.34267 204.237 9.716 203.78 9.996C203.332 10.276 202.828 10.416 202.268 10.416H200.014V14H198.194ZM200.014 8.736H202.142C202.375 8.736 202.585 8.67067 202.772 8.54C202.968 8.40933 203.122 8.23667 203.234 8.022C203.355 7.80733 203.416 7.56467 203.416 7.294C203.416 7.02333 203.355 6.78533 203.234 6.58C203.122 6.36533 202.968 6.19733 202.772 6.076C202.585 5.94533 202.375 5.88 202.142 5.88H200.014V8.736ZM207.204 14V4.2H211.46C212.048 4.2 212.584 4.34 213.07 4.62C213.555 4.89067 213.938 5.264 214.218 5.74C214.507 6.20667 214.652 6.734 214.652 7.322C214.652 7.882 214.507 8.4 214.218 8.876C213.938 9.34267 213.555 9.716 213.07 9.996C212.594 10.2667 212.057 10.402 211.46 10.402H208.982V14H207.204ZM212.888 14L210.396 9.576L212.272 9.226L215.044 14.014L212.888 14ZM208.982 8.82H211.474C211.744 8.82 211.978 8.75933 212.174 8.638C212.379 8.50733 212.538 8.33 212.65 8.106C212.762 7.882 212.818 7.63467 212.818 7.364C212.818 7.056 212.748 6.79 212.608 6.566C212.468 6.342 212.272 6.16467 212.02 6.034C211.768 5.90333 211.478 5.838 211.152 5.838H208.982V8.82ZM216.671 14V12.39H218.281V5.81H216.671V4.2H221.711V5.81H220.101V12.39H221.711V14H216.671ZM227.987 14.14C227.277 14.14 226.629 14.0187 226.041 13.776C225.453 13.5333 224.944 13.188 224.515 12.74C224.085 12.2827 223.749 11.746 223.507 11.13C223.273 10.5047 223.157 9.82333 223.157 9.086C223.157 8.37667 223.283 7.71867 223.535 7.112C223.787 6.50533 224.137 5.97333 224.585 5.516C225.033 5.05867 225.555 4.704 226.153 4.452C226.75 4.2 227.399 4.074 228.099 4.074C228.575 4.074 229.037 4.144 229.485 4.284C229.933 4.424 230.343 4.62 230.717 4.872C231.09 5.11467 231.403 5.39933 231.655 5.726L230.493 7C230.25 6.748 229.998 6.538 229.737 6.37C229.485 6.19267 229.219 6.062 228.939 5.978C228.668 5.88467 228.388 5.838 228.099 5.838C227.669 5.838 227.263 5.91733 226.881 6.076C226.507 6.23467 226.181 6.45867 225.901 6.748C225.63 7.03733 225.415 7.38267 225.257 7.784C225.098 8.176 225.019 8.61467 225.019 9.1C225.019 9.59467 225.093 10.0427 225.243 10.444C225.401 10.8453 225.621 11.1907 225.901 11.48C226.19 11.7693 226.531 11.9933 226.923 12.152C227.324 12.3013 227.763 12.376 228.239 12.376C228.547 12.376 228.845 12.334 229.135 12.25C229.424 12.166 229.69 12.0493 229.933 11.9C230.185 11.7413 230.413 11.5593 230.619 11.354L231.515 12.796C231.291 13.048 230.992 13.2767 230.619 13.482C230.245 13.6873 229.825 13.8507 229.359 13.972C228.901 14.084 228.444 14.14 227.987 14.14ZM233.105 14V12.39H234.715V5.81H233.105V4.2H238.145V5.81H236.535V12.39H238.145V14H233.105ZM240.467 14V4.2H242.105L247.789 11.858L247.481 11.914C247.444 11.6527 247.411 11.3867 247.383 11.116C247.355 10.836 247.327 10.5467 247.299 10.248C247.281 9.94933 247.262 9.63667 247.243 9.31C247.234 8.98333 247.225 8.64267 247.215 8.288C247.206 7.924 247.201 7.54133 247.201 7.14V4.2H249.007V14H247.341L241.629 6.454L241.993 6.356C242.04 6.87867 242.077 7.32667 242.105 7.7C242.143 8.064 242.171 8.38133 242.189 8.652C242.208 8.91333 242.222 9.13267 242.231 9.31C242.25 9.48733 242.259 9.65067 242.259 9.8C242.269 9.94 242.273 10.0753 242.273 10.206V14H240.467ZM256.089 14.14C255.352 14.14 254.671 14.014 254.045 13.762C253.42 13.5007 252.874 13.1413 252.407 12.684C251.95 12.2267 251.595 11.6947 251.343 11.088C251.091 10.472 250.965 9.80467 250.965 9.086C250.965 8.37667 251.091 7.71867 251.343 7.112C251.605 6.496 251.969 5.964 252.435 5.516C252.902 5.05867 253.448 4.704 254.073 4.452C254.708 4.2 255.389 4.074 256.117 4.074C256.631 4.074 257.125 4.144 257.601 4.284C258.077 4.424 258.507 4.62 258.889 4.872C259.272 5.124 259.589 5.40867 259.841 5.726L258.693 6.93C258.432 6.678 258.161 6.468 257.881 6.3C257.611 6.132 257.326 6.00133 257.027 5.908C256.729 5.81467 256.421 5.768 256.103 5.768C255.637 5.768 255.203 5.852 254.801 6.02C254.409 6.188 254.064 6.42133 253.765 6.72C253.476 7.01867 253.247 7.36867 253.079 7.77C252.911 8.17133 252.827 8.61 252.827 9.086C252.827 9.54333 252.911 9.97733 253.079 10.388C253.257 10.7987 253.499 11.158 253.807 11.466C254.115 11.774 254.47 12.0167 254.871 12.194C255.282 12.362 255.716 12.446 256.173 12.446C256.519 12.446 256.841 12.3947 257.139 12.292C257.438 12.1893 257.704 12.0493 257.937 11.872C258.171 11.6853 258.348 11.4707 258.469 11.228C258.6 10.9853 258.665 10.724 258.665 10.444V10.136L258.917 10.43H256.019V8.806H260.457C260.476 8.90867 260.49 9.02533 260.499 9.156C260.509 9.27733 260.513 9.39867 260.513 9.52C260.523 9.632 260.527 9.73 260.527 9.814C260.527 10.458 260.415 11.046 260.191 11.578C259.967 12.1007 259.65 12.5533 259.239 12.936C258.838 13.3187 258.367 13.6173 257.825 13.832C257.293 14.0373 256.715 14.14 256.089 14.14Z" fill="#1675FF"/>
<path d="M9.05486 49.28C7.84153 49.28 6.73086 49.1307 5.72286 48.832C4.73353 48.5333 3.84686 48.0947 3.06286 47.516C2.29753 46.9373 1.60686 46.2373 0.990864 45.416L3.62286 42.42C4.53753 43.6893 5.44286 44.5573 6.33886 45.024C7.25353 45.472 8.24286 45.696 9.30686 45.696C9.88553 45.696 10.3989 45.6213 10.8469 45.472C11.3135 45.304 11.6775 45.0707 11.9389 44.772C12.2002 44.4733 12.3309 44.1187 12.3309 43.708C12.3309 43.4093 12.2655 43.1387 12.1349 42.896C12.0042 42.6347 11.8175 42.4107 11.5749 42.224C11.3322 42.0187 11.0429 41.8413 10.7069 41.692C10.3709 41.524 9.99753 41.384 9.58686 41.272C9.1762 41.1413 8.7282 41.0387 8.24286 40.964C7.19753 40.7213 6.28286 40.432 5.49886 40.096C4.71486 39.7413 4.06153 39.312 3.53886 38.808C3.0162 38.2853 2.6242 37.6973 2.36286 37.044C2.1202 36.3907 1.99886 35.6533 1.99886 34.832C1.99886 33.992 2.18553 33.2173 2.55886 32.508C2.9322 31.78 3.44553 31.1547 4.09886 30.632C4.77086 30.1093 5.5362 29.708 6.39486 29.428C7.2722 29.148 8.1962 29.008 9.16686 29.008C10.3615 29.008 11.4069 29.148 12.3029 29.428C13.1989 29.6893 13.9735 30.072 14.6269 30.576C15.2989 31.08 15.8589 31.696 16.3069 32.424L13.6469 35C13.2549 34.4773 12.8255 34.0387 12.3589 33.684C11.9109 33.3293 11.4162 33.068 10.8749 32.9C10.3522 32.7133 9.81086 32.62 9.25086 32.62C8.63486 32.62 8.10286 32.704 7.65486 32.872C7.20686 33.0213 6.8522 33.2453 6.59086 33.544C6.3482 33.8427 6.22686 34.2067 6.22686 34.636C6.22686 34.972 6.31086 35.2707 6.47886 35.532C6.64686 35.7933 6.88953 36.0267 7.20686 36.232C7.5242 36.4187 7.90686 36.5867 8.35486 36.736C8.80286 36.8853 9.29753 37.016 9.83886 37.128C10.8655 37.3333 11.7895 37.604 12.6109 37.94C13.4322 38.276 14.1322 38.6867 14.7109 39.172C15.3082 39.6387 15.7655 40.1987 16.0829 40.852C16.4002 41.4867 16.5589 42.2053 16.5589 43.008C16.5589 44.3333 16.2415 45.4627 15.6069 46.396C14.9722 47.3293 14.0949 48.048 12.9749 48.552C11.8549 49.0373 10.5482 49.28 9.05486 49.28ZM26.2709 49.28C24.6656 49.28 23.2656 48.9533 22.0709 48.3C20.8763 47.6467 19.9429 46.7507 19.2709 45.612C18.5989 44.4733 18.2629 43.1667 18.2629 41.692C18.2629 40.5533 18.4496 39.508 18.8229 38.556C19.1963 37.604 19.7189 36.7827 20.3909 36.092C21.0629 35.3827 21.8563 34.8413 22.7709 34.468C23.7043 34.076 24.7123 33.88 25.7949 33.88C26.8029 33.88 27.7363 34.0667 28.5949 34.44C29.4536 34.7947 30.1909 35.308 30.8069 35.98C31.4416 36.6333 31.9269 37.408 32.2629 38.304C32.5989 39.2 32.7483 40.18 32.7109 41.244L32.6829 42.476H20.7829L20.1389 40.04H29.4069L28.9589 40.544V39.928C28.9216 39.424 28.7536 38.9667 28.4549 38.556C28.1749 38.1453 27.8109 37.828 27.3629 37.604C26.9149 37.38 26.4109 37.268 25.8509 37.268C25.0296 37.268 24.3296 37.4267 23.7509 37.744C23.1909 38.0613 22.7616 38.528 22.4629 39.144C22.1643 39.76 22.0149 40.5067 22.0149 41.384C22.0149 42.28 22.2016 43.0547 22.5749 43.708C22.9669 44.3613 23.5083 44.8747 24.1989 45.248C24.9083 45.6027 25.7389 45.78 26.6909 45.78C27.3443 45.78 27.9416 45.6773 28.4829 45.472C29.0243 45.2667 29.6029 44.912 30.2189 44.408L32.1229 47.068C31.5816 47.5533 30.9843 47.964 30.3309 48.3C29.6776 48.6173 29.0056 48.86 28.3149 49.028C27.6243 49.196 26.9429 49.28 26.2709 49.28ZM35.1172 49V28.28H39.0932V49H35.1172ZM49.3228 49.28C47.7175 49.28 46.3175 48.9533 45.1228 48.3C43.9281 47.6467 42.9948 46.7507 42.3228 45.612C41.6508 44.4733 41.3148 43.1667 41.3148 41.692C41.3148 40.5533 41.5015 39.508 41.8748 38.556C42.2481 37.604 42.7708 36.7827 43.4428 36.092C44.1148 35.3827 44.9081 34.8413 45.8228 34.468C46.7561 34.076 47.7641 33.88 48.8468 33.88C49.8548 33.88 50.7881 34.0667 51.6468 34.44C52.5055 34.7947 53.2428 35.308 53.8588 35.98C54.4935 36.6333 54.9788 37.408 55.3148 38.304C55.6508 39.2 55.8001 40.18 55.7628 41.244L55.7348 42.476H43.8348L43.1908 40.04H52.4588L52.0108 40.544V39.928C51.9735 39.424 51.8055 38.9667 51.5068 38.556C51.2268 38.1453 50.8628 37.828 50.4148 37.604C49.9668 37.38 49.4628 37.268 48.9028 37.268C48.0815 37.268 47.3815 37.4267 46.8028 37.744C46.2428 38.0613 45.8135 38.528 45.5148 39.144C45.2161 39.76 45.0668 40.5067 45.0668 41.384C45.0668 42.28 45.2535 43.0547 45.6268 43.708C46.0188 44.3613 46.5601 44.8747 47.2508 45.248C47.9601 45.6027 48.7908 45.78 49.7428 45.78C50.3961 45.78 50.9935 45.6773 51.5348 45.472C52.0761 45.2667 52.6548 44.912 53.2708 44.408L55.1748 47.068C54.6335 47.5533 54.0361 47.964 53.3828 48.3C52.7295 48.6173 52.0575 48.86 51.3668 49.028C50.6761 49.196 49.9948 49.28 49.3228 49.28ZM64.5811 49.28C63.1624 49.28 61.893 48.944 60.773 48.272C59.653 47.6 58.7664 46.6853 58.113 45.528C57.4784 44.3707 57.161 43.0547 57.161 41.58C57.161 40.124 57.4784 38.8173 58.113 37.66C58.7664 36.484 59.653 35.56 60.773 34.888C61.893 34.216 63.1624 33.88 64.5811 33.88C65.9064 33.88 67.1197 34.1227 68.2211 34.608C69.3224 35.0933 70.181 35.7653 70.797 36.624L68.6131 39.256C68.3517 38.9013 68.0251 38.584 67.6331 38.304C67.2411 38.0053 66.8117 37.772 66.3451 37.604C65.897 37.436 65.4304 37.352 64.945 37.352C64.1797 37.352 63.4984 37.5387 62.901 37.912C62.3224 38.2667 61.865 38.7613 61.529 39.396C61.193 40.0307 61.025 40.7587 61.025 41.58C61.025 42.3827 61.193 43.1013 61.529 43.736C61.8837 44.352 62.3597 44.856 62.957 45.248C63.5544 45.6213 64.2264 45.808 64.9731 45.808C65.4584 45.808 65.9157 45.7427 66.3451 45.612C66.7744 45.4627 67.1757 45.248 67.549 44.968C67.9411 44.688 68.2957 44.352 68.6131 43.96L70.769 46.592C70.1344 47.3947 69.2571 48.048 68.1371 48.552C67.0171 49.0373 65.8317 49.28 64.5811 49.28ZM74.1848 49V30.436H78.1608V49H74.1848ZM71.4128 37.744V34.188H81.1848V37.744H71.4128ZM92.6703 49V30.436H96.6463V49H92.6703ZM89.8983 37.744V34.188H99.6703V37.744H89.8983ZM101.702 49V28.28H105.622V37.212L104.838 37.548C105.043 36.876 105.407 36.2693 105.93 35.728C106.471 35.168 107.115 34.72 107.862 34.384C108.608 34.048 109.392 33.88 110.214 33.88C111.334 33.88 112.267 34.104 113.014 34.552C113.779 35 114.348 35.6813 114.722 36.596C115.114 37.492 115.31 38.6027 115.31 39.928V49H111.334V40.236C111.334 39.564 111.24 39.004 111.054 38.556C110.867 38.108 110.578 37.7813 110.186 37.576C109.812 37.352 109.346 37.2587 108.786 37.296C108.338 37.296 107.918 37.3707 107.526 37.52C107.152 37.6507 106.826 37.8467 106.546 38.108C106.284 38.3693 106.07 38.668 105.902 39.004C105.752 39.34 105.678 39.704 105.678 40.096V49H103.718C103.288 49 102.906 49 102.57 49C102.234 49 101.944 49 101.702 49ZM125.588 49.28C123.982 49.28 122.582 48.9533 121.388 48.3C120.193 47.6467 119.26 46.7507 118.588 45.612C117.916 44.4733 117.58 43.1667 117.58 41.692C117.58 40.5533 117.766 39.508 118.14 38.556C118.513 37.604 119.036 36.7827 119.708 36.092C120.38 35.3827 121.173 34.8413 122.088 34.468C123.021 34.076 124.029 33.88 125.112 33.88C126.12 33.88 127.053 34.0667 127.912 34.44C128.77 34.7947 129.508 35.308 130.124 35.98C130.758 36.6333 131.244 37.408 131.58 38.304C131.916 39.2 132.065 40.18 132.028 41.244L132 42.476H120.1L119.456 40.04H128.724L128.276 40.544V39.928C128.238 39.424 128.07 38.9667 127.772 38.556C127.492 38.1453 127.128 37.828 126.68 37.604C126.232 37.38 125.728 37.268 125.168 37.268C124.346 37.268 123.646 37.4267 123.068 37.744C122.508 38.0613 122.078 38.528 121.78 39.144C121.481 39.76 121.332 40.5067 121.332 41.384C121.332 42.28 121.518 43.0547 121.892 43.708C122.284 44.3613 122.825 44.8747 123.516 45.248C124.225 45.6027 125.056 45.78 126.008 45.78C126.661 45.78 127.258 45.6773 127.8 45.472C128.341 45.2667 128.92 44.912 129.536 44.408L131.44 47.068C130.898 47.5533 130.301 47.964 129.648 48.3C128.994 48.6173 128.322 48.86 127.632 49.028C126.941 49.196 126.26 49.28 125.588 49.28ZM142.432 55.16V34.188H146.268L146.38 37.52L145.652 37.268C145.783 36.6707 146.1 36.12 146.604 35.616C147.127 35.112 147.771 34.7013 148.536 34.384C149.301 34.0667 150.104 33.908 150.944 33.908C152.232 33.908 153.371 34.244 154.36 34.916C155.368 35.5693 156.161 36.4747 156.74 37.632C157.337 38.7707 157.636 40.0867 157.636 41.58C157.636 43.0547 157.347 44.3707 156.768 45.528C156.189 46.6853 155.396 47.6 154.388 48.272C153.38 48.9253 152.232 49.252 150.944 49.252C150.085 49.252 149.264 49.0933 148.48 48.776C147.715 48.44 147.061 48.0013 146.52 47.46C145.979 46.9187 145.643 46.34 145.512 45.724L146.436 45.332V55.16H142.432ZM150.048 45.836C150.776 45.836 151.42 45.6587 151.98 45.304C152.54 44.9493 152.979 44.4547 153.296 43.82C153.613 43.1667 153.772 42.42 153.772 41.58C153.772 40.74 153.613 40.0027 153.296 39.368C152.979 38.7333 152.54 38.2387 151.98 37.884C151.439 37.5293 150.795 37.352 150.048 37.352C149.301 37.352 148.648 37.5293 148.088 37.884C147.528 38.22 147.089 38.7147 146.772 39.368C146.455 40.0027 146.296 40.74 146.296 41.58C146.296 42.42 146.455 43.1667 146.772 43.82C147.089 44.4547 147.528 44.9493 148.088 45.304C148.648 45.6587 149.301 45.836 150.048 45.836ZM160.111 49V28.28H164.087V49H160.111ZM172.833 49.28C171.601 49.28 170.49 48.944 169.501 48.272C168.511 47.6 167.727 46.6853 167.149 45.528C166.57 44.3707 166.281 43.0453 166.281 41.552C166.281 40.0587 166.57 38.7427 167.149 37.604C167.746 36.4467 168.549 35.5413 169.557 34.888C170.565 34.216 171.713 33.88 173.001 33.88C173.729 33.88 174.391 33.992 174.989 34.216C175.605 34.4213 176.137 34.7107 176.585 35.084C177.051 35.4573 177.443 35.8867 177.761 36.372C178.078 36.8573 178.302 37.38 178.433 37.94L177.593 37.8V34.188H181.541V49H177.537V45.444L178.433 45.36C178.283 45.8827 178.041 46.3773 177.705 46.844C177.369 47.3107 176.949 47.7307 176.445 48.104C175.959 48.4587 175.409 48.748 174.793 48.972C174.177 49.1773 173.523 49.28 172.833 49.28ZM173.925 45.836C174.671 45.836 175.325 45.6587 175.885 45.304C176.445 44.9493 176.874 44.4547 177.173 43.82C177.49 43.1667 177.649 42.4107 177.649 41.552C177.649 40.712 177.49 39.9747 177.173 39.34C176.874 38.7053 176.445 38.2107 175.885 37.856C175.325 37.4827 174.671 37.296 173.925 37.296C173.197 37.296 172.553 37.4827 171.993 37.856C171.451 38.2107 171.022 38.7053 170.705 39.34C170.387 39.9747 170.229 40.712 170.229 41.552C170.229 42.4107 170.387 43.1667 170.705 43.82C171.022 44.4547 171.451 44.9493 171.993 45.304C172.553 45.6587 173.197 45.836 173.925 45.836ZM184.967 49V34.188H188.775L188.887 37.212L188.103 37.548C188.308 36.876 188.672 36.2693 189.195 35.728C189.736 35.168 190.38 34.72 191.127 34.384C191.874 34.048 192.658 33.88 193.479 33.88C194.599 33.88 195.532 34.104 196.279 34.552C197.044 35 197.614 35.6813 197.987 36.596C198.379 37.492 198.575 38.6027 198.575 39.928V49H194.599V40.236C194.599 39.564 194.506 39.004 194.319 38.556C194.132 38.108 193.843 37.7813 193.451 37.576C193.078 37.352 192.611 37.2587 192.051 37.296C191.603 37.296 191.183 37.3707 190.791 37.52C190.418 37.6507 190.091 37.8467 189.811 38.108C189.55 38.3693 189.335 38.668 189.167 39.004C189.018 39.34 188.943 39.704 188.943 40.096V49H186.983C186.554 49 186.171 49 185.835 49C185.499 49 185.21 49 184.967 49ZM211.279 49V30.436H215.255V49H211.279ZM208.507 37.744V34.188H218.279V37.744H208.507ZM220.31 49V28.28H224.23V37.212L223.446 37.548C223.652 36.876 224.016 36.2693 224.538 35.728C225.08 35.168 225.724 34.72 226.47 34.384C227.217 34.048 228.001 33.88 228.822 33.88C229.942 33.88 230.876 34.104 231.622 34.552C232.388 35 232.957 35.6813 233.33 36.596C233.722 37.492 233.918 38.6027 233.918 39.928V49H229.942V40.236C229.942 39.564 229.849 39.004 229.662 38.556C229.476 38.108 229.186 37.7813 228.794 37.576C228.421 37.352 227.954 37.2587 227.394 37.296C226.946 37.296 226.526 37.3707 226.134 37.52C225.761 37.6507 225.434 37.8467 225.154 38.108C224.893 38.3693 224.678 38.668 224.51 39.004C224.361 39.34 224.286 39.704 224.286 40.096V49H222.326C221.897 49 221.514 49 221.178 49C220.842 49 220.553 49 220.31 49ZM242.712 49.28C241.48 49.28 240.37 48.944 239.38 48.272C238.391 47.6 237.607 46.6853 237.028 45.528C236.45 44.3707 236.16 43.0453 236.16 41.552C236.16 40.0587 236.45 38.7427 237.028 37.604C237.626 36.4467 238.428 35.5413 239.436 34.888C240.444 34.216 241.592 33.88 242.88 33.88C243.608 33.88 244.271 33.992 244.868 34.216C245.484 34.4213 246.016 34.7107 246.464 35.084C246.931 35.4573 247.323 35.8867 247.64 36.372C247.958 36.8573 248.182 37.38 248.312 37.94L247.472 37.8V34.188H251.42V49H247.416V45.444L248.312 45.36C248.163 45.8827 247.92 46.3773 247.584 46.844C247.248 47.3107 246.828 47.7307 246.324 48.104C245.839 48.4587 245.288 48.748 244.672 48.972C244.056 49.1773 243.403 49.28 242.712 49.28ZM243.804 45.836C244.551 45.836 245.204 45.6587 245.764 45.304C246.324 44.9493 246.754 44.4547 247.052 43.82C247.37 43.1667 247.528 42.4107 247.528 41.552C247.528 40.712 247.37 39.9747 247.052 39.34C246.754 38.7053 246.324 38.2107 245.764 37.856C245.204 37.4827 244.551 37.296 243.804 37.296C243.076 37.296 242.432 37.4827 241.872 37.856C241.331 38.2107 240.902 38.7053 240.584 39.34C240.267 39.9747 240.108 40.712 240.108 41.552C240.108 42.4107 240.267 43.1667 240.584 43.82C240.902 44.4547 241.331 44.9493 241.872 45.304C242.432 45.6587 243.076 45.836 243.804 45.836ZM256.275 49V30.436H260.251V49H256.275ZM253.503 37.744V34.188H263.275V37.744H253.503ZM278.316 49.28C276.935 49.28 275.703 49.056 274.62 48.608C273.556 48.1413 272.697 47.5067 272.044 46.704L274.508 44.576C275.087 45.192 275.731 45.64 276.44 45.92C277.149 46.1813 277.859 46.312 278.568 46.312C278.848 46.312 279.1 46.284 279.324 46.228C279.567 46.1533 279.772 46.06 279.94 45.948C280.108 45.8173 280.229 45.668 280.304 45.5C280.397 45.3133 280.444 45.1173 280.444 44.912C280.444 44.5013 280.276 44.1747 279.94 43.932C279.753 43.8387 279.464 43.7267 279.072 43.596C278.68 43.4467 278.176 43.288 277.56 43.12C276.608 42.8773 275.796 42.5973 275.124 42.28C274.471 41.944 273.948 41.5707 273.556 41.16C273.22 40.768 272.959 40.348 272.772 39.9C272.604 39.4333 272.52 38.92 272.52 38.36C272.52 37.688 272.669 37.0813 272.968 36.54C273.267 35.98 273.677 35.504 274.2 35.112C274.741 34.72 275.357 34.4213 276.048 34.216C276.739 33.992 277.467 33.88 278.232 33.88C278.997 33.88 279.744 33.9733 280.472 34.16C281.2 34.3467 281.872 34.6173 282.488 34.972C283.123 35.308 283.673 35.7093 284.14 36.176L282.012 38.528C281.676 38.2107 281.293 37.9213 280.864 37.66C280.453 37.3987 280.024 37.1933 279.576 37.044C279.128 36.8947 278.727 36.82 278.372 36.82C278.055 36.82 277.765 36.848 277.504 36.904C277.261 36.96 277.056 37.044 276.888 37.156C276.72 37.268 276.589 37.4173 276.496 37.604C276.421 37.772 276.384 37.9587 276.384 38.164C276.384 38.3693 276.431 38.5653 276.524 38.752C276.636 38.9387 276.785 39.0973 276.972 39.228C277.177 39.34 277.476 39.4707 277.868 39.62C278.279 39.7693 278.829 39.9373 279.52 40.124C280.416 40.3667 281.172 40.6373 281.788 40.936C282.423 41.2347 282.927 41.58 283.3 41.972C283.617 42.308 283.851 42.6907 284 43.12C284.149 43.5493 284.224 44.0253 284.224 44.548C284.224 45.4627 283.963 46.284 283.44 47.012C282.936 47.7213 282.236 48.2813 281.34 48.692C280.444 49.084 279.436 49.28 278.316 49.28ZM291.595 49.28C290.512 49.28 289.579 49.0467 288.795 48.58C288.029 48.0947 287.432 47.4133 287.003 46.536C286.592 45.64 286.387 44.5667 286.387 43.316V34.188H290.363V42.672C290.363 43.344 290.475 43.932 290.699 44.436C290.923 44.9213 291.24 45.2947 291.651 45.556C292.061 45.8173 292.565 45.948 293.163 45.948C293.592 45.948 293.993 45.8827 294.367 45.752C294.74 45.6027 295.057 45.3973 295.319 45.136C295.58 44.8747 295.785 44.5667 295.935 44.212C296.084 43.8573 296.159 43.4747 296.159 43.064V34.188H300.135V49H296.355L296.215 45.948L296.943 45.612C296.719 46.3027 296.345 46.928 295.823 47.488C295.3 48.048 294.675 48.4867 293.947 48.804C293.219 49.1213 292.435 49.28 291.595 49.28ZM303.911 49V34.188H307.887V49H303.911ZM305.871 31.136C305.106 31.136 304.509 30.9493 304.079 30.576C303.65 30.2027 303.435 29.6707 303.435 28.98C303.435 28.3453 303.65 27.832 304.079 27.44C304.527 27.0293 305.125 26.824 305.871 26.824C306.637 26.824 307.234 27.02 307.663 27.412C308.093 27.7853 308.307 28.308 308.307 28.98C308.307 29.6333 308.083 30.156 307.635 30.548C307.206 30.94 306.618 31.136 305.871 31.136ZM313.002 49V30.436H316.978V49H313.002ZM310.23 37.744V34.188H320.002V37.744H310.23ZM327.564 49.28C326.183 49.28 324.951 49.056 323.868 48.608C322.804 48.1413 321.946 47.5067 321.292 46.704L323.756 44.576C324.335 45.192 324.979 45.64 325.688 45.92C326.398 46.1813 327.107 46.312 327.816 46.312C328.096 46.312 328.348 46.284 328.572 46.228C328.815 46.1533 329.02 46.06 329.188 45.948C329.356 45.8173 329.478 45.668 329.552 45.5C329.646 45.3133 329.692 45.1173 329.692 44.912C329.692 44.5013 329.524 44.1747 329.188 43.932C329.002 43.8387 328.712 43.7267 328.32 43.596C327.928 43.4467 327.424 43.288 326.808 43.12C325.856 42.8773 325.044 42.5973 324.372 42.28C323.719 41.944 323.196 41.5707 322.804 41.16C322.468 40.768 322.207 40.348 322.02 39.9C321.852 39.4333 321.768 38.92 321.768 38.36C321.768 37.688 321.918 37.0813 322.216 36.54C322.515 35.98 322.926 35.504 323.448 35.112C323.99 34.72 324.606 34.4213 325.296 34.216C325.987 33.992 326.715 33.88 327.48 33.88C328.246 33.88 328.992 33.9733 329.72 34.16C330.448 34.3467 331.12 34.6173 331.736 34.972C332.371 35.308 332.922 35.7093 333.388 36.176L331.26 38.528C330.924 38.2107 330.542 37.9213 330.112 37.66C329.702 37.3987 329.272 37.1933 328.824 37.044C328.376 36.8947 327.975 36.82 327.62 36.82C327.303 36.82 327.014 36.848 326.752 36.904C326.51 36.96 326.304 37.044 326.136 37.156C325.968 37.268 325.838 37.4173 325.744 37.604C325.67 37.772 325.632 37.9587 325.632 38.164C325.632 38.3693 325.679 38.5653 325.772 38.752C325.884 38.9387 326.034 39.0973 326.22 39.228C326.426 39.34 326.724 39.4707 327.116 39.62C327.527 39.7693 328.078 39.9373 328.768 40.124C329.664 40.3667 330.42 40.6373 331.036 40.936C331.671 41.2347 332.175 41.58 332.548 41.972C332.866 42.308 333.099 42.6907 333.248 43.12C333.398 43.5493 333.472 44.0253 333.472 44.548C333.472 45.4627 333.211 46.284 332.688 47.012C332.184 47.7213 331.484 48.2813 330.588 48.692C329.692 49.084 328.684 49.28 327.564 49.28ZM345.845 55.44L349.093 47.824L349.149 50.12L341.925 34.188H346.433L350.045 42.728C350.194 43.0453 350.334 43.4187 350.465 43.848C350.614 44.2587 350.735 44.66 350.829 45.052L350.157 45.332C350.269 45.0147 350.399 44.6507 350.549 44.24C350.698 43.8293 350.847 43.3907 350.997 42.924L354.105 34.188H358.641L352.425 49L349.877 55.44H345.845ZM366.835 49.28C365.323 49.28 363.97 48.9533 362.775 48.3C361.599 47.628 360.666 46.7133 359.975 45.556C359.303 44.3987 358.967 43.0733 358.967 41.58C358.967 40.0867 359.303 38.7707 359.975 37.632C360.666 36.4747 361.599 35.56 362.775 34.888C363.97 34.216 365.323 33.88 366.835 33.88C368.329 33.88 369.663 34.216 370.839 34.888C372.034 35.56 372.967 36.4747 373.639 37.632C374.311 38.7707 374.647 40.0867 374.647 41.58C374.647 43.0733 374.311 44.3987 373.639 45.556C372.967 46.7133 372.034 47.628 370.839 48.3C369.663 48.9533 368.329 49.28 366.835 49.28ZM366.835 45.808C367.563 45.808 368.217 45.6307 368.795 45.276C369.374 44.9027 369.822 44.3987 370.139 43.764C370.475 43.1107 370.643 42.3827 370.643 41.58C370.643 40.7587 370.475 40.0307 370.139 39.396C369.822 38.7427 369.374 38.2387 368.795 37.884C368.217 37.5107 367.563 37.324 366.835 37.324C366.089 37.324 365.426 37.5107 364.847 37.884C364.269 38.2573 363.811 38.7613 363.475 39.396C363.139 40.0307 362.981 40.7587 362.999 41.58C362.981 42.3827 363.139 43.1107 363.475 43.764C363.811 44.3987 364.269 44.9027 364.847 45.276C365.426 45.6307 366.089 45.808 366.835 45.808ZM382.175 49.28C381.092 49.28 380.159 49.0467 379.375 48.58C378.609 48.0947 378.012 47.4133 377.583 46.536C377.172 45.64 376.967 44.5667 376.967 43.316V34.188H380.943V42.672C380.943 43.344 381.055 43.932 381.279 44.436C381.503 44.9213 381.82 45.2947 382.231 45.556C382.641 45.8173 383.145 45.948 383.743 45.948C384.172 45.948 384.573 45.8827 384.947 45.752C385.32 45.6027 385.637 45.3973 385.899 45.136C386.16 44.8747 386.365 44.5667 386.515 44.212C386.664 43.8573 386.739 43.4747 386.739 43.064V34.188H390.715V49H386.935L386.795 45.948L387.523 45.612C387.299 46.3027 386.925 46.928 386.403 47.488C385.88 48.048 385.255 48.4867 384.527 48.804C383.799 49.1213 383.015 49.28 382.175 49.28ZM410.721 49.28C410.068 49.28 409.433 49.1867 408.817 49C408.201 48.8133 407.641 48.5613 407.137 48.244C406.633 47.908 406.213 47.5347 405.877 47.124C405.541 46.6947 405.327 46.256 405.233 45.808L406.129 45.472L405.933 48.944H402.181V28.28H406.157V37.66L405.401 37.352C405.513 36.904 405.728 36.4747 406.045 36.064C406.363 35.6347 406.764 35.2613 407.249 34.944C407.735 34.608 408.267 34.3467 408.845 34.16C409.424 33.9733 410.021 33.88 410.637 33.88C411.925 33.88 413.073 34.216 414.081 34.888C415.089 35.5413 415.883 36.4467 416.461 37.604C417.059 38.7613 417.357 40.0867 417.357 41.58C417.357 43.0733 417.068 44.3987 416.489 45.556C415.911 46.7133 415.117 47.628 414.109 48.3C413.12 48.9533 411.991 49.28 410.721 49.28ZM409.769 45.892C410.516 45.892 411.16 45.7147 411.701 45.36C412.261 44.9867 412.7 44.4827 413.017 43.848C413.335 43.1947 413.493 42.4387 413.493 41.58C413.493 40.74 413.335 39.9933 413.017 39.34C412.719 38.6867 412.289 38.1827 411.729 37.828C411.169 37.4733 410.516 37.296 409.769 37.296C409.023 37.296 408.369 37.4733 407.809 37.828C407.249 38.1827 406.811 38.6867 406.493 39.34C406.176 39.9933 406.017 40.74 406.017 41.58C406.017 42.4387 406.176 43.1947 406.493 43.848C406.811 44.4827 407.249 44.9867 407.809 45.36C408.369 45.7147 409.023 45.892 409.769 45.892ZM426.833 49.28C425.227 49.28 423.827 48.9533 422.633 48.3C421.438 47.6467 420.505 46.7507 419.833 45.612C419.161 44.4733 418.825 43.1667 418.825 41.692C418.825 40.5533 419.011 39.508 419.385 38.556C419.758 37.604 420.281 36.7827 420.953 36.092C421.625 35.3827 422.418 34.8413 423.333 34.468C424.266 34.076 425.274 33.88 426.357 33.88C427.365 33.88 428.298 34.0667 429.157 34.44C430.015 34.7947 430.753 35.308 431.369 35.98C432.003 36.6333 432.489 37.408 432.825 38.304C433.161 39.2 433.31 40.18 433.273 41.244L433.245 42.476H421.345L420.701 40.04H429.969L429.521 40.544V39.928C429.483 39.424 429.315 38.9667 429.017 38.556C428.737 38.1453 428.373 37.828 427.925 37.604C427.477 37.38 426.973 37.268 426.413 37.268C425.591 37.268 424.891 37.4267 424.313 37.744C423.753 38.0613 423.323 38.528 423.025 39.144C422.726 39.76 422.577 40.5067 422.577 41.384C422.577 42.28 422.763 43.0547 423.137 43.708C423.529 44.3613 424.07 44.8747 424.761 45.248C425.47 45.6027 426.301 45.78 427.253 45.78C427.906 45.78 428.503 45.6773 429.045 45.472C429.586 45.2667 430.165 44.912 430.781 44.408L432.685 47.068C432.143 47.5533 431.546 47.964 430.893 48.3C430.239 48.6173 429.567 48.86 428.877 49.028C428.186 49.196 427.505 49.28 426.833 49.28ZM440.635 49.28C439.254 49.28 438.022 49.056 436.939 48.608C435.875 48.1413 435.016 47.5067 434.363 46.704L436.827 44.576C437.406 45.192 438.05 45.64 438.759 45.92C439.468 46.1813 440.178 46.312 440.887 46.312C441.167 46.312 441.419 46.284 441.643 46.228C441.886 46.1533 442.091 46.06 442.259 45.948C442.427 45.8173 442.548 45.668 442.623 45.5C442.716 45.3133 442.763 45.1173 442.763 44.912C442.763 44.5013 442.595 44.1747 442.259 43.932C442.072 43.8387 441.783 43.7267 441.391 43.596C440.999 43.4467 440.495 43.288 439.879 43.12C438.927 42.8773 438.115 42.5973 437.443 42.28C436.79 41.944 436.267 41.5707 435.875 41.16C435.539 40.768 435.278 40.348 435.091 39.9C434.923 39.4333 434.839 38.92 434.839 38.36C434.839 37.688 434.988 37.0813 435.287 36.54C435.586 35.98 435.996 35.504 436.519 35.112C437.06 34.72 437.676 34.4213 438.367 34.216C439.058 33.992 439.786 33.88 440.551 33.88C441.316 33.88 442.063 33.9733 442.791 34.16C443.519 34.3467 444.191 34.6173 444.807 34.972C445.442 35.308 445.992 35.7093 446.459 36.176L444.331 38.528C443.995 38.2107 443.612 37.9213 443.183 37.66C442.772 37.3987 442.343 37.1933 441.895 37.044C441.447 36.8947 441.046 36.82 440.691 36.82C440.374 36.82 440.084 36.848 439.823 36.904C439.58 36.96 439.375 37.044 439.207 37.156C439.039 37.268 438.908 37.4173 438.815 37.604C438.74 37.772 438.703 37.9587 438.703 38.164C438.703 38.3693 438.75 38.5653 438.843 38.752C438.955 38.9387 439.104 39.0973 439.291 39.228C439.496 39.34 439.795 39.4707 440.187 39.62C440.598 39.7693 441.148 39.9373 441.839 40.124C442.735 40.3667 443.491 40.6373 444.107 40.936C444.742 41.2347 445.246 41.58 445.619 41.972C445.936 42.308 446.17 42.6907 446.319 43.12C446.468 43.5493 446.543 44.0253 446.543 44.548C446.543 45.4627 446.282 46.284 445.759 47.012C445.255 47.7213 444.555 48.2813 443.659 48.692C442.763 49.084 441.755 49.28 440.635 49.28ZM450.246 49V30.436H454.222V49H450.246ZM447.474 37.744V34.188H457.246V37.744H447.474Z" fill="#1E1E1E"/>
</svg>
