<svg width="561" height="65" viewBox="0 0 561 65" fill="none" xmlns="http://www.w3.org/2000/svg">
<rect width="561" height="65" rx="10.3553" fill="#1E1E1E" fill-opacity="0.01"/>
<rect x="0.438578" y="0.438578" width="560.123" height="64.1228" rx="9.91673" stroke="#1E1E1E" stroke-opacity="0.05" stroke-width="0.877155"/>
<rect x="18.0533" y="8" width="123" height="49" rx="10.3553" fill="#1675FF" fill-opacity="0.1"/>
<path d="M60.8233 39.5V37.4994H62.824V29.3228H60.8233V27.3222H67.0862V29.3228H65.0856V37.4994H67.0862V39.5H60.8233ZM69.6241 39.5V27.3222H74.6866C75.3825 27.3222 76.0088 27.4903 76.5655 27.8267C77.1338 28.163 77.5861 28.6211 77.9224 29.201C78.2588 29.7809 78.427 30.4304 78.427 31.1495C78.427 31.8802 78.2588 32.5412 77.9224 33.1327C77.5861 33.7126 77.1338 34.1765 76.5655 34.5245C76.0088 34.8724 75.3825 35.0464 74.6866 35.0464H71.8857V39.5H69.6241ZM71.8857 32.9588H74.53C74.82 32.9588 75.0809 32.8776 75.3129 32.7152C75.5565 32.5528 75.7478 32.3383 75.887 32.0715C76.0378 31.8048 76.1132 31.5032 76.1132 31.1669C76.1132 30.8305 76.0378 30.5348 75.887 30.2796C75.7478 30.0129 75.5565 29.8041 75.3129 29.6533C75.0809 29.491 74.82 29.4098 74.53 29.4098H71.8857V32.9588ZM83.1993 39.5L79.3372 30.3318H81.6683L84.2779 37.1862L83.8256 37.308L86.5743 30.3318H88.8533L84.7998 39.5H83.1993ZM93.8111 39.5C93.1964 39.5 92.6223 39.3898 92.0888 39.1695C91.5669 38.9491 91.1088 38.6476 90.7145 38.2648C90.3317 37.8705 90.0302 37.4124 89.8098 36.8905C89.5895 36.3686 89.4793 35.7945 89.4793 35.1682C89.4793 34.8202 89.5199 34.4491 89.6011 34.0548C89.6939 33.6604 89.8272 33.2429 90.0012 32.8022C90.1868 32.3499 90.4013 31.8802 90.6449 31.393C90.8884 30.9059 91.1726 30.3956 91.4973 29.8621L93.1152 27.1134H95.2725L95.3421 27.2874L93.2718 30.6972C92.9355 31.2539 92.6397 31.7816 92.3846 32.2803C92.1294 32.7674 91.9091 33.2371 91.7235 33.6894C91.5495 34.1302 91.4045 34.5593 91.2886 34.9768L90.8189 33.3937C90.9928 33.0226 91.2074 32.6862 91.4625 32.3847C91.7177 32.0831 92.0018 31.828 92.315 31.6192C92.6281 31.4104 92.9529 31.2539 93.2892 31.1495C93.6372 31.0451 93.9909 30.9929 94.3504 30.9929C95.0231 30.9929 95.6436 31.1785 96.2119 31.5496C96.7802 31.9091 97.2325 32.3905 97.5689 32.9936C97.9168 33.5966 98.0908 34.2577 98.0908 34.9768C98.0908 35.8466 97.9052 36.6237 97.5341 37.308C97.1745 37.9807 96.67 38.5142 96.0205 38.9085C95.371 39.3028 94.6346 39.5 93.8111 39.5ZM93.8285 37.5168C94.246 37.5168 94.6172 37.4182 94.9419 37.221C95.2783 37.0238 95.5392 36.7513 95.7248 36.4034C95.9103 36.0438 96.0031 35.6321 96.0031 35.1682C96.0031 34.7738 95.9046 34.4085 95.7074 34.0722C95.5218 33.7242 95.2667 33.4459 94.9419 33.2371C94.6172 33.0168 94.2518 32.9066 93.8459 32.9066C93.4052 32.9066 93.0109 33.011 92.6629 33.2197C92.3266 33.4169 92.0598 33.6894 91.8627 34.0374C91.6771 34.3737 91.5843 34.7506 91.5843 35.1682C91.5843 35.6089 91.6771 36.009 91.8627 36.3686C92.0598 36.7165 92.3266 36.9948 92.6629 37.2036C92.9993 37.4124 93.3878 37.5168 93.8285 37.5168Z" fill="#1675FF"/>
<path d="M168.153 39.5V27.3222H173.042C173.923 27.3222 174.718 27.4671 175.425 27.7571C176.144 28.047 176.759 28.4646 177.269 29.0097C177.791 29.5548 178.185 30.1985 178.452 30.9407C178.73 31.683 178.87 32.5064 178.87 33.4111C178.87 34.3157 178.73 35.145 178.452 35.8988C178.185 36.6411 177.797 37.2848 177.286 37.8299C176.776 38.3634 176.161 38.7751 175.442 39.0651C174.723 39.355 173.923 39.5 173.042 39.5H168.153ZM170.415 37.7429L170.241 37.4124H172.955C173.523 37.4124 174.027 37.3196 174.468 37.134C174.92 36.9485 175.303 36.6817 175.616 36.3338C175.93 35.9858 176.167 35.5683 176.33 35.0812C176.492 34.5825 176.573 34.0258 176.573 33.4111C176.573 32.7964 176.492 32.2455 176.33 31.7584C176.167 31.2597 175.924 30.8363 175.599 30.4884C175.286 30.1405 174.909 29.8737 174.468 29.6881C174.027 29.5026 173.523 29.4098 172.955 29.4098H170.189L170.415 29.114V37.7429ZM184.051 39.674C183.297 39.674 182.613 39.4652 181.998 39.0477C181.383 38.6302 180.891 38.0619 180.519 37.3428C180.148 36.6237 179.963 35.8061 179.963 34.8898C179.963 33.9736 180.148 33.1559 180.519 32.4369C180.891 31.7178 181.395 31.1553 182.033 30.7494C182.671 30.3434 183.39 30.1405 184.19 30.1405C184.654 30.1405 185.077 30.21 185.46 30.3492C185.843 30.4768 186.179 30.6624 186.469 30.9059C186.759 31.1495 186.997 31.4278 187.182 31.741C187.38 32.0541 187.513 32.3905 187.583 32.75L187.113 32.6282V30.3318H189.27V39.5H187.095V37.308L187.6 37.221C187.519 37.5341 187.368 37.8415 187.148 38.143C186.939 38.433 186.672 38.6939 186.347 38.9259C186.034 39.1463 185.681 39.326 185.286 39.4652C184.903 39.6044 184.492 39.674 184.051 39.674ZM184.643 37.7777C185.141 37.7777 185.582 37.6559 185.965 37.4124C186.347 37.1688 186.643 36.8325 186.852 36.4034C187.072 35.9626 187.182 35.4581 187.182 34.8898C187.182 34.3331 187.072 33.8402 186.852 33.4111C186.643 32.982 186.347 32.6456 185.965 32.4021C185.582 32.1585 185.141 32.0367 184.643 32.0367C184.144 32.0367 183.703 32.1585 183.32 32.4021C182.949 32.6456 182.659 32.982 182.45 33.4111C182.242 33.8402 182.137 34.3331 182.137 34.8898C182.137 35.4581 182.242 35.9626 182.45 36.4034C182.659 36.8325 182.949 37.1688 183.32 37.4124C183.703 37.6559 184.144 37.7777 184.643 37.7777ZM192.395 39.5V28.0006H194.534V39.5H192.395ZM190.585 32.3151V30.3318H196.535V32.3151H190.585ZM201.194 39.674C200.44 39.674 199.756 39.4652 199.141 39.0477C198.526 38.6302 198.033 38.0619 197.662 37.3428C197.291 36.6237 197.105 35.8061 197.105 34.8898C197.105 33.9736 197.291 33.1559 197.662 32.4369C198.033 31.7178 198.538 31.1553 199.176 30.7494C199.814 30.3434 200.533 30.1405 201.333 30.1405C201.797 30.1405 202.22 30.21 202.603 30.3492C202.986 30.4768 203.322 30.6624 203.612 30.9059C203.902 31.1495 204.14 31.4278 204.325 31.741C204.522 32.0541 204.656 32.3905 204.725 32.75L204.256 32.6282V30.3318H206.413V39.5H204.238V37.308L204.743 37.221C204.662 37.5341 204.511 37.8415 204.29 38.143C204.082 38.433 203.815 38.6939 203.49 38.9259C203.177 39.1463 202.823 39.326 202.429 39.4652C202.046 39.6044 201.634 39.674 201.194 39.674ZM201.785 37.7777C202.284 37.7777 202.725 37.6559 203.107 37.4124C203.49 37.1688 203.786 36.8325 203.995 36.4034C204.215 35.9626 204.325 35.4581 204.325 34.8898C204.325 34.3331 204.215 33.8402 203.995 33.4111C203.786 32.982 203.49 32.6456 203.107 32.4021C202.725 32.1585 202.284 32.0367 201.785 32.0367C201.287 32.0367 200.846 32.1585 200.463 32.4021C200.092 32.6456 199.802 32.982 199.593 33.4111C199.384 33.8402 199.28 34.3331 199.28 34.8898C199.28 35.4581 199.384 35.9626 199.593 36.4034C199.802 36.8325 200.092 37.1688 200.463 37.4124C200.846 37.6559 201.287 37.7777 201.785 37.7777ZM212.477 39.674C211.619 39.674 210.848 39.4652 210.164 39.0477C209.479 38.6302 208.94 38.0619 208.546 37.3428C208.151 36.6237 207.954 35.8119 207.954 34.9072C207.954 34.0026 208.151 33.1907 208.546 32.4716C208.94 31.7526 209.479 31.1843 210.164 30.7668C210.848 30.3492 211.619 30.1405 212.477 30.1405C213.301 30.1405 214.049 30.297 214.722 30.6102C215.394 30.9233 215.916 31.3582 216.287 31.9149L215.104 33.3415C214.93 33.0979 214.71 32.8776 214.443 32.6804C214.177 32.4832 213.892 32.3267 213.591 32.2107C213.289 32.0947 212.988 32.0367 212.686 32.0367C212.176 32.0367 211.718 32.1643 211.312 32.4195C210.918 32.663 210.604 33.0052 210.372 33.4459C210.14 33.875 210.024 34.3621 210.024 34.9072C210.024 35.4523 210.14 35.9394 210.372 36.3686C210.616 36.7977 210.941 37.1398 211.347 37.395C211.753 37.6501 212.205 37.7777 212.704 37.7777C213.005 37.7777 213.295 37.7313 213.573 37.6385C213.863 37.5341 214.136 37.3892 214.391 37.2036C214.646 37.018 214.884 36.7861 215.104 36.5077L216.287 37.9517C215.893 38.462 215.348 38.8795 214.652 39.2043C213.968 39.5174 213.243 39.674 212.477 39.674ZM221.873 39.674C220.91 39.674 220.058 39.471 219.315 39.0651C218.585 38.6591 218.011 38.1082 217.593 37.4124C217.187 36.7049 216.984 35.8988 216.984 34.9942C216.984 34.2751 217.1 33.6198 217.332 33.0283C217.564 32.4369 217.883 31.9265 218.289 31.4974C218.707 31.0567 219.2 30.7204 219.768 30.4884C220.348 30.2448 220.98 30.1231 221.664 30.1231C222.267 30.1231 222.83 30.239 223.352 30.471C223.873 30.703 224.326 31.0219 224.709 31.4278C225.091 31.8222 225.381 32.2977 225.578 32.8544C225.787 33.3995 225.886 33.9968 225.874 34.6463L225.857 35.3943H218.428L218.028 33.933H224.065L223.787 34.2287V33.846C223.752 33.4865 223.636 33.1733 223.439 32.9066C223.241 32.6282 222.986 32.4137 222.673 32.2629C222.372 32.1005 222.035 32.0193 221.664 32.0193C221.096 32.0193 220.614 32.1295 220.22 32.3499C219.837 32.5702 219.547 32.8892 219.35 33.3067C219.153 33.7126 219.055 34.2229 219.055 34.8376C219.055 35.4291 219.176 35.9452 219.42 36.386C219.675 36.8267 220.029 37.1688 220.481 37.4124C220.945 37.6443 221.484 37.7603 222.099 37.7603C222.528 37.7603 222.922 37.6907 223.282 37.5515C223.642 37.4124 224.03 37.163 224.448 36.8035L225.509 38.2822C225.196 38.5722 224.836 38.8215 224.43 39.0303C224.036 39.2274 223.618 39.384 223.178 39.5C222.737 39.616 222.302 39.674 221.873 39.674ZM227.421 39.5V30.3318H229.509L229.544 32.2107L229.144 32.4195C229.26 32.0019 229.486 31.625 229.822 31.2887C230.158 30.9407 230.559 30.6624 231.023 30.4536C231.486 30.2448 231.962 30.1405 232.449 30.1405C233.145 30.1405 233.725 30.2796 234.189 30.558C234.664 30.8363 235.018 31.2539 235.25 31.8106C235.494 32.3673 235.615 33.0631 235.615 33.8982V39.5H233.475V34.0548C233.475 33.5908 233.412 33.2081 233.284 32.9066C233.157 32.5934 232.959 32.3673 232.693 32.2281C232.426 32.0773 232.101 32.0077 231.718 32.0193C231.405 32.0193 231.115 32.0715 230.849 32.1759C230.593 32.2687 230.367 32.4079 230.17 32.5934C229.985 32.7674 229.834 32.9704 229.718 33.2023C229.613 33.4343 229.561 33.6894 229.561 33.9678V39.5H228.5C228.291 39.5 228.094 39.5 227.908 39.5C227.735 39.5 227.572 39.5 227.421 39.5ZM238.666 39.5V28.0006H240.806V39.5H238.666ZM236.857 32.3151V30.3318H242.807V32.3151H236.857ZM248.301 39.674C247.338 39.674 246.485 39.471 245.743 39.0651C245.012 38.6591 244.438 38.1082 244.021 37.4124C243.615 36.7049 243.412 35.8988 243.412 34.9942C243.412 34.2751 243.528 33.6198 243.76 33.0283C243.992 32.4369 244.311 31.9265 244.717 31.4974C245.134 31.0567 245.627 30.7204 246.195 30.4884C246.775 30.2448 247.407 30.1231 248.092 30.1231C248.695 30.1231 249.257 30.239 249.779 30.471C250.301 30.703 250.753 31.0219 251.136 31.4278C251.519 31.8222 251.809 32.2977 252.006 32.8544C252.215 33.3995 252.313 33.9968 252.302 34.6463L252.284 35.3943H244.856L244.456 33.933H250.493L250.214 34.2287V33.846C250.179 33.4865 250.063 33.1733 249.866 32.9066C249.669 32.6282 249.414 32.4137 249.101 32.2629C248.799 32.1005 248.463 32.0193 248.092 32.0193C247.523 32.0193 247.042 32.1295 246.648 32.3499C246.265 32.5702 245.975 32.8892 245.778 33.3067C245.581 33.7126 245.482 34.2229 245.482 34.8376C245.482 35.4291 245.604 35.9452 245.848 36.386C246.103 36.8267 246.456 37.1688 246.909 37.4124C247.373 37.6443 247.912 37.7603 248.527 37.7603C248.956 37.7603 249.35 37.6907 249.71 37.5515C250.069 37.4124 250.458 37.163 250.875 36.8035L251.936 38.2822C251.623 38.5722 251.264 38.8215 250.858 39.0303C250.464 39.2274 250.046 39.384 249.605 39.5C249.165 39.616 248.73 39.674 248.301 39.674ZM253.849 39.5V30.3318H255.954L255.989 33.2545L255.693 32.5934C255.821 32.1295 256.041 31.712 256.354 31.3408C256.667 30.9697 257.027 30.6798 257.433 30.471C257.85 30.2506 258.285 30.1405 258.738 30.1405C258.935 30.1405 259.12 30.1579 259.294 30.1927C259.48 30.2274 259.631 30.268 259.747 30.3144L259.172 32.663C259.045 32.5934 258.888 32.5354 258.703 32.489C258.517 32.4427 258.332 32.4195 258.146 32.4195C257.856 32.4195 257.578 32.4774 257.311 32.5934C257.056 32.6978 256.83 32.8486 256.633 33.0457C256.435 33.2429 256.279 33.4749 256.163 33.7416C256.058 33.9968 256.006 34.2867 256.006 34.6115V39.5H253.849Z" fill="#1E1E1E"/>
<path d="M303.118 39.5V27.3222H308.406C309.137 27.3222 309.804 27.4961 310.407 27.8441C311.01 28.1804 311.485 28.6443 311.833 29.2358C312.193 29.8157 312.373 30.471 312.373 31.2017C312.373 31.8975 312.193 32.5412 311.833 33.1327C311.485 33.7126 311.01 34.1765 310.407 34.5245C309.815 34.8608 309.148 35.029 308.406 35.029H305.327V39.5H303.118ZM310.181 39.5L307.084 34.0026L309.415 33.5677L312.86 39.5174L310.181 39.5ZM305.327 33.0631H308.424C308.76 33.0631 309.05 32.9878 309.293 32.837C309.549 32.6746 309.746 32.4543 309.885 32.1759C310.024 31.8975 310.094 31.5902 310.094 31.2539C310.094 30.8711 310.007 30.5406 309.833 30.2622C309.659 29.9839 309.415 29.7635 309.102 29.6012C308.789 29.4388 308.429 29.3576 308.023 29.3576H305.327V33.0631ZM318.474 39.674C317.512 39.674 316.659 39.471 315.917 39.0651C315.186 38.6591 314.612 38.1082 314.195 37.4124C313.789 36.7049 313.586 35.8988 313.586 34.9942C313.586 34.2751 313.702 33.6198 313.934 33.0283C314.166 32.4369 314.485 31.9265 314.891 31.4974C315.308 31.0567 315.801 30.7204 316.369 30.4884C316.949 30.2448 317.581 30.1231 318.266 30.1231C318.869 30.1231 319.431 30.239 319.953 30.471C320.475 30.703 320.927 31.0219 321.31 31.4278C321.693 31.8222 321.983 32.2977 322.18 32.8544C322.389 33.3995 322.487 33.9968 322.476 34.6463L322.458 35.3943H315.03L314.63 33.933H320.666L320.388 34.2287V33.846C320.353 33.4865 320.237 33.1733 320.04 32.9066C319.843 32.6282 319.588 32.4137 319.275 32.2629C318.973 32.1005 318.637 32.0193 318.266 32.0193C317.697 32.0193 317.216 32.1295 316.822 32.3499C316.439 32.5702 316.149 32.8892 315.952 33.3067C315.755 33.7126 315.656 34.2229 315.656 34.8376C315.656 35.4291 315.778 35.9452 316.021 36.386C316.277 36.8267 316.63 37.1688 317.083 37.4124C317.547 37.6443 318.086 37.7603 318.701 37.7603C319.13 37.7603 319.524 37.6907 319.884 37.5515C320.243 37.4124 320.632 37.163 321.049 36.8035L322.11 38.2822C321.797 38.5722 321.438 38.8215 321.032 39.0303C320.637 39.2274 320.22 39.384 319.779 39.5C319.338 39.616 318.903 39.674 318.474 39.674ZM327.085 39.674C326.273 39.674 325.542 39.5406 324.893 39.2738C324.255 38.9955 323.733 38.6012 323.327 38.0909L324.719 36.8905C325.067 37.2848 325.455 37.5689 325.884 37.7429C326.313 37.9169 326.766 38.0039 327.241 38.0039C327.438 38.0039 327.612 37.9807 327.763 37.9343C327.926 37.8879 328.065 37.8183 328.181 37.7255C328.297 37.6327 328.384 37.5284 328.442 37.4124C328.511 37.2848 328.546 37.1456 328.546 36.9948C328.546 36.7165 328.442 36.4961 328.233 36.3338C328.117 36.2526 327.931 36.1656 327.676 36.0728C327.433 35.98 327.114 35.8872 326.719 35.7945C326.093 35.6321 325.571 35.4465 325.154 35.2378C324.736 35.0174 324.411 34.7738 324.179 34.5071C323.982 34.2867 323.832 34.0374 323.727 33.759C323.634 33.4807 323.588 33.1791 323.588 32.8544C323.588 32.4485 323.675 32.0831 323.849 31.7584C324.034 31.422 324.284 31.1321 324.597 30.8885C324.91 30.645 325.275 30.4594 325.693 30.3318C326.111 30.2043 326.545 30.1405 326.998 30.1405C327.462 30.1405 327.908 30.1985 328.337 30.3144C328.778 30.4304 329.184 30.5986 329.555 30.8189C329.938 31.0277 330.263 31.2829 330.529 31.5844L329.346 32.8892C329.126 32.6804 328.882 32.4948 328.616 32.3325C328.361 32.1701 328.1 32.0425 327.833 31.9497C327.566 31.8454 327.317 31.7932 327.085 31.7932C326.864 31.7932 326.667 31.8164 326.493 31.8628C326.319 31.8976 326.174 31.9555 326.058 32.0367C325.942 32.1179 325.85 32.2223 325.78 32.3499C325.722 32.4658 325.693 32.605 325.693 32.7674C325.705 32.9066 325.739 33.0399 325.797 33.1675C325.867 33.2835 325.96 33.3821 326.076 33.4633C326.203 33.5445 326.395 33.6372 326.65 33.7416C326.905 33.846 327.236 33.9446 327.641 34.0374C328.21 34.1881 328.685 34.3563 329.068 34.5419C329.451 34.7274 329.752 34.942 329.973 35.1856C330.193 35.3943 330.35 35.6379 330.442 35.9162C330.535 36.1946 330.582 36.5019 330.582 36.8383C330.582 37.3834 330.425 37.8705 330.112 38.2996C329.81 38.7287 329.393 39.0651 328.859 39.3086C328.337 39.5522 327.746 39.674 327.085 39.674ZM332.362 39.5V30.3318H334.502V39.5H332.362ZM333.406 28.3834C332.977 28.3834 332.64 28.279 332.397 28.0702C332.165 27.8499 332.049 27.5425 332.049 27.1482C332.049 26.7771 332.171 26.4755 332.414 26.2436C332.658 26.0116 332.988 25.8956 333.406 25.8956C333.847 25.8956 334.183 26.0058 334.415 26.2262C334.659 26.4349 334.78 26.7423 334.78 27.1482C334.78 27.5077 334.659 27.8035 334.415 28.0354C334.171 28.2674 333.835 28.3834 333.406 28.3834ZM340.556 39.674C339.744 39.674 339.013 39.471 338.364 39.0651C337.726 38.6476 337.215 38.0851 336.833 37.3776C336.461 36.6585 336.276 35.8351 336.276 34.9072C336.276 33.991 336.461 33.1733 336.833 32.4543C337.204 31.7352 337.708 31.1727 338.346 30.7668C338.996 30.3492 339.726 30.1405 340.538 30.1405C340.979 30.1405 341.402 30.21 341.808 30.3492C342.226 30.4884 342.597 30.6798 342.922 30.9233C343.246 31.1553 343.501 31.4162 343.687 31.7062C343.884 31.9961 343.994 32.2977 344.018 32.6108L343.443 32.6804V26.6263H345.583V39.5H343.513L343.461 37.3428L343.878 37.3776C343.867 37.6675 343.762 37.9459 343.565 38.2126C343.38 38.4794 343.136 38.7229 342.835 38.9433C342.533 39.1637 342.179 39.3434 341.773 39.4826C341.379 39.6102 340.973 39.674 340.556 39.674ZM340.973 37.8647C341.472 37.8647 341.912 37.7371 342.295 37.482C342.678 37.2268 342.974 36.8789 343.182 36.4381C343.403 35.9974 343.513 35.4871 343.513 34.9072C343.513 34.3389 343.403 33.8344 343.182 33.3937C342.974 32.9414 342.678 32.5934 342.295 32.3499C341.912 32.0947 341.472 31.9671 340.973 31.9671C340.474 31.9671 340.034 32.0947 339.651 32.3499C339.268 32.5934 338.967 32.9414 338.746 33.3937C338.537 33.8344 338.433 34.3389 338.433 34.9072C338.433 35.4871 338.537 35.9974 338.746 36.4381C338.967 36.8789 339.268 37.2268 339.651 37.482C340.034 37.7371 340.474 37.8647 340.973 37.8647ZM351.961 39.674C350.999 39.674 350.146 39.471 349.404 39.0651C348.673 38.6591 348.099 38.1082 347.682 37.4124C347.276 36.7049 347.073 35.8988 347.073 34.9942C347.073 34.2751 347.189 33.6198 347.421 33.0283C347.653 32.4369 347.972 31.9265 348.378 31.4974C348.795 31.0567 349.288 30.7204 349.856 30.4884C350.436 30.2448 351.068 30.1231 351.753 30.1231C352.356 30.1231 352.918 30.239 353.44 30.471C353.962 30.703 354.414 31.0219 354.797 31.4278C355.18 31.8222 355.47 32.2977 355.667 32.8544C355.876 33.3995 355.974 33.9968 355.963 34.6463L355.945 35.3943H348.517L348.117 33.933H354.153L353.875 34.2287V33.846C353.84 33.4865 353.724 33.1733 353.527 32.9066C353.33 32.6282 353.075 32.4137 352.762 32.2629C352.46 32.1005 352.124 32.0193 351.753 32.0193C351.184 32.0193 350.703 32.1295 350.309 32.3499C349.926 32.5702 349.636 32.8892 349.439 33.3067C349.242 33.7126 349.143 34.2229 349.143 34.8376C349.143 35.4291 349.265 35.9452 349.508 36.386C349.764 36.8267 350.117 37.1688 350.57 37.4124C351.034 37.6443 351.573 37.7603 352.188 37.7603C352.617 37.7603 353.011 37.6907 353.371 37.5515C353.73 37.4124 354.119 37.163 354.536 36.8035L355.597 38.2822C355.284 38.5722 354.925 38.8215 354.519 39.0303C354.124 39.2274 353.707 39.384 353.266 39.5C352.825 39.616 352.391 39.674 351.961 39.674ZM357.51 39.5V30.3318H359.598L359.632 32.2107L359.232 32.4195C359.348 32.0019 359.574 31.625 359.911 31.2887C360.247 30.9407 360.647 30.6624 361.111 30.4536C361.575 30.2448 362.05 30.1405 362.538 30.1405C363.233 30.1405 363.813 30.2796 364.277 30.558C364.753 30.8363 365.107 31.2539 365.339 31.8106C365.582 32.3673 365.704 33.0631 365.704 33.8982V39.5H363.564V34.0548C363.564 33.5908 363.5 33.2081 363.373 32.9066C363.245 32.5934 363.048 32.3673 362.781 32.2281C362.514 32.0773 362.19 32.0077 361.807 32.0193C361.494 32.0193 361.204 32.0715 360.937 32.1759C360.682 32.2687 360.456 32.4079 360.259 32.5934C360.073 32.7674 359.922 32.9704 359.806 33.2023C359.702 33.4343 359.65 33.6894 359.65 33.9678V39.5H358.589C358.38 39.5 358.183 39.5 357.997 39.5C357.823 39.5 357.661 39.5 357.51 39.5ZM368.755 39.5V28.0006H370.895V39.5H368.755ZM366.946 32.3151V30.3318H372.895V32.3151H366.946ZM374.421 39.5V30.3318H376.56V39.5H374.421ZM375.464 28.3834C375.035 28.3834 374.699 28.279 374.455 28.0702C374.223 27.8499 374.107 27.5425 374.107 27.1482C374.107 26.7771 374.229 26.4755 374.473 26.2436C374.716 26.0116 375.047 25.8956 375.464 25.8956C375.905 25.8956 376.241 26.0058 376.473 26.2262C376.717 26.4349 376.839 26.7423 376.839 27.1482C376.839 27.5077 376.717 27.8035 376.473 28.0354C376.23 28.2674 375.893 28.3834 375.464 28.3834ZM382.388 39.674C381.634 39.674 380.95 39.4652 380.335 39.0477C379.72 38.6302 379.227 38.0619 378.856 37.3428C378.485 36.6237 378.299 35.8061 378.299 34.8898C378.299 33.9736 378.485 33.1559 378.856 32.4369C379.227 31.7178 379.732 31.1553 380.37 30.7494C381.008 30.3434 381.727 30.1405 382.527 30.1405C382.991 30.1405 383.414 30.21 383.797 30.3492C384.18 30.4768 384.516 30.6624 384.806 30.9059C385.096 31.1495 385.334 31.4278 385.519 31.741C385.716 32.0541 385.85 32.3905 385.919 32.75L385.45 32.6282V30.3318H387.607V39.5H385.432V37.308L385.937 37.221C385.856 37.5341 385.705 37.8415 385.484 38.143C385.276 38.433 385.009 38.6939 384.684 38.9259C384.371 39.1463 384.017 39.326 383.623 39.4652C383.24 39.6044 382.828 39.674 382.388 39.674ZM382.979 37.7777C383.478 37.7777 383.919 37.6559 384.301 37.4124C384.684 37.1688 384.98 36.8325 385.189 36.4034C385.409 35.9626 385.519 35.4581 385.519 34.8898C385.519 34.3331 385.409 33.8402 385.189 33.4111C384.98 32.982 384.684 32.6456 384.301 32.4021C383.919 32.1585 383.478 32.0367 382.979 32.0367C382.481 32.0367 382.04 32.1585 381.657 32.4021C381.286 32.6456 380.996 32.982 380.787 33.4111C380.578 33.8402 380.474 34.3331 380.474 34.8898C380.474 35.4581 380.578 35.9626 380.787 36.4034C380.996 36.8325 381.286 37.1688 381.657 37.4124C382.04 37.6559 382.481 37.7777 382.979 37.7777ZM389.757 39.5V26.6263H391.914V39.5H389.757Z" fill="#1E1E1E"/>
<path d="M442.725 39.5L447.474 27.3222H449.597L454.311 39.5H451.963L449.353 32.576C449.295 32.4369 449.214 32.2165 449.11 31.9149C449.017 31.6134 448.913 31.2887 448.797 30.9407C448.681 30.5812 448.576 30.2506 448.483 29.9491C448.391 29.636 448.321 29.4098 448.275 29.2706L448.71 29.2532C448.64 29.4852 448.559 29.7461 448.466 30.0361C448.373 30.326 448.275 30.6276 448.17 30.9407C448.066 31.2539 447.961 31.5554 447.857 31.8454C447.764 32.1353 447.677 32.3963 447.596 32.6282L444.987 39.5H442.725ZM444.882 36.7165L445.665 34.7506H451.215L452.05 36.7165H444.882ZM457.45 39.5V29.4098H453.971V27.3222H463.296V29.4098H459.712V39.5H457.45ZM472.618 39.5L471.156 37.9691L470.599 37.4124L467.764 34.2809C467.416 33.9098 467.097 33.5445 466.807 33.1849C466.529 32.8138 466.291 32.4601 466.094 32.1237C465.908 31.7874 465.757 31.4626 465.641 31.1495C465.537 30.8363 465.485 30.5406 465.485 30.2622C465.485 29.6591 465.641 29.1198 465.955 28.6443C466.268 28.1688 466.703 27.7977 467.259 27.5309C467.816 27.2526 468.46 27.1134 469.19 27.1134C469.735 27.1134 470.246 27.212 470.721 27.4091C471.197 27.5947 471.603 27.8615 471.939 28.2094C472.287 28.5457 472.536 28.9459 472.687 29.4098L471.034 30.4362C470.826 29.9143 470.576 29.549 470.286 29.3402C469.996 29.1198 469.643 29.0097 469.225 29.0097C468.9 29.0097 468.628 29.0619 468.407 29.1662C468.187 29.259 468.019 29.404 467.903 29.6012C467.787 29.7867 467.729 30.0187 467.729 30.297C467.729 30.5406 467.81 30.8189 467.973 31.1321C468.135 31.4452 468.332 31.7642 468.564 32.0889C468.808 32.4137 469.057 32.7152 469.312 32.9936C469.567 33.2719 469.788 33.5155 469.973 33.7242L472.009 35.9684L472.757 36.7165L475.331 39.5H472.618ZM468.025 39.674C467.178 39.674 466.407 39.5 465.711 39.1521C465.015 38.7925 464.464 38.317 464.058 37.7255C463.652 37.134 463.449 36.4845 463.449 35.7771C463.449 34.884 463.699 34.1012 464.197 33.4285C464.696 32.7558 465.433 32.2397 466.407 31.8802L467.746 33.3415C467.039 33.5039 466.505 33.7648 466.146 34.1244C465.798 34.4723 465.624 34.942 465.624 35.5335C465.624 35.9858 465.734 36.386 465.955 36.7339C466.175 37.0702 466.488 37.337 466.894 37.5341C467.3 37.7197 467.787 37.8125 468.355 37.8125C468.854 37.8125 469.312 37.7139 469.73 37.5168C470.159 37.3196 470.541 37.0412 470.878 36.6817C471.214 36.3106 471.493 35.8698 471.713 35.3595C471.933 34.8492 472.084 34.2867 472.165 33.672H474.131C474.038 34.3911 473.864 35.058 473.609 35.6727C473.366 36.2874 473.058 36.8441 472.687 37.3428C472.328 37.8299 471.91 38.2474 471.435 38.5954C470.959 38.9433 470.437 39.2101 469.869 39.3956C469.301 39.5812 468.686 39.674 468.025 39.674ZM478.433 39.5V29.4098H474.953V27.3222H484.278V29.4098H480.694V39.5H478.433ZM490.549 39.5V37.4994H492.55V29.3228H490.549V27.3222H496.812V29.3228H494.811V37.4994H496.812V39.5H490.549ZM503.212 39.674C502.504 39.674 501.855 39.587 501.263 39.413C500.672 39.2274 500.138 38.9549 499.663 38.5954C499.187 38.2358 498.764 37.8009 498.393 37.2906L499.872 35.6205C500.44 36.4091 500.997 36.9543 501.542 37.2558C502.087 37.5573 502.702 37.7081 503.386 37.7081C503.78 37.7081 504.14 37.6501 504.464 37.5341C504.789 37.4066 505.044 37.2384 505.23 37.0296C505.415 36.8093 505.508 36.5599 505.508 36.2816C505.508 36.0844 505.468 35.9046 505.386 35.7423C505.317 35.5683 505.207 35.4175 505.056 35.2899C504.905 35.1508 504.72 35.0232 504.499 34.9072C504.279 34.7912 504.03 34.6927 503.751 34.6115C503.473 34.5303 503.165 34.4549 502.829 34.3853C502.191 34.2577 501.635 34.0896 501.159 33.8808C500.684 33.6604 500.283 33.3937 499.959 33.0805C499.634 32.7558 499.396 32.3963 499.245 32.0019C499.095 31.596 499.019 31.1379 499.019 30.6276C499.019 30.1173 499.129 29.6475 499.35 29.2184C499.582 28.7893 499.895 28.4182 500.289 28.105C500.684 27.7919 501.142 27.5483 501.664 27.3744C502.185 27.2004 502.748 27.1134 503.351 27.1134C504.035 27.1134 504.644 27.1946 505.178 27.357C505.723 27.5193 506.198 27.7629 506.604 28.0876C507.022 28.4008 507.364 28.7835 507.631 29.2358L506.135 30.7146C505.903 30.355 505.642 30.0593 505.352 29.8273C505.062 29.5838 504.749 29.404 504.412 29.288C504.076 29.1604 503.722 29.0966 503.351 29.0966C502.934 29.0966 502.568 29.1546 502.255 29.2706C501.954 29.3866 501.716 29.5548 501.542 29.7751C501.368 29.9839 501.281 30.239 501.281 30.5406C501.281 30.7725 501.333 30.9813 501.437 31.1669C501.542 31.3408 501.687 31.4974 501.872 31.6366C502.069 31.7758 502.319 31.8975 502.62 32.0019C502.922 32.1063 503.264 32.1991 503.647 32.2803C504.285 32.4079 504.859 32.5818 505.369 32.8022C505.879 33.011 506.314 33.2661 506.674 33.5677C507.033 33.8576 507.306 34.1939 507.492 34.5767C507.677 34.9478 507.77 35.3653 507.77 35.8293C507.77 36.6295 507.579 37.3196 507.196 37.8995C506.825 38.4678 506.297 38.9085 505.613 39.2216C504.928 39.5232 504.128 39.674 503.212 39.674ZM509.909 39.5V27.3222H514.971C515.667 27.3222 516.294 27.4903 516.85 27.8267C517.419 28.163 517.871 28.6211 518.207 29.201C518.544 29.7809 518.712 30.4304 518.712 31.1495C518.712 31.8802 518.544 32.5412 518.207 33.1327C517.871 33.7126 517.419 34.1765 516.85 34.5245C516.294 34.8724 515.667 35.0464 514.971 35.0464H512.17V39.5H509.909ZM512.17 32.9588H514.815C515.105 32.9588 515.366 32.8776 515.598 32.7152C515.841 32.5528 516.033 32.3383 516.172 32.0715C516.323 31.8048 516.398 31.5032 516.398 31.1669C516.398 30.8305 516.323 30.5348 516.172 30.2796C516.033 30.0129 515.841 29.8041 515.598 29.6533C515.366 29.491 515.105 29.4098 514.815 29.4098H512.17V32.9588Z" fill="#1E1E1E"/>
</svg>
