<svg width="321" height="72" viewBox="0 0 321 72" fill="none" xmlns="http://www.w3.org/2000/svg">
<rect y="0.32666" width="321" height="71.5139" rx="8.64646" fill="#5865F2"/>
<path d="M44.5633 28.77C44.5633 28.77 41.7681 26.5819 38.4683 26.332L38.1709 26.9275C41.1538 27.6583 42.5227 28.703 43.9538 29.989C41.4872 28.7298 39.0535 27.551 34.8114 27.551C30.5693 27.551 28.1356 28.7298 25.669 29.989C27.1001 28.703 28.7286 27.5413 31.4519 26.9275L31.1544 26.332C27.6925 26.6581 25.0595 28.77 25.0595 28.77C25.0595 28.77 21.9383 33.2961 21.4025 42.1789C24.5475 45.8072 29.3259 45.8358 29.3259 45.8358L30.3255 44.5047C28.6287 43.9147 26.7149 42.8621 25.0595 40.9599C27.033 42.4531 30.0116 44.0073 34.8114 44.0073C39.6112 44.0073 42.5897 42.4531 44.5633 40.9599C42.9085 42.8621 40.9947 43.9147 39.2973 44.5047L40.2968 45.8358C40.2968 45.8358 45.0753 45.8072 48.2202 42.1789C47.6845 33.2961 44.5633 28.77 44.5633 28.77ZM30.8497 39.7409C29.6709 39.7409 28.7165 38.6499 28.7165 37.3029C28.7165 35.9559 29.6709 34.8649 30.8497 34.8649C32.0284 34.8649 32.9829 35.9559 32.9829 37.3029C32.9829 38.6499 32.0284 39.7409 30.8497 39.7409ZM38.7731 39.7409C37.5943 39.7409 36.6399 38.6499 36.6399 37.3029C36.6399 35.9559 37.5943 34.8649 38.7731 34.8649C39.9519 34.8649 40.9063 35.9559 40.9063 37.3029C40.9063 38.6499 39.9519 39.7409 38.7731 39.7409Z" fill="white"/>
<path d="M65.6567 21.2263H67.5682V28.7065C67.5648 29.3921 67.4193 29.9826 67.1319 30.4778C66.8445 30.9696 66.4428 31.3488 65.9268 31.6154C65.4142 31.8786 64.8169 32.0102 64.1346 32.0102C63.5113 32.0102 62.9503 31.8994 62.4516 31.6777C61.9564 31.4526 61.5633 31.1202 61.2725 30.6804C60.9816 30.2406 60.8361 29.6934 60.8361 29.0389H62.7529C62.7564 29.3263 62.8187 29.574 62.9399 29.7817C63.0646 29.9895 63.236 30.1488 63.4542 30.2596C63.6723 30.3704 63.9234 30.4259 64.2074 30.4259C64.5156 30.4259 64.777 30.3618 64.9917 30.2337C65.2065 30.1021 65.3692 29.9081 65.48 29.6519C65.5943 29.3956 65.6532 29.0805 65.6567 28.7065V21.2263ZM72.7637 32.0206C71.9845 32.0206 71.3093 31.8492 70.7379 31.5063C70.1665 31.1635 69.7232 30.6839 69.408 30.0674C69.0964 29.451 68.9405 28.7307 68.9405 27.9065C68.9405 27.0823 69.0964 26.3603 69.408 25.7404C69.7232 25.1205 70.1665 24.6391 70.7379 24.2963C71.3093 23.9534 71.9845 23.782 72.7637 23.782C73.5429 23.782 74.2182 23.9534 74.7896 24.2963C75.361 24.6391 75.8025 25.1205 76.1142 25.7404C76.4293 26.3603 76.5869 27.0823 76.5869 27.9065C76.5869 28.7307 76.4293 29.451 76.1142 30.0674C75.8025 30.6839 75.361 31.1635 74.7896 31.5063C74.2182 31.8492 73.5429 32.0206 72.7637 32.0206ZM72.7741 30.5142C73.1966 30.5142 73.5498 30.3982 73.8338 30.1661C74.1178 29.9306 74.329 29.6155 74.4675 29.2207C74.6095 28.8259 74.6805 28.3861 74.6805 27.9013C74.6805 27.413 74.6095 26.9715 74.4675 26.5767C74.329 26.1784 74.1178 25.8616 73.8338 25.6261C73.5498 25.3906 73.1966 25.2729 72.7741 25.2729C72.3412 25.2729 71.9811 25.3906 71.6937 25.6261C71.4097 25.8616 71.1967 26.1784 71.0547 26.5767C70.9162 26.9715 70.8469 27.413 70.8469 27.9013C70.8469 28.3861 70.9162 28.8259 71.0547 29.2207C71.1967 29.6155 71.4097 29.9306 71.6937 30.1661C71.9811 30.3982 72.3412 30.5142 72.7741 30.5142ZM77.8904 31.8647V23.8859H79.7708V31.8647H77.8904ZM78.8358 22.7535C78.538 22.7535 78.2817 22.6548 78.067 22.4574C77.8523 22.2566 77.7449 22.0159 77.7449 21.7354C77.7449 21.4514 77.8523 21.2107 78.067 21.0133C78.2817 20.8125 78.538 20.7121 78.8358 20.7121C79.1371 20.7121 79.3933 20.8125 79.6046 21.0133C79.8193 21.2107 79.9266 21.4514 79.9266 21.7354C79.9266 22.0159 79.8193 22.2566 79.6046 22.4574C79.3933 22.6548 79.1371 22.7535 78.8358 22.7535ZM83.2924 27.1897V31.8647H81.4119V23.8859H83.2092V25.2417H83.3027C83.4863 24.795 83.7789 24.44 84.1806 24.1768C84.5858 23.9136 85.0862 23.782 85.6818 23.782C86.2325 23.782 86.7121 23.8998 87.1207 24.1353C87.5328 24.3707 87.8514 24.7119 88.0765 25.1586C88.3051 25.6053 88.4176 26.1473 88.4142 26.7845V31.8647H86.5337V27.0754C86.5337 26.5421 86.3952 26.1248 86.1182 25.8235C85.8446 25.5222 85.4654 25.3716 84.9806 25.3716C84.6516 25.3716 84.359 25.4443 84.1027 25.5897C83.8499 25.7317 83.6508 25.9378 83.5053 26.2079C83.3633 26.478 83.2924 26.8053 83.2924 27.1897ZM102.958 26.5455C102.958 27.6918 102.743 28.6736 102.314 29.4908C101.888 30.3047 101.306 30.928 100.569 31.3609C99.8345 31.7938 99.0017 32.0102 98.0701 32.0102C97.1386 32.0102 96.304 31.7938 95.5663 31.3609C94.8322 30.9245 94.2504 30.2995 93.821 29.4856C93.395 28.6684 93.182 27.6883 93.182 26.5455C93.182 25.3993 93.395 24.4192 93.821 23.6054C94.2504 22.7881 94.8322 22.1631 95.5663 21.7302C96.304 21.2973 97.1386 21.0809 98.0701 21.0809C99.0017 21.0809 99.8345 21.2973 100.569 21.7302C101.306 22.1631 101.888 22.7881 102.314 23.6054C102.743 24.4192 102.958 25.3993 102.958 26.5455ZM101.021 26.5455C101.021 25.7386 100.894 25.0582 100.641 24.5041C100.392 23.9465 100.046 23.5258 99.6025 23.2418C99.1592 22.9544 98.6484 22.8106 98.0701 22.8106C97.4918 22.8106 96.981 22.9544 96.5377 23.2418C96.0945 23.5258 95.7464 23.9465 95.4936 24.5041C95.2443 25.0582 95.1196 25.7386 95.1196 26.5455C95.1196 27.3524 95.2443 28.0346 95.4936 28.5922C95.7464 29.1463 96.0945 29.567 96.5377 29.8545C96.981 30.1384 97.4918 30.2804 98.0701 30.2804C98.6484 30.2804 99.1592 30.1384 99.6025 29.8545C100.046 29.567 100.392 29.1463 100.641 28.5922C100.894 28.0346 101.021 27.3524 101.021 26.5455ZM109.49 28.5091V23.8859H111.37V31.8647H109.547V30.4466H109.464C109.284 30.8934 108.988 31.2587 108.576 31.5427C108.167 31.8267 107.663 31.9686 107.064 31.9686C106.541 31.9686 106.079 31.8526 105.677 31.6206C105.279 31.3851 104.967 31.044 104.742 30.5973C104.517 30.1471 104.405 29.6034 104.405 28.9662V23.8859H106.285V28.6753C106.285 29.1809 106.423 29.5826 106.7 29.8804C106.978 30.1782 107.341 30.3272 107.791 30.3272C108.068 30.3272 108.337 30.2596 108.597 30.1246C108.856 29.9895 109.069 29.7887 109.235 29.522C109.405 29.2519 109.49 28.9142 109.49 28.5091ZM113.012 31.8647V23.8859H114.835V25.2157H114.918C115.063 24.7551 115.313 24.4002 115.666 24.1508C116.023 23.898 116.43 23.7716 116.887 23.7716C116.991 23.7716 117.107 23.7768 117.235 23.7872C117.366 23.7941 117.475 23.8063 117.562 23.8236V25.5534C117.482 25.5257 117.356 25.5014 117.183 25.4806C117.013 25.4564 116.849 25.4443 116.689 25.4443C116.346 25.4443 116.038 25.5187 115.765 25.6676C115.494 25.8131 115.282 26.0157 115.126 26.2754C114.97 26.5351 114.892 26.8347 114.892 27.1741V31.8647H113.012ZM125.543 31.8647H121.938V21.2263H125.615C126.672 21.2263 127.579 21.4393 128.337 21.8652C129.099 22.2877 129.684 22.8955 130.093 23.6885C130.502 24.4816 130.706 25.4304 130.706 26.5351C130.706 27.6433 130.5 28.5956 130.088 29.3921C129.679 30.1886 129.089 30.7999 128.317 31.2258C127.548 31.6518 126.623 31.8647 125.543 31.8647ZM123.865 30.1973H125.449C126.19 30.1973 126.808 30.0622 127.304 29.7921C127.799 29.5185 128.171 29.1116 128.42 28.5714C128.67 28.0277 128.794 27.349 128.794 26.5351C128.794 25.7213 128.67 25.046 128.42 24.5093C128.171 23.969 127.802 23.5656 127.314 23.2989C126.829 23.0288 126.227 22.8938 125.506 22.8938H123.865V30.1973ZM132.161 31.8647V23.8859H134.042V31.8647H132.161ZM133.107 22.7535C132.809 22.7535 132.553 22.6548 132.338 22.4574C132.123 22.2566 132.016 22.0159 132.016 21.7354C132.016 21.4514 132.123 21.2107 132.338 21.0133C132.553 20.8125 132.809 20.7121 133.107 20.7121C133.408 20.7121 133.664 20.8125 133.876 21.0133C134.09 21.2107 134.198 21.4514 134.198 21.7354C134.198 22.0159 134.09 22.2566 133.876 22.4574C133.664 22.6548 133.408 22.7535 133.107 22.7535ZM141.989 25.9949L140.275 26.1819C140.226 26.0088 140.142 25.846 140.02 25.6936C139.903 25.5412 139.743 25.4183 139.543 25.3248C139.342 25.2313 139.096 25.1846 138.805 25.1846C138.414 25.1846 138.085 25.2694 137.818 25.4391C137.555 25.6088 137.425 25.8287 137.428 26.0988C137.425 26.3308 137.51 26.5196 137.683 26.665C137.859 26.8105 138.15 26.9299 138.556 27.0234L139.917 27.3143C140.671 27.4771 141.232 27.7351 141.6 28.0883C141.97 28.4415 142.157 28.9039 142.161 29.4753C142.157 29.9774 142.01 30.4207 141.719 30.8051C141.432 31.186 141.032 31.4838 140.519 31.6985C140.007 31.9132 139.418 32.0206 138.753 32.0206C137.776 32.0206 136.99 31.8163 136.395 31.4076C135.799 30.9955 135.444 30.4224 135.33 29.6882L137.163 29.5116C137.247 29.8718 137.423 30.1436 137.693 30.3272C137.963 30.5107 138.315 30.6025 138.748 30.6025C139.194 30.6025 139.553 30.5107 139.823 30.3272C140.097 30.1436 140.233 29.9168 140.233 29.6467C140.233 29.4181 140.145 29.2294 139.968 29.0805C139.795 28.9316 139.525 28.8173 139.158 28.7376L137.797 28.4519C137.032 28.2926 136.466 28.0242 136.099 27.6468C135.731 27.2658 135.55 26.7845 135.553 26.2027C135.55 25.7109 135.683 25.285 135.953 24.9248C136.227 24.5612 136.606 24.2807 137.091 24.0833C137.579 23.8825 138.142 23.782 138.779 23.782C139.714 23.782 140.45 23.9812 140.987 24.3794C141.527 24.7777 141.861 25.3162 141.989 25.9949ZM146.899 32.0206C146.102 32.0206 145.418 31.8457 144.847 31.4959C144.279 31.1462 143.841 30.6631 143.533 30.0467C143.228 29.4268 143.076 28.7134 143.076 27.9065C143.076 27.0962 143.232 26.381 143.543 25.7612C143.855 25.1378 144.295 24.653 144.863 24.3067C145.434 23.9569 146.109 23.782 146.889 23.782C147.536 23.782 148.109 23.9015 148.608 24.1405C149.11 24.3759 149.51 24.7101 149.808 25.143C150.106 25.5724 150.275 26.0746 150.317 26.6494H148.52C148.447 26.265 148.274 25.9447 148 25.6884C147.73 25.4287 147.368 25.2988 146.915 25.2988C146.53 25.2988 146.192 25.4027 145.902 25.6105C145.611 25.8148 145.384 26.1092 145.221 26.4936C145.062 26.878 144.982 27.3386 144.982 27.8753C144.982 28.419 145.062 28.8865 145.221 29.2779C145.38 29.6657 145.604 29.9653 145.891 30.1765C146.182 30.3843 146.523 30.4882 146.915 30.4882C147.192 30.4882 147.439 30.4362 147.657 30.3324C147.879 30.225 148.064 30.0709 148.213 29.87C148.362 29.6692 148.464 29.425 148.52 29.1376H150.317C150.272 29.7021 150.106 30.2025 149.818 30.6388C149.531 31.0717 149.14 31.4111 148.644 31.657C148.149 31.8994 147.567 32.0206 146.899 32.0206ZM155.049 32.0206C154.27 32.0206 153.594 31.8492 153.023 31.5063C152.452 31.1635 152.008 30.6839 151.693 30.0674C151.381 29.451 151.226 28.7307 151.226 27.9065C151.226 27.0823 151.381 26.3603 151.693 25.7404C152.008 25.1205 152.452 24.6391 153.023 24.2963C153.594 23.9534 154.27 23.782 155.049 23.782C155.828 23.782 156.503 23.9534 157.075 24.2963C157.646 24.6391 158.088 25.1205 158.399 25.7404C158.714 26.3603 158.872 27.0823 158.872 27.9065C158.872 28.7307 158.714 29.451 158.399 30.0674C158.088 30.6839 157.646 31.1635 157.075 31.5063C156.503 31.8492 155.828 32.0206 155.049 32.0206ZM155.059 30.5142C155.482 30.5142 155.835 30.3982 156.119 30.1661C156.403 29.9306 156.614 29.6155 156.753 29.2207C156.895 28.8259 156.966 28.3861 156.966 27.9013C156.966 27.413 156.895 26.9715 156.753 26.5767C156.614 26.1784 156.403 25.8616 156.119 25.6261C155.835 25.3906 155.482 25.2729 155.059 25.2729C154.626 25.2729 154.266 25.3906 153.979 25.6261C153.695 25.8616 153.482 26.1784 153.34 26.5767C153.201 26.9715 153.132 27.413 153.132 27.9013C153.132 28.3861 153.201 28.8259 153.34 29.2207C153.482 29.6155 153.695 29.9306 153.979 30.1661C154.266 30.3982 154.626 30.5142 155.059 30.5142ZM160.175 31.8647V23.8859H161.999V25.2157H162.082C162.227 24.7551 162.477 24.4002 162.83 24.1508C163.187 23.898 163.593 23.7716 164.051 23.7716C164.154 23.7716 164.27 23.7768 164.399 23.7872C164.53 23.7941 164.639 23.8063 164.726 23.8236V25.5534C164.646 25.5257 164.52 25.5014 164.347 25.4806C164.177 25.4564 164.013 25.4443 163.853 25.4443C163.51 25.4443 163.202 25.5187 162.929 25.6676C162.658 25.8131 162.445 26.0157 162.29 26.2754C162.134 26.5351 162.056 26.8347 162.056 27.1741V31.8647H160.175ZM168.315 32.005C167.688 32.005 167.127 31.844 166.632 31.5219C166.137 31.1998 165.745 30.7323 165.458 30.1194C165.171 29.5064 165.027 28.7619 165.027 27.8857C165.027 26.9992 165.172 26.2512 165.463 25.6417C165.758 25.0287 166.154 24.5664 166.653 24.2547C167.151 23.9396 167.707 23.782 168.32 23.782C168.788 23.782 169.172 23.8617 169.473 24.021C169.775 24.1768 170.014 24.3655 170.19 24.5872C170.367 24.8054 170.504 25.0114 170.601 25.2053H170.678V21.2263H172.564V31.8647H170.715V30.6077H170.601C170.504 30.8016 170.363 31.0076 170.18 31.2258C169.996 31.4405 169.754 31.6241 169.453 31.7764C169.151 31.9288 168.772 32.005 168.315 32.005ZM168.84 30.4622C169.238 30.4622 169.577 30.3549 169.858 30.1402C170.138 29.922 170.351 29.619 170.497 29.2311C170.642 28.8433 170.715 28.3913 170.715 27.8753C170.715 27.3593 170.642 26.9109 170.497 26.5299C170.355 26.149 170.143 25.8529 169.863 25.6417C169.586 25.4304 169.245 25.3248 168.84 25.3248C168.421 25.3248 168.071 25.4339 167.79 25.6521C167.51 25.8702 167.299 26.1715 167.157 26.5559C167.015 26.9403 166.944 27.3801 166.944 27.8753C166.944 28.374 167.015 28.819 167.157 29.2103C167.302 29.5982 167.515 29.9047 167.795 30.1298C168.079 30.3514 168.427 30.4622 168.84 30.4622ZM186.8 24.8157H184.858C184.802 24.4971 184.7 24.2149 184.551 23.969C184.402 23.7197 184.217 23.5084 183.995 23.3353C183.774 23.1621 183.521 23.0323 183.237 22.9457C182.956 22.8557 182.653 22.8106 182.328 22.8106C181.749 22.8106 181.237 22.9561 180.79 23.247C180.344 23.5344 179.994 23.9569 179.741 24.5145C179.488 25.0685 179.362 25.7456 179.362 26.5455C179.362 27.3593 179.488 28.045 179.741 28.6026C179.997 29.1567 180.347 29.5757 180.79 29.8597C181.237 30.1402 181.748 30.2804 182.323 30.2804C182.641 30.2804 182.939 30.2389 183.216 30.1557C183.497 30.0692 183.748 29.9428 183.969 29.7765C184.194 29.6103 184.383 29.406 184.536 29.1636C184.691 28.9212 184.799 28.6441 184.858 28.3325L186.8 28.3428C186.728 28.8484 186.57 29.3229 186.328 29.7661C186.089 30.2094 185.775 30.6007 185.387 30.9401C185 31.276 184.546 31.5392 184.026 31.7297C183.507 31.9167 182.93 32.0102 182.297 32.0102C181.362 32.0102 180.527 31.7938 179.793 31.3609C179.059 30.928 178.48 30.3029 178.058 29.4856C177.635 28.6684 177.424 27.6883 177.424 26.5455C177.424 25.3993 177.637 24.4192 178.063 23.6054C178.489 22.7881 179.069 22.1631 179.803 21.7302C180.537 21.2973 181.369 21.0809 182.297 21.0809C182.889 21.0809 183.439 21.164 183.949 21.3302C184.458 21.4964 184.911 21.7406 185.309 22.0626C185.708 22.3812 186.035 22.7726 186.291 23.2366C186.551 23.6972 186.721 24.2236 186.8 24.8157ZM190.07 27.1897V31.8647H188.19V21.2263H190.028V25.2417H190.122C190.309 24.7915 190.598 24.4365 190.989 24.1768C191.384 23.9136 191.886 23.782 192.496 23.782C193.05 23.782 193.533 23.898 193.945 24.1301C194.357 24.3621 194.676 24.7015 194.901 25.1482C195.129 25.5949 195.244 26.1404 195.244 26.7845V31.8647H193.363V27.0754C193.363 26.5386 193.225 26.1213 192.948 25.8235C192.674 25.5222 192.29 25.3716 191.795 25.3716C191.462 25.3716 191.164 25.4443 190.901 25.5897C190.641 25.7317 190.437 25.9378 190.288 26.2079C190.143 26.478 190.07 26.8053 190.07 27.1897ZM199.164 32.0258C198.658 32.0258 198.203 31.9357 197.798 31.7557C197.396 31.5721 197.077 31.302 196.842 30.9453C196.61 30.5886 196.494 30.1488 196.494 29.6259C196.494 29.1757 196.577 28.8034 196.743 28.5091C196.909 28.2147 197.136 27.9792 197.424 27.8026C197.711 27.626 198.035 27.4927 198.395 27.4026C198.759 27.3091 199.134 27.2416 199.522 27.2C199.99 27.1516 200.369 27.1083 200.66 27.0702C200.951 27.0286 201.162 26.9663 201.294 26.8832C201.429 26.7966 201.496 26.6633 201.496 26.4832V26.452C201.496 26.0607 201.38 25.7577 201.148 25.543C200.916 25.3283 200.582 25.2209 200.146 25.2209C199.685 25.2209 199.32 25.3213 199.05 25.5222C198.783 25.7231 198.603 25.9603 198.509 26.2339L196.754 25.9845C196.892 25.4997 197.121 25.0945 197.439 24.769C197.758 24.44 198.148 24.1941 198.608 24.0314C199.069 23.8651 199.578 23.782 200.135 23.782C200.52 23.782 200.902 23.827 201.283 23.9171C201.664 24.0071 202.012 24.156 202.327 24.3638C202.643 24.5681 202.895 24.8469 203.086 25.2001C203.28 25.5534 203.377 25.9949 203.377 26.5247V31.8647H201.569V30.7687H201.507C201.392 30.9903 201.231 31.1981 201.024 31.392C200.819 31.5825 200.561 31.7366 200.25 31.8544C199.941 31.9686 199.579 32.0258 199.164 32.0258ZM199.652 30.644C200.03 30.644 200.357 30.5696 200.634 30.4207C200.911 30.2683 201.124 30.0674 201.273 29.8181C201.425 29.5688 201.501 29.2969 201.501 29.0025V28.0623C201.443 28.1108 201.342 28.1558 201.2 28.1974C201.062 28.239 200.906 28.2753 200.733 28.3065C200.56 28.3376 200.388 28.3654 200.218 28.3896C200.049 28.4138 199.902 28.4346 199.777 28.4519C199.496 28.49 199.245 28.5524 199.024 28.6389C198.802 28.7255 198.627 28.8467 198.499 29.0025C198.371 29.1549 198.307 29.3523 198.307 29.5947C198.307 29.941 198.433 30.2025 198.686 30.3791C198.939 30.5557 199.261 30.644 199.652 30.644ZM206.855 27.1897V31.8647H204.975V23.8859H206.772V25.2417H206.866C207.049 24.795 207.342 24.44 207.744 24.1768C208.149 23.9136 208.649 23.782 209.245 23.782C209.796 23.782 210.275 23.8998 210.684 24.1353C211.096 24.3707 211.414 24.7119 211.64 25.1586C211.868 25.6053 211.981 26.1473 211.977 26.7845V31.8647H210.097V27.0754C210.097 26.5421 209.958 26.1248 209.681 25.8235C209.408 25.5222 209.028 25.3716 208.544 25.3716C208.215 25.3716 207.922 25.4443 207.666 25.5897C207.413 25.7317 207.214 25.9378 207.068 26.2079C206.926 26.478 206.855 26.8053 206.855 27.1897ZM215.477 27.1897V31.8647H213.596V23.8859H215.394V25.2417H215.487C215.671 24.795 215.963 24.44 216.365 24.1768C216.77 23.9136 217.271 23.782 217.866 23.782C218.417 23.782 218.896 23.8998 219.305 24.1353C219.717 24.3707 220.036 24.7119 220.261 25.1586C220.489 25.6053 220.602 26.1473 220.599 26.7845V31.8647H218.718V27.0754C218.718 26.5421 218.58 26.1248 218.303 25.8235C218.029 25.5222 217.65 25.3716 217.165 25.3716C216.836 25.3716 216.543 25.4443 216.287 25.5897C216.034 25.7317 215.835 25.9378 215.69 26.2079C215.548 26.478 215.477 26.8053 215.477 27.1897ZM225.75 32.0206C224.95 32.0206 224.259 31.8544 223.677 31.5219C223.099 31.186 222.654 30.7116 222.342 30.0986C222.031 29.4822 221.875 28.7567 221.875 27.9221C221.875 27.1013 222.031 26.381 222.342 25.7612C222.657 25.1378 223.097 24.653 223.662 24.3067C224.226 23.9569 224.889 23.782 225.651 23.782C226.143 23.782 226.607 23.8617 227.043 24.021C227.483 24.1768 227.871 24.4192 228.207 24.7482C228.546 25.0772 228.813 25.4962 229.007 26.0053C229.201 26.5109 229.298 27.1135 229.298 27.813V28.3896H222.758V27.1221H227.495C227.492 26.762 227.414 26.4416 227.261 26.1611C227.109 25.8772 226.896 25.6538 226.623 25.491C226.352 25.3283 226.037 25.2469 225.677 25.2469C225.293 25.2469 224.955 25.3404 224.664 25.5274C224.373 25.7109 224.146 25.9533 223.984 26.2546C223.824 26.5525 223.743 26.8797 223.74 27.2364V28.3428C223.74 28.8069 223.824 29.2051 223.994 29.5376C224.164 29.8666 224.401 30.1194 224.706 30.296C225.01 30.4691 225.367 30.5557 225.776 30.5557C226.049 30.5557 226.297 30.5176 226.519 30.4414C226.74 30.3618 226.932 30.2458 227.095 30.0934C227.258 29.941 227.381 29.7523 227.464 29.5272L229.22 29.7246C229.109 30.1886 228.898 30.5938 228.586 30.9401C228.278 31.283 227.883 31.5496 227.402 31.7401C226.92 31.9271 226.37 32.0206 225.75 32.0206ZM232.476 21.2263V31.8647H230.596V21.2263H232.476Z" fill="white"/>
<path opacity="0.75" d="M69.3032 44.9215H67.8626C67.8072 44.6137 67.7041 44.3428 67.5532 44.1089C67.4024 43.8749 67.2177 43.6764 66.9992 43.5132C66.7806 43.3501 66.5359 43.2269 66.265 43.1438C65.9972 43.0607 65.7124 43.0192 65.4108 43.0192C64.8659 43.0192 64.378 43.1561 63.9471 43.4301C63.5192 43.7041 63.1806 44.1058 62.9312 44.6352C62.685 45.1647 62.5619 45.8111 62.5619 46.5745C62.5619 47.3441 62.685 47.9936 62.9312 48.5231C63.1806 49.0525 63.5207 49.4527 63.9517 49.7236C64.3826 49.9945 64.8675 50.1299 65.4062 50.1299C65.7047 50.1299 65.9879 50.0899 66.2558 50.0099C66.5266 49.9268 66.7714 49.8052 66.9899 49.6451C67.2085 49.485 67.3932 49.2896 67.544 49.0587C67.6979 48.8247 67.8041 48.5569 67.8626 48.2553L69.3032 48.2599C69.2263 48.7247 69.077 49.1526 68.8553 49.5435C68.6368 49.9314 68.3551 50.2669 68.0104 50.5501C67.6687 50.8302 67.2777 51.0472 66.8375 51.2012C66.3974 51.3551 65.9171 51.432 65.3969 51.432C64.5781 51.432 63.8486 51.2381 63.2083 50.8502C62.568 50.4593 62.0632 49.9006 61.6938 49.1741C61.3275 48.4477 61.1443 47.5811 61.1443 46.5745C61.1443 45.5649 61.329 44.6983 61.6984 43.975C62.0678 43.2485 62.5726 42.6913 63.2129 42.3035C63.8532 41.9125 64.5812 41.7171 65.3969 41.7171C65.8987 41.7171 66.3666 41.7894 66.8006 41.9341C67.2377 42.0757 67.6302 42.285 67.978 42.562C68.3259 42.836 68.6137 43.1715 68.8415 43.5686C69.0693 43.9626 69.2232 44.4136 69.3032 44.9215ZM72.0202 41.8463V51.3027H70.6396V41.8463H72.0202ZM73.6175 51.3027V44.2104H74.9981V51.3027H73.6175ZM74.3147 43.1161C74.0746 43.1161 73.8684 43.0361 73.696 42.876C73.5267 42.7129 73.4421 42.5189 73.4421 42.2942C73.4421 42.0664 73.5267 41.8725 73.696 41.7124C73.8684 41.5493 74.0746 41.4677 74.3147 41.4677C74.5548 41.4677 74.7595 41.5493 74.9289 41.7124C75.1012 41.8725 75.1874 42.0664 75.1874 42.2942C75.1874 42.5189 75.1012 42.7129 74.9289 42.876C74.7595 43.0361 74.5548 43.1161 74.3147 43.1161ZM79.5828 51.4459C78.8964 51.4459 78.3054 51.2904 77.8098 50.9795C77.3172 50.6655 76.9386 50.233 76.6739 49.682C76.4092 49.131 76.2768 48.5 76.2768 47.7889C76.2768 47.0686 76.4122 46.4329 76.6831 45.8819C76.954 45.3278 77.3357 44.8954 77.8282 44.5845C78.3208 44.2735 78.901 44.1181 79.569 44.1181C80.1077 44.1181 80.5879 44.2181 81.0096 44.4182C81.4313 44.6152 81.7715 44.8923 82.0301 45.2494C82.2917 45.6064 82.4472 46.0235 82.4964 46.5007H81.1528C81.0789 46.1682 80.9096 45.8819 80.6448 45.6418C80.3832 45.4017 80.0323 45.2817 79.5921 45.2817C79.2073 45.2817 78.8702 45.3833 78.5809 45.5864C78.2946 45.7865 78.0714 46.0728 77.9114 46.4453C77.7513 46.8146 77.6712 47.2518 77.6712 47.7566C77.6712 48.2737 77.7497 48.7201 77.9067 49.0956C78.0637 49.4712 78.2854 49.7621 78.5716 49.9683C78.861 50.1746 79.2011 50.2777 79.5921 50.2777C79.8537 50.2777 80.0908 50.23 80.3032 50.1345C80.5186 50.036 80.6987 49.896 80.8434 49.7144C80.9911 49.5327 81.0943 49.3142 81.1528 49.0587H82.4964C82.4472 49.5173 82.2979 49.9268 82.0485 50.2869C81.7992 50.6471 81.4652 50.9303 81.0466 51.1365C80.631 51.3428 80.1431 51.4459 79.5828 51.4459ZM84.9825 48.8971L84.9733 47.2117H85.2134L88.0392 44.2104H89.6923L86.4693 47.6273H86.2523L84.9825 48.8971ZM83.7128 51.3027V41.8463H85.0934V51.3027H83.7128ZM88.1916 51.3027L85.6521 47.932L86.6032 46.967L89.8862 51.3027H88.1916ZM95.2521 47.0917V51.3027H93.8715V41.8463H95.2336V45.3648H95.3214C95.4876 44.9831 95.7415 44.6799 96.0832 44.4552C96.4249 44.2305 96.8713 44.1181 97.4223 44.1181C97.9086 44.1181 98.3334 44.2181 98.6967 44.4182C99.063 44.6183 99.3462 44.9169 99.5463 45.314C99.7494 45.708 99.851 46.2005 99.851 46.7916V51.3027H98.4704V46.9578C98.4704 46.4376 98.3365 46.0343 98.0687 45.748C97.8009 45.4587 97.4284 45.314 96.9513 45.314C96.625 45.314 96.3326 45.3833 96.074 45.5218C95.8185 45.6603 95.6169 45.8635 95.4691 46.1313C95.3244 46.396 95.2521 46.7161 95.2521 47.0917ZM104.49 51.4459C103.791 51.4459 103.189 51.2966 102.685 50.998C102.183 50.6963 101.795 50.2731 101.521 49.7282C101.25 49.1803 101.115 48.5385 101.115 47.8028C101.115 47.0763 101.25 46.436 101.521 45.8819C101.795 45.3278 102.177 44.8954 102.666 44.5845C103.159 44.2735 103.734 44.1181 104.393 44.1181C104.793 44.1181 105.181 44.1843 105.557 44.3166C105.932 44.449 106.269 44.6568 106.568 44.94C106.866 45.2232 107.102 45.591 107.274 46.0435C107.447 46.493 107.533 47.0394 107.533 47.6827V48.1722H101.895V47.1379H106.18C106.18 46.7746 106.106 46.453 105.958 46.1728C105.811 45.8896 105.603 45.6665 105.335 45.5033C105.07 45.3402 104.759 45.2586 104.402 45.2586C104.014 45.2586 103.676 45.354 103.386 45.5449C103.1 45.7326 102.879 45.9789 102.722 46.2836C102.568 46.5853 102.491 46.9131 102.491 47.2671V48.0752C102.491 48.5492 102.574 48.9525 102.74 49.2849C102.909 49.6174 103.145 49.8713 103.446 50.0468C103.748 50.2192 104.101 50.3054 104.504 50.3054C104.765 50.3054 105.004 50.2684 105.22 50.1946C105.435 50.1176 105.621 50.0037 105.778 49.8529C105.935 49.702 106.055 49.5158 106.138 49.2942L107.445 49.5297C107.34 49.9144 107.153 50.2515 106.882 50.5409C106.614 50.8271 106.277 51.0503 105.871 51.2104C105.467 51.3674 105.007 51.4459 104.49 51.4459ZM108.805 51.3027V44.2104H110.139V45.3371H110.213C110.342 44.9554 110.57 44.6553 110.896 44.4367C111.226 44.2151 111.598 44.1042 112.014 44.1042C112.1 44.1042 112.201 44.1073 112.318 44.1135C112.438 44.1196 112.532 44.1273 112.6 44.1366V45.4571C112.545 45.4417 112.446 45.4248 112.305 45.4063C112.163 45.3848 112.021 45.374 111.88 45.374C111.553 45.374 111.263 45.4433 111.007 45.5818C110.755 45.7172 110.555 45.9066 110.407 46.1497C110.259 46.3898 110.185 46.6638 110.185 46.9716V51.3027H108.805ZM116.338 51.4459C115.639 51.4459 115.037 51.2966 114.532 50.998C114.03 50.6963 113.643 50.2731 113.369 49.7282C113.098 49.1803 112.962 48.5385 112.962 47.8028C112.962 47.0763 113.098 46.436 113.369 45.8819C113.643 45.3278 114.024 44.8954 114.514 44.5845C115.006 44.2735 115.582 44.1181 116.241 44.1181C116.641 44.1181 117.029 44.1843 117.404 44.3166C117.78 44.449 118.117 44.6568 118.415 44.94C118.714 45.2232 118.949 45.591 119.122 46.0435C119.294 46.493 119.38 47.0394 119.38 47.6827V48.1722H113.743V47.1379H118.027C118.027 46.7746 117.954 46.453 117.806 46.1728C117.658 45.8896 117.45 45.6665 117.183 45.5033C116.918 45.3402 116.607 45.2586 116.25 45.2586C115.862 45.2586 115.523 45.354 115.234 45.5449C114.948 45.7326 114.726 45.9789 114.569 46.2836C114.415 46.5853 114.338 46.9131 114.338 47.2671V48.0752C114.338 48.5492 114.421 48.9525 114.588 49.2849C114.757 49.6174 114.992 49.8713 115.294 50.0468C115.596 50.2192 115.948 50.3054 116.351 50.3054C116.613 50.3054 116.852 50.2684 117.067 50.1946C117.283 50.1176 117.469 50.0037 117.626 49.8529C117.783 49.702 117.903 49.5158 117.986 49.2942L119.293 49.5297C119.188 49.9144 119 50.2515 118.729 50.5409C118.462 50.8271 118.124 51.0503 117.718 51.2104C117.315 51.3674 116.855 51.4459 116.338 51.4459ZM127.144 44.2104V45.3186H123.27V44.2104H127.144ZM124.309 42.5112H125.689V49.2203C125.689 49.4881 125.729 49.6897 125.809 49.8252C125.889 49.9575 125.993 50.0483 126.119 50.0976C126.248 50.1438 126.388 50.1669 126.539 50.1669C126.65 50.1669 126.747 50.1592 126.83 50.1438C126.913 50.1284 126.978 50.1161 127.024 50.1068L127.273 51.2473C127.193 51.2781 127.079 51.3089 126.931 51.3397C126.784 51.3735 126.599 51.392 126.377 51.3951C126.014 51.4012 125.676 51.3366 125.362 51.2012C125.048 51.0657 124.794 50.8564 124.6 50.5732C124.406 50.29 124.309 49.9345 124.309 49.5066V42.5112ZM131.322 51.4459C130.657 51.4459 130.077 51.2935 129.581 50.9888C129.086 50.684 128.701 50.2577 128.427 49.7097C128.153 49.1618 128.016 48.5215 128.016 47.7889C128.016 47.0532 128.153 46.4099 128.427 45.8588C128.701 45.3078 129.086 44.88 129.581 44.5752C130.077 44.2705 130.657 44.1181 131.322 44.1181C131.987 44.1181 132.567 44.2705 133.063 44.5752C133.559 44.88 133.943 45.3078 134.217 45.8588C134.491 46.4099 134.628 47.0532 134.628 47.7889C134.628 48.5215 134.491 49.1618 134.217 49.7097C133.943 50.2577 133.559 50.684 133.063 50.9888C132.567 51.2935 131.987 51.4459 131.322 51.4459ZM131.327 50.2869C131.758 50.2869 132.115 50.173 132.398 49.9452C132.681 49.7174 132.891 49.4142 133.026 49.0356C133.165 48.657 133.234 48.2399 133.234 47.7843C133.234 47.3318 133.165 46.9162 133.026 46.5376C132.891 46.1559 132.681 45.8496 132.398 45.6187C132.115 45.3879 131.758 45.2724 131.327 45.2724C130.893 45.2724 130.533 45.3879 130.246 45.6187C129.963 45.8496 129.752 46.1559 129.614 46.5376C129.478 46.9162 129.411 47.3318 129.411 47.7843C129.411 48.2399 129.478 48.657 129.614 49.0356C129.752 49.4142 129.963 49.7174 130.246 49.9452C130.533 50.173 130.893 50.2869 131.327 50.2869ZM139.09 44.2104H140.471V51.7645C140.471 52.2385 140.385 52.6387 140.212 52.965C140.043 53.2913 139.791 53.5391 139.455 53.7084C139.123 53.8777 138.712 53.9623 138.222 53.9623C138.173 53.9623 138.127 53.9623 138.084 53.9623C138.038 53.9623 137.99 53.9608 137.941 53.9577V52.7711C137.984 52.7711 138.022 52.7711 138.056 52.7711C138.087 52.7711 138.122 52.7711 138.162 52.7711C138.489 52.7711 138.724 52.6833 138.869 52.5079C139.016 52.3355 139.09 52.0846 139.09 51.7552V44.2104ZM139.774 43.1161C139.534 43.1161 139.327 43.0361 139.155 42.876C138.986 42.7129 138.901 42.5189 138.901 42.2942C138.901 42.0664 138.986 41.8725 139.155 41.7124C139.327 41.5493 139.534 41.4677 139.774 41.4677C140.014 41.4677 140.219 41.5493 140.388 41.7124C140.56 41.8725 140.646 42.0664 140.646 42.2942C140.646 42.5189 140.56 42.7129 140.388 42.876C140.219 43.0361 140.014 43.1161 139.774 43.1161ZM145.056 51.4459C144.391 51.4459 143.811 51.2935 143.315 50.9888C142.819 50.684 142.435 50.2577 142.161 49.7097C141.887 49.1618 141.75 48.5215 141.75 47.7889C141.75 47.0532 141.887 46.4099 142.161 45.8588C142.435 45.3078 142.819 44.88 143.315 44.5752C143.811 44.2705 144.391 44.1181 145.056 44.1181C145.721 44.1181 146.301 44.2705 146.796 44.5752C147.292 44.88 147.677 45.3078 147.951 45.8588C148.225 46.4099 148.362 47.0532 148.362 47.7889C148.362 48.5215 148.225 49.1618 147.951 49.7097C147.677 50.2577 147.292 50.684 146.796 50.9888C146.301 51.2935 145.721 51.4459 145.056 51.4459ZM145.06 50.2869C145.491 50.2869 145.848 50.173 146.132 49.9452C146.415 49.7174 146.624 49.4142 146.759 49.0356C146.898 48.657 146.967 48.2399 146.967 47.7843C146.967 47.3318 146.898 46.9162 146.759 46.5376C146.624 46.1559 146.415 45.8496 146.132 45.6187C145.848 45.3879 145.491 45.2724 145.06 45.2724C144.626 45.2724 144.266 45.3879 143.98 45.6187C143.697 45.8496 143.486 46.1559 143.347 46.5376C143.212 46.9162 143.144 47.3318 143.144 47.7843C143.144 48.2399 143.212 48.657 143.347 49.0356C143.486 49.4142 143.697 49.7174 143.98 49.9452C144.266 50.173 144.626 50.2869 145.06 50.2869ZM149.643 51.3027V44.2104H151.023V51.3027H149.643ZM150.34 43.1161C150.1 43.1161 149.894 43.0361 149.721 42.876C149.552 42.7129 149.467 42.5189 149.467 42.2942C149.467 42.0664 149.552 41.8725 149.721 41.7124C149.894 41.5493 150.1 41.4677 150.34 41.4677C150.58 41.4677 150.785 41.5493 150.954 41.7124C151.126 41.8725 151.213 42.0664 151.213 42.2942C151.213 42.5189 151.126 42.7129 150.954 42.876C150.785 43.0361 150.58 43.1161 150.34 43.1161ZM154.001 47.0917V51.3027H152.621V44.2104H153.946V45.3648H154.034C154.197 44.9892 154.452 44.6876 154.8 44.4598C155.151 44.232 155.593 44.1181 156.125 44.1181C156.608 44.1181 157.032 44.2197 157.395 44.4228C157.758 44.6229 158.04 44.9215 158.24 45.3186C158.44 45.7157 158.54 46.2067 158.54 46.7916V51.3027H157.159V46.9578C157.159 46.4437 157.026 46.042 156.758 45.7526C156.49 45.4602 156.122 45.314 155.654 45.314C155.334 45.314 155.049 45.3833 154.8 45.5218C154.554 45.6603 154.358 45.8635 154.214 46.1313C154.072 46.396 154.001 46.7161 154.001 47.0917ZM166.3 51.4459C165.635 51.4459 165.055 51.2935 164.559 50.9888C164.064 50.684 163.679 50.2577 163.405 49.7097C163.131 49.1618 162.994 48.5215 162.994 47.7889C162.994 47.0532 163.131 46.4099 163.405 45.8588C163.679 45.3078 164.064 44.88 164.559 44.5752C165.055 44.2705 165.635 44.1181 166.3 44.1181C166.965 44.1181 167.545 44.2705 168.041 44.5752C168.536 44.88 168.921 45.3078 169.195 45.8588C169.469 46.4099 169.606 47.0532 169.606 47.7889C169.606 48.5215 169.469 49.1618 169.195 49.7097C168.921 50.2577 168.536 50.684 168.041 50.9888C167.545 51.2935 166.965 51.4459 166.3 51.4459ZM166.305 50.2869C166.736 50.2869 167.093 50.173 167.376 49.9452C167.659 49.7174 167.868 49.4142 168.004 49.0356C168.142 48.657 168.212 48.2399 168.212 47.7843C168.212 47.3318 168.142 46.9162 168.004 46.5376C167.868 46.1559 167.659 45.8496 167.376 45.6187C167.093 45.3879 166.736 45.2724 166.305 45.2724C165.871 45.2724 165.511 45.3879 165.224 45.6187C164.941 45.8496 164.73 46.1559 164.592 46.5376C164.456 46.9162 164.388 47.3318 164.388 47.7843C164.388 48.2399 164.456 48.657 164.592 49.0356C164.73 49.4142 164.941 49.7174 165.224 49.9452C165.511 50.173 165.871 50.2869 166.305 50.2869ZM175.38 48.3615V44.2104H176.765V51.3027H175.408V50.0745H175.334C175.171 50.4531 174.909 50.7687 174.549 51.0211C174.192 51.2704 173.747 51.3951 173.214 51.3951C172.759 51.3951 172.355 51.295 172.005 51.095C171.657 50.8918 171.383 50.5917 171.183 50.1946C170.986 49.7975 170.887 49.3065 170.887 48.7216V44.2104H172.268V48.5554C172.268 49.0387 172.402 49.4235 172.669 49.7097C172.937 49.996 173.285 50.1392 173.713 50.1392C173.972 50.1392 174.229 50.0745 174.484 49.9452C174.743 49.8159 174.957 49.6205 175.126 49.3588C175.298 49.0972 175.383 48.7647 175.38 48.3615ZM178.36 51.3027V44.2104H179.694V45.3371H179.768C179.898 44.9554 180.125 44.6553 180.452 44.4367C180.781 44.2151 181.154 44.1042 181.569 44.1042C181.655 44.1042 181.757 44.1073 181.874 44.1135C181.994 44.1196 182.088 44.1273 182.156 44.1366V45.4571C182.1 45.4417 182.002 45.4248 181.86 45.4063C181.718 45.3848 181.577 45.374 181.435 45.374C181.109 45.374 180.818 45.4433 180.563 45.5818C180.31 45.7172 180.11 45.9066 179.962 46.1497C179.814 46.3898 179.741 46.6638 179.741 46.9716V51.3027H178.36ZM188.926 51.4413C188.354 51.4413 187.843 51.295 187.393 51.0026C186.947 50.7071 186.596 50.2869 186.341 49.7421C186.088 49.1941 185.962 48.5369 185.962 47.7704C185.962 47.004 186.09 46.3483 186.345 45.8034C186.604 45.2586 186.958 44.8415 187.407 44.5521C187.857 44.2628 188.366 44.1181 188.935 44.1181C189.376 44.1181 189.73 44.192 189.997 44.3397C190.268 44.4844 190.478 44.6537 190.625 44.8476C190.776 45.0416 190.893 45.2124 190.976 45.3602H191.059V41.8463H192.44V51.3027H191.092V50.1992H190.976C190.893 50.35 190.773 50.5224 190.616 50.7163C190.462 50.9103 190.25 51.0796 189.979 51.2242C189.708 51.3689 189.357 51.4413 188.926 51.4413ZM189.231 50.2638C189.628 50.2638 189.964 50.1592 190.238 49.9498C190.515 49.7374 190.724 49.4435 190.866 49.0679C191.01 48.6924 191.083 48.2553 191.083 47.7566C191.083 47.2641 191.012 46.8331 190.87 46.4637C190.729 46.0943 190.521 45.8065 190.247 45.6003C189.973 45.394 189.634 45.2909 189.231 45.2909C188.815 45.2909 188.469 45.3986 188.192 45.6141C187.915 45.8296 187.706 46.1236 187.564 46.496C187.426 46.8685 187.356 47.2887 187.356 47.7566C187.356 48.2306 187.427 48.657 187.569 49.0356C187.71 49.4142 187.92 49.7144 188.197 49.936C188.477 50.1545 188.822 50.2638 189.231 50.2638ZM194.15 51.3027V44.2104H195.531V51.3027H194.15ZM194.848 43.1161C194.608 43.1161 194.401 43.0361 194.229 42.876C194.06 42.7129 193.975 42.5189 193.975 42.2942C193.975 42.0664 194.06 41.8725 194.229 41.7124C194.401 41.5493 194.608 41.4677 194.848 41.4677C195.088 41.4677 195.293 41.5493 195.462 41.7124C195.634 41.8725 195.72 42.0664 195.72 42.2942C195.72 42.5189 195.634 42.7129 195.462 42.876C195.293 43.0361 195.088 43.1161 194.848 43.1161ZM202.443 45.942L201.192 46.1636C201.139 46.0035 201.056 45.8512 200.942 45.7065C200.832 45.5618 200.681 45.4433 200.49 45.3509C200.299 45.2586 200.06 45.2124 199.774 45.2124C199.383 45.2124 199.057 45.3001 198.795 45.4756C198.534 45.648 198.403 45.8712 198.403 46.1451C198.403 46.3822 198.49 46.573 198.666 46.7177C198.841 46.8624 199.125 46.9809 199.516 47.0732L200.642 47.3318C201.295 47.4826 201.781 47.715 202.101 48.029C202.421 48.343 202.581 48.7509 202.581 49.2526C202.581 49.6774 202.458 50.056 202.212 50.3885C201.969 50.7179 201.629 50.9764 201.192 51.1642C200.758 51.352 200.254 51.4459 199.682 51.4459C198.888 51.4459 198.24 51.2766 197.738 50.938C197.236 50.5963 196.928 50.1115 196.814 49.4835L198.149 49.2803C198.232 49.6282 198.403 49.8914 198.661 50.0699C198.92 50.2454 199.257 50.3331 199.673 50.3331C200.125 50.3331 200.487 50.2392 200.758 50.0514C201.029 49.8606 201.164 49.6282 201.164 49.3542C201.164 49.1326 201.081 48.9463 200.915 48.7955C200.751 48.6447 200.501 48.5308 200.162 48.4538L198.961 48.1906C198.3 48.0398 197.81 47.7997 197.493 47.4703C197.179 47.1409 197.022 46.7238 197.022 46.219C197.022 45.8004 197.139 45.434 197.373 45.1201C197.607 44.8061 197.93 44.5614 198.343 44.3859C198.755 44.2074 199.228 44.1181 199.76 44.1181C200.527 44.1181 201.13 44.2843 201.57 44.6168C202.01 44.9461 202.301 45.3879 202.443 45.942ZM206.827 51.4459C206.14 51.4459 205.549 51.2904 205.054 50.9795C204.561 50.6655 204.183 50.233 203.918 49.682C203.653 49.131 203.521 48.5 203.521 47.7889C203.521 47.0686 203.656 46.4329 203.927 45.8819C204.198 45.3278 204.58 44.8954 205.072 44.5845C205.565 44.2735 206.145 44.1181 206.813 44.1181C207.352 44.1181 207.832 44.2181 208.254 44.4182C208.675 44.6152 209.015 44.8923 209.274 45.2494C209.536 45.6064 209.691 46.0235 209.74 46.5007H208.397C208.323 46.1682 208.154 45.8819 207.889 45.6418C207.627 45.4017 207.276 45.2817 206.836 45.2817C206.451 45.2817 206.114 45.3833 205.825 45.5864C205.539 45.7865 205.315 46.0728 205.155 46.4453C204.995 46.8146 204.915 47.2518 204.915 47.7566C204.915 48.2737 204.994 48.7201 205.151 49.0956C205.308 49.4712 205.529 49.7621 205.816 49.9683C206.105 50.1746 206.445 50.2777 206.836 50.2777C207.098 50.2777 207.335 50.23 207.547 50.1345C207.763 50.036 207.943 49.896 208.087 49.7144C208.235 49.5327 208.338 49.3142 208.397 49.0587H209.74C209.691 49.5173 209.542 49.9268 209.293 50.2869C209.043 50.6471 208.709 50.9303 208.291 51.1365C207.875 51.3428 207.387 51.4459 206.827 51.4459ZM213.944 51.4459C213.279 51.4459 212.699 51.2935 212.203 50.9888C211.708 50.684 211.323 50.2577 211.049 49.7097C210.775 49.1618 210.638 48.5215 210.638 47.7889C210.638 47.0532 210.775 46.4099 211.049 45.8588C211.323 45.3078 211.708 44.88 212.203 44.5752C212.699 44.2705 213.279 44.1181 213.944 44.1181C214.609 44.1181 215.189 44.2705 215.685 44.5752C216.181 44.88 216.565 45.3078 216.839 45.8588C217.113 46.4099 217.25 47.0532 217.25 47.7889C217.25 48.5215 217.113 49.1618 216.839 49.7097C216.565 50.2577 216.181 50.684 215.685 50.9888C215.189 51.2935 214.609 51.4459 213.944 51.4459ZM213.949 50.2869C214.38 50.2869 214.737 50.173 215.02 49.9452C215.303 49.7174 215.513 49.4142 215.648 49.0356C215.787 48.657 215.856 48.2399 215.856 47.7843C215.856 47.3318 215.787 46.9162 215.648 46.5376C215.513 46.1559 215.303 45.8496 215.02 45.6187C214.737 45.3879 214.38 45.2724 213.949 45.2724C213.515 45.2724 213.155 45.3879 212.868 45.6187C212.585 45.8496 212.374 46.1559 212.236 46.5376C212.1 46.9162 212.033 47.3318 212.033 47.7843C212.033 48.2399 212.1 48.657 212.236 49.0356C212.374 49.4142 212.585 49.7174 212.868 49.9452C213.155 50.173 213.515 50.2869 213.949 50.2869ZM218.531 51.3027V44.2104H219.866V45.3371H219.94C220.069 44.9554 220.297 44.6553 220.623 44.4367C220.952 44.2151 221.325 44.1042 221.74 44.1042C221.827 44.1042 221.928 44.1073 222.045 44.1135C222.165 44.1196 222.259 44.1273 222.327 44.1366V45.4571C222.271 45.4417 222.173 45.4248 222.031 45.4063C221.89 45.3848 221.748 45.374 221.606 45.374C221.28 45.374 220.989 45.4433 220.734 45.5818C220.481 45.7172 220.281 45.9066 220.133 46.1497C219.986 46.3898 219.912 46.6638 219.912 46.9716V51.3027H218.531ZM225.662 51.4413C225.09 51.4413 224.579 51.295 224.129 51.0026C223.683 50.7071 223.332 50.2869 223.077 49.7421C222.824 49.1941 222.698 48.5369 222.698 47.7704C222.698 47.004 222.826 46.3483 223.081 45.8034C223.34 45.2586 223.694 44.8415 224.143 44.5521C224.593 44.2628 225.102 44.1181 225.672 44.1181C226.112 44.1181 226.466 44.192 226.734 44.3397C227.005 44.4844 227.214 44.6537 227.362 44.8476C227.512 45.0416 227.629 45.2124 227.713 45.3602H227.796V41.8463H229.176V51.3027H227.828V50.1992H227.713C227.629 50.35 227.509 50.5224 227.352 50.7163C227.199 50.9103 226.986 51.0796 226.715 51.2242C226.444 51.3689 226.093 51.4413 225.662 51.4413ZM225.967 50.2638C226.364 50.2638 226.7 50.1592 226.974 49.9498C227.251 49.7374 227.46 49.4435 227.602 49.0679C227.746 48.6924 227.819 48.2553 227.819 47.7566C227.819 47.2641 227.748 46.8331 227.606 46.4637C227.465 46.0943 227.257 45.8065 226.983 45.6003C226.709 45.394 226.37 45.2909 225.967 45.2909C225.552 45.2909 225.205 45.3986 224.928 45.6141C224.651 45.8296 224.442 46.1236 224.3 46.496C224.162 46.8685 224.093 47.2887 224.093 47.7566C224.093 48.2306 224.163 48.657 224.305 49.0356C224.447 49.4142 224.656 49.7144 224.933 49.936C225.213 50.1545 225.558 50.2638 225.967 50.2638ZM237.055 51.4459C236.369 51.4459 235.778 51.2904 235.282 50.9795C234.79 50.6655 234.411 50.233 234.146 49.682C233.882 49.131 233.749 48.5 233.749 47.7889C233.749 47.0686 233.885 46.4329 234.155 45.8819C234.426 45.3278 234.808 44.8954 235.301 44.5845C235.793 44.2735 236.373 44.1181 237.041 44.1181C237.58 44.1181 238.06 44.2181 238.482 44.4182C238.904 44.6152 239.244 44.8923 239.502 45.2494C239.764 45.6064 239.919 46.0235 239.969 46.5007H238.625C238.551 46.1682 238.382 45.8819 238.117 45.6418C237.856 45.4017 237.505 45.2817 237.064 45.2817C236.68 45.2817 236.343 45.3833 236.053 45.5864C235.767 45.7865 235.544 46.0728 235.384 46.4453C235.224 46.8146 235.144 47.2518 235.144 47.7566C235.144 48.2737 235.222 48.7201 235.379 49.0956C235.536 49.4712 235.758 49.7621 236.044 49.9683C236.333 50.1746 236.673 50.2777 237.064 50.2777C237.326 50.2777 237.563 50.23 237.775 50.1345C237.991 50.036 238.171 49.896 238.316 49.7144C238.463 49.5327 238.567 49.3142 238.625 49.0587H239.969C239.919 49.5173 239.77 49.9268 239.521 50.2869C239.272 50.6471 238.938 50.9303 238.519 51.1365C238.103 51.3428 237.615 51.4459 237.055 51.4459ZM244.173 51.4459C243.508 51.4459 242.927 51.2935 242.432 50.9888C241.936 50.684 241.551 50.2577 241.277 49.7097C241.003 49.1618 240.867 48.5215 240.867 47.7889C240.867 47.0532 241.003 46.4099 241.277 45.8588C241.551 45.3078 241.936 44.88 242.432 44.5752C242.927 44.2705 243.508 44.1181 244.173 44.1181C244.837 44.1181 245.418 44.2705 245.913 44.5752C246.409 44.88 246.794 45.3078 247.068 45.8588C247.342 46.4099 247.479 47.0532 247.479 47.7889C247.479 48.5215 247.342 49.1618 247.068 49.7097C246.794 50.2577 246.409 50.684 245.913 50.9888C245.418 51.2935 244.837 51.4459 244.173 51.4459ZM244.177 50.2869C244.608 50.2869 244.965 50.173 245.248 49.9452C245.532 49.7174 245.741 49.4142 245.876 49.0356C246.015 48.657 246.084 48.2399 246.084 47.7843C246.084 47.3318 246.015 46.9162 245.876 46.5376C245.741 46.1559 245.532 45.8496 245.248 45.6187C244.965 45.3879 244.608 45.2724 244.177 45.2724C243.743 45.2724 243.383 45.3879 243.097 45.6187C242.814 45.8496 242.603 46.1559 242.464 46.5376C242.329 46.9162 242.261 47.3318 242.261 47.7843C242.261 48.2399 242.329 48.657 242.464 49.0356C242.603 49.4142 242.814 49.7174 243.097 49.9452C243.383 50.173 243.743 50.2869 244.177 50.2869ZM248.76 51.3027V44.2104H250.085V45.3648H250.173C250.32 44.9739 250.562 44.6691 250.897 44.4505C251.233 44.2289 251.635 44.1181 252.103 44.1181C252.577 44.1181 252.974 44.2289 253.294 44.4505C253.617 44.6722 253.856 44.9769 254.01 45.3648H254.083C254.253 44.9862 254.522 44.6845 254.891 44.4598C255.261 44.232 255.701 44.1181 256.212 44.1181C256.855 44.1181 257.38 44.3197 257.787 44.723C258.196 45.1262 258.401 45.7342 258.401 46.5468V51.3027H257.02V46.6761C257.02 46.1959 256.889 45.8481 256.628 45.6326C256.366 45.4171 256.054 45.3094 255.69 45.3094C255.241 45.3094 254.891 45.4479 254.642 45.7249C254.393 45.9989 254.268 46.3514 254.268 46.7823V51.3027H252.892V46.5884C252.892 46.2036 252.772 45.8942 252.532 45.6603C252.292 45.4264 251.979 45.3094 251.595 45.3094C251.333 45.3094 251.091 45.3786 250.87 45.5172C250.651 45.6526 250.474 45.8419 250.339 46.0851C250.206 46.3283 250.14 46.6099 250.14 46.9301V51.3027H248.76ZM259.991 51.3027V44.2104H261.316V45.3648H261.404C261.552 44.9739 261.793 44.6691 262.129 44.4505C262.464 44.2289 262.866 44.1181 263.334 44.1181C263.808 44.1181 264.205 44.2289 264.525 44.4505C264.849 44.6722 265.087 44.9769 265.241 45.3648H265.315C265.484 44.9862 265.754 44.6845 266.123 44.4598C266.492 44.232 266.932 44.1181 267.443 44.1181C268.087 44.1181 268.612 44.3197 269.018 44.723C269.427 45.1262 269.632 45.7342 269.632 46.5468V51.3027H268.252V46.6761C268.252 46.1959 268.121 45.8481 267.859 45.6326C267.597 45.4171 267.285 45.3094 266.922 45.3094C266.472 45.3094 266.123 45.4479 265.874 45.7249C265.624 45.9989 265.5 46.3514 265.5 46.7823V51.3027H264.124V46.5884C264.124 46.2036 264.004 45.8942 263.763 45.6603C263.523 45.4264 263.211 45.3094 262.826 45.3094C262.564 45.3094 262.323 45.3786 262.101 45.5172C261.883 45.6526 261.706 45.8419 261.57 46.0851C261.438 46.3283 261.372 46.6099 261.372 46.9301V51.3027H259.991ZM275.715 48.3615V44.2104H277.1V51.3027H275.743V50.0745H275.669C275.506 50.4531 275.244 50.7687 274.884 51.0211C274.527 51.2704 274.082 51.3951 273.55 51.3951C273.094 51.3951 272.691 51.295 272.34 51.095C271.992 50.8918 271.718 50.5917 271.518 50.1946C271.321 49.7975 271.222 49.3065 271.222 48.7216V44.2104H272.603V48.5554C272.603 49.0387 272.737 49.4235 273.005 49.7097C273.273 49.996 273.62 50.1392 274.048 50.1392C274.307 50.1392 274.564 50.0745 274.819 49.9452C275.078 49.8159 275.292 49.6205 275.461 49.3588C275.634 49.0972 275.718 48.7647 275.715 48.3615ZM280.076 47.0917V51.3027H278.695V44.2104H280.021V45.3648H280.108C280.271 44.9892 280.527 44.6876 280.875 44.4598C281.226 44.232 281.667 44.1181 282.2 44.1181C282.683 44.1181 283.107 44.2197 283.47 44.4228C283.833 44.6229 284.115 44.9215 284.315 45.3186C284.515 45.7157 284.615 46.2067 284.615 46.7916V51.3027H283.234V46.9578C283.234 46.4437 283.1 46.042 282.833 45.7526C282.565 45.4602 282.197 45.314 281.729 45.314C281.409 45.314 281.124 45.3833 280.875 45.5218C280.629 45.6603 280.433 45.8635 280.288 46.1313C280.147 46.396 280.076 46.7161 280.076 47.0917ZM286.206 51.3027V44.2104H287.587V51.3027H286.206ZM286.904 43.1161C286.663 43.1161 286.457 43.0361 286.285 42.876C286.116 42.7129 286.031 42.5189 286.031 42.2942C286.031 42.0664 286.116 41.8725 286.285 41.7124C286.457 41.5493 286.663 41.4677 286.904 41.4677C287.144 41.4677 287.348 41.5493 287.518 41.7124C287.69 41.8725 287.776 42.0664 287.776 42.2942C287.776 42.5189 287.69 42.7129 287.518 42.876C287.348 43.0361 287.144 43.1161 286.904 43.1161ZM292.495 44.2104V45.3186H288.621V44.2104H292.495ZM289.66 42.5112H291.04V49.2203C291.04 49.4881 291.08 49.6897 291.16 49.8252C291.241 49.9575 291.344 50.0483 291.47 50.0976C291.599 50.1438 291.739 50.1669 291.89 50.1669C292.001 50.1669 292.098 50.1592 292.181 50.1438C292.264 50.1284 292.329 50.1161 292.375 50.1068L292.624 51.2473C292.544 51.2781 292.43 51.3089 292.283 51.3397C292.135 51.3735 291.95 51.392 291.728 51.3951C291.365 51.4012 291.027 51.3366 290.713 51.2012C290.399 51.0657 290.145 50.8564 289.951 50.5732C289.757 50.29 289.66 49.9345 289.66 49.5066V42.5112ZM294.635 53.9623C294.429 53.9623 294.241 53.9454 294.071 53.9116C293.902 53.8808 293.776 53.8469 293.693 53.81L294.025 52.6787C294.278 52.7464 294.502 52.7757 294.699 52.7664C294.896 52.7572 295.07 52.6833 295.221 52.5448C295.375 52.4063 295.511 52.18 295.627 51.8661L295.798 51.3951L293.203 44.2104H294.681L296.477 49.7144H296.551L298.347 44.2104H299.829L296.906 52.2493C296.771 52.6187 296.599 52.9311 296.389 53.1866C296.18 53.4452 295.931 53.6391 295.641 53.7684C295.352 53.8977 295.016 53.9623 294.635 53.9623Z" fill="white"/>
</svg>
